<?xml version="1.0" encoding="utf-8"?>
<!-- Generator: Adobe Illustrator 22.1.0, SVG Export Plug-In . SVG Version: 6.00 Build 0)  -->
<svg version="1.1" id="Layer_1" xmlns="http://www.w3.org/2000/svg" xmlns:xlink="http://www.w3.org/1999/xlink" x="0px" y="0px"
	 viewBox="0 0 248.1 284.7" style="enable-background:new 0 0 248.1 284.7;" xml:space="preserve">
<path class="st40" d="M56.8,29.2H47v-14h9.8V29.2z M48.3,28h7.3V16.5h-7.3V28z"/>
<path class="st40" d="M58.8,33.6l-1.1-1.2c-3.3-3.6-10-3.2-10-3.2L47.6,28c0.1,0,1.8-0.1,4.1,0.3c2.4,0.4,4.4,1.2,5.9,2.3V18.7
	l-1.5-0.4l0.3-1.2l2.4,0.6V33.6z"/>
<rect x="62" y="11.6" transform="matrix(0.8725 -0.4887 0.4887 0.8725 2.4019 33.5974)" class="st40" width="7.1" height="1.3"/>
<rect x="65.7" y="19.6" transform="matrix(0.2878 -0.9577 0.9577 0.2878 25.2979 79.8174)" class="st40" width="1.3" height="6.5"/>
<rect x="46.1" y="3.7" transform="matrix(0.9294 -0.3692 0.3692 0.9294 0.7475 17.7551)" class="st40" width="1.3" height="6.4"/>
<path class="st41" d="M102.9,213.3l-0.4-1.2c11.1-4.2,23.1-0.8,23.9-0.4l-0.6,1.1l0.3-0.5l-0.3,0.6
	C124.9,212.5,113.4,209.4,102.9,213.3z"/>
<path class="st41" d="M143.4,227.2c-1.6-4.1-4.3-7.7-7.8-10.4l0.8-1c3.7,2.9,6.5,6.7,8.2,11L143.4,227.2z"/>
<path class="st41" d="M131.1,260.2l-0.5-1.1c1.7-0.8,3.1-1.6,4.2-2.1l0.2-0.1l0.6,1.1l-0.2,0.1C134.3,258.6,132.8,259.4,131.1,260.2z
	"/>
<path class="st41" d="M112.5,265c-3.6,0-7-0.6-10.2-1.7l0.4-1.2c3.1,1.1,6.4,1.6,9.8,1.6c3.6,0,7.5-0.7,11.6-2l0.4,1.2
	C120.3,264.3,116.3,265,112.5,265z"/>
<path class="st41" d="M96.5,260.4c-7.7-4.9-12.1-12.9-12.1-22.1c0-5.8,1.8-11.4,5.1-16.1c3.2-4.6,7.7-8.1,13-10.1l0.5,1.2
	c-5,1.9-9.3,5.3-12.4,9.7c-3.2,4.5-4.8,9.8-4.8,15.4c0,8.7,4.2,16.4,11.5,21L96.5,260.4z"/>
<path class="st41" d="M135.6,257.9l-0.6-1.1c13.6-7.9,17-17.3,17.3-18.3c0-5.7-1.6-7.1-2-7.4c-2.9-0.1-5.6-1.8-6.9-4.5l1.1-0.5
	c1.1,2.3,3.4,3.8,5.9,3.8h0.1l0.1,0c0.3,0.1,2.9,1.3,2.9,8.7v0.1l0,0.1C153.4,239.2,150.3,249.4,135.6,257.9z"/>
<path class="st41" d="M134.7,232.9c-1.1,0-2.1-0.9-2.1-2.1s0.9-2.1,2.1-2.1c1.1,0,2.1,0.9,2.1,2.1S135.8,232.9,134.7,232.9z
	 M134.7,230.1c-0.4,0-0.8,0.4-0.8,0.8s0.4,0.8,0.8,0.8c0.4,0,0.8-0.4,0.8-0.8S135.1,230.1,134.7,230.1z"/>
<path class="st41" d="M134.6,222.2l-1.2-0.4c0.1-0.2,1.9-5.6,5.5-10.4c-0.5-0.6-1.8-2-4.2-2c0,0,0,0,0,0c-4.2,0-7.7,2.8-10.5,5.6
	l-0.9-0.9c3-3,6.7-6,11.4-6c0,0,0,0,0,0c3.9,0,5.5,2.9,5.6,3l0.2,0.4l-0.2,0.3C136.5,216.5,134.6,222.1,134.6,222.2z"/>
<path class="st41" d="M131.5,271c-1.4,0-2.8-1.7-4.2-3.3l-0.1-0.1c-1.8-2.1-4-4.7-4.1-4.7l1-0.8c0,0,2.3,2.6,4.1,4.8l0.1,0.1
	c1,1.2,2.5,3,3.3,2.9c0.3,0,0.4-0.2,0.6-0.3c0.3-0.4,0.2-1,0.2-1.2l0,0l-1.2-8.9l1.2-0.2l1.2,8.9c0,0.2,0.2,1.3-0.3,2.1
	c-0.3,0.5-0.8,0.8-1.4,0.9C131.7,271,131.6,271,131.5,271z"/>
<path class="st41" d="M96.1,271c-0.1,0-0.2,0-0.3,0c-0.6-0.1-1.1-0.4-1.4-0.9c-0.6-0.8-0.4-1.9-0.3-2.1l1.2-8.9l1.2,0.2l-1.2,8.9
	c0,0.2-0.1,0.8,0.2,1.2c0.1,0.2,0.3,0.3,0.6,0.3c0.7,0.1,2.3-1.7,3.3-2.9l0.1-0.1c1.8-2.1,4-4.7,4.1-4.8l1,0.8c0,0-2.3,2.6-4.1,4.7
	l-0.1,0.1C98.9,269.3,97.5,271,96.1,271z"/>
<path class="st41" d="M105.5,271.1c-0.4,0-0.8-0.1-1.1-0.4c-0.5-0.5-0.6-1.3-0.6-1.5l-0.5-6l1.3-0.1l0.5,6c0,0.1,0.1,0.5,0.2,0.6
	c0,0,0.1,0.1,0.3,0.1c0.4,0,1.2-1.6,1.6-2.2l0,0c0.9-1.7,2-3.7,2-3.7l1.1,0.6c0,0-1.1,2-2,3.7l0,0
	C107.5,269.6,106.7,271.1,105.5,271.1C105.6,271.1,105.5,271.1,105.5,271.1z"/>
<path class="st41" d="M123.2,271.1C123.1,271.1,123.1,271.1,123.2,271.1c-1.2,0-1.9-1.5-2.7-2.9l0,0c-0.9-1.6-2-3.6-2-3.7l1.1-0.6
	c0,0,1.1,2,2,3.7l0,0c0.4,0.7,1.2,2.2,1.6,2.2c0.1,0,0.2,0,0.3-0.1c0.2-0.2,0.2-0.5,0.2-0.6l0,0l0.5-6l1.3,0.1l-0.5,6
	c0,0.2-0.1,1-0.6,1.5C124,271,123.6,271.1,123.2,271.1z"/>
<path class="st41" d="M76.6,241C76.6,241,76.6,241,76.6,241c-1.7,0-2.9-0.8-3.3-2.1c-0.4-1.3,0.3-2.6,1.6-3.5c0.8-0.5,2-0.8,3.5-1
	c-0.2-0.4-0.5-0.7-0.8-1c-0.9-0.9-3.1-2.1-6.5-0.4l-0.5-1.1c3-1.4,5.9-1.2,7.9,0.7c0.6,0.5,1,1.2,1.4,1.8c2,0,4,0.3,5.5,0.9
	l-0.5,1.2c-1.3-0.5-3-0.8-4.6-0.8c0.3,1.1,0.3,2.2-0.1,3.1C79.5,240.2,78.3,241,76.6,241z M78.9,235.6c-1.4,0.1-2.7,0.4-3.4,0.8
	c-0.9,0.6-1.3,1.4-1.1,2.1c0.2,0.7,1,1.2,2.1,1.2c0,0,0,0,0,0c1.2,0,2-0.5,2.4-1.4C79.2,237.5,79.2,236.5,78.9,235.6z"/>
<rect x="58.7" y="269.9" class="st41" width="117.1" height="1.3"/>
<g>
	<polygon class="st41" points="116.3,132.2 89.3,119.7 89.5,119.1 106.8,81.6 108,82.1 90.9,119.1 115.7,130.5 131.7,95.8 109,85.3 
		109.5,84.2 133.4,95.2 133.1,95.7 	"/>
	<path class="st41" d="M109,85.3c-0.8-0.4-1.4-1-1.7-1.9c-0.3-0.8-0.3-1.7,0.1-2.5c0.4-0.8,1-1.4,1.9-1.7c0.8-0.3,1.7-0.3,2.5,0.1
		l-0.5,1.1c-0.5-0.2-1.1-0.3-1.6-0.1c-0.5,0.2-0.9,0.6-1.2,1.1c-0.2,0.5-0.3,1.1-0.1,1.6c0.2,0.5,0.6,0.9,1.1,1.2L109,85.3z"/>
	<path class="st41" d="M116.5,131.6l-1.1-0.6c1.5-2.9,4.3-3.1,5.9-2.6l16.5-35.7l-26.6-12.3l0.5-1.1l27.8,12.8l-0.3,0.6L122,130
		l-0.6-0.2C121.3,129.7,118.1,128.5,116.5,131.6z"/>
	<polygon class="st41" points="121.8,125.6 120.7,125.1 134.9,94.3 111,83.3 111.6,82.2 136.6,93.7 	"/>
</g>
<path class="st41" d="M123,211.5L123,211.5c-1.7-0.6-4.2-3.7-5.3-6.5c-0.7-2-0.8-3.7,0-4.9c1.1-1.8,0.5-3.2-0.1-4.4
	c-3.5-6.6-14.1-26.2-14.2-26.4l-0.3-0.6l4.9-2.4l0.3,0.6c0.1,0.2,9.3,20.2,12.9,26.7c1,1.8,2.4,2.7,4.3,2.7c0.3,0,0.7,0,1.1,0.2
	c2.8,0.9,6.2,5.2,5.1,10.7c-0.1,0.3-0.2,0.6-0.6,0.8c-0.2,0.1-0.5,0.2-0.8,0.1c-0.4-0.1-0.8-0.5-1.1-1.2l-2.3-4.5
	c-0.1-0.2-0.3-0.5-0.5-0.5c0,0-0.1,0-0.2,0c-0.2,0.1-0.3,0.2-0.3,0.4c0,0.3,0.2,0.5,0.2,0.7c0.1,0.2,0.1,0.2,0.4,0.9l2.5,4.9
	c0.8,1.5-0.2,2.2-0.6,2.4c-0.5,0.2-0.9,0.3-1.3,0.1c-0.5-0.2-0.9-0.6-1.3-1.3c-0.2-0.4-2.9-5.5-2.9-5.6l0-0.1l0-0.1
	c-0.1-0.2-0.2-0.6-0.4-0.6c-0.1,0-0.1,0-0.2,0c-0.3,0.1-0.3,0.2-0.3,0.2c0,0.1,0.1,0.3,0.2,0.4c0,0.1,0.1,0.1,0.1,0.2l2.4,4.8
	c0,0,0.2,0.3,0.2,0.7c0.1,0.6-0.1,1.2-0.7,1.4C123.8,211.6,123.4,211.6,123,211.5z M104.8,169.2c1.8,3.3,10.8,19.9,13.9,25.8
	c0.5,1,1.6,3,0.1,5.6c-0.7,1.1-0.3,2.7,0.1,3.8c1,2.7,3.3,5.4,4.5,5.7l0,0c0.1,0,0.2,0,0.2,0c0-0.1,0-0.3-0.1-0.5l-2.4-4.8
	c0,0,0-0.1-0.1-0.1c-0.2-0.3-0.5-0.8-0.3-1.4c0.1-0.4,0.4-0.7,0.9-1c0.5-0.2,0.9-0.2,1.2-0.1c0.8,0.3,1.1,1.1,1.2,1.4
	c0.3,0.6,2.7,5.2,2.9,5.6c0.2,0.5,0.4,0.6,0.5,0.6c0,0,0.1,0,0.4-0.1c0.2-0.1,0.3-0.2,0.1-0.7l-2.5-5c-0.3-0.7-0.3-0.7-0.4-0.9
	c-0.1-0.3-0.3-0.7-0.4-1.2c-0.1-0.7,0.3-1.3,0.9-1.6c0.4-0.2,0.8-0.2,1.2-0.1c0.8,0.3,1.2,1.1,1.2,1.2l2.2,4.5
	c0.1,0.1,0.1,0.3,0.2,0.3c0.8-4.8-2.3-8.3-4.3-9c-0.2-0.1-0.5-0.1-0.7-0.1c-0.7,0-1.4-0.1-2-0.3c-1.4-0.5-2.6-1.5-3.4-3
	c-3.2-5.8-11.1-22.8-12.6-26.2L104.8,169.2z"/>
<g>
	<text transform="matrix(1 0 0 1 93.0179 244.1515)" class="st40 st42 st43">705€ </text>
</g>
<path class="st41" d="M105.9,215.3l-0.5-1.2c0.2-0.1,4.4-1.8,11.8-1.1l-0.1,1.3C110,213.6,105.9,215.3,105.9,215.3z"/>
<path class="st40" d="M16.5,31.8c-2.3,0-4.2-1.9-4.2-4.2c0-1.1,0.4-2.1,1.1-2.9l0.9,0.9c-0.5,0.6-0.8,1.3-0.8,2c0,1.6,1.3,3,3,3
	c0.9,0,1.7-0.4,2.2-1l0.9,0.8C18.9,31.3,17.7,31.8,16.5,31.8z"/>
<rect x="17.8" y="42.4" class="st40" width="1.3" height="19.5"/>
<path class="st40" d="M29,62H24l0-3.4V39.4l0,0c0-0.2,0-0.8-0.2-1.1c-0.1-0.1-0.2-0.2-0.6-0.2c-0.3,0-0.5,0.1-0.6,0.2
	c-0.2,0.2-0.2,0.6-0.2,0.7l0,0.1v21.9h-1.3V39.1c0-0.2-0.1-1.1,0.5-1.7c0.3-0.3,0.7-0.6,1.6-0.6c0.8,0,1.3,0.3,1.5,0.6
	c0.6,0.7,0.6,1.8,0.5,2.1v19.1l0,2.1H29c1.1,0,1.1-0.5,1.1-0.8c0-0.6-0.7-0.7-0.9-0.7h-2.6l-0.1-16.8l1.3,0L28,58h1.3
	c0.9,0,2.1,0.5,2.1,2C31.4,61.2,30.5,62,29,62z"/>
<path class="st40" d="M19.8,30.1l-1.2-0.3c1.9-6.8-3.7-9.1-4-9.2l0.4-1.2c0.1,0,1.8,0.7,3.2,2.3C19.6,23.2,21,25.9,19.8,30.1z"/>
<path class="st40" d="M16.6,36.1c-4.7,0-8.6-3.8-8.6-8.6s3.8-8.6,8.6-8.6c0.3,0,0.6,0,0.9,0.1l-0.1,1.3c-0.3,0-0.5,0-0.8,0
	c-4,0-7.3,3.3-7.3,7.3s3.3,7.3,7.3,7.3c2.8,0,5.3-1.5,6.5-4l1.1,0.6C22.7,34.3,19.8,36.1,16.6,36.1z"/>
<path class="st40" d="M21.1,34l-2.7-3.8l0.1-0.3c0,0,0.4-0.9,0.4-2c0-0.9,0.7-1.6,1.5-1.5c0.5,0,1.1,0.3,1.4,1c0.2,0,0.5-0.1,0.8,0
	c0.6,0.1,1.2,0.6,1.6,1.3c0.7,1.3-0.1,2.7-0.1,2.8l-1.1-0.6c0,0,0.5-0.8,0.1-1.5c-0.2-0.4-0.5-0.6-0.7-0.7c-0.3-0.1-0.7,0.1-0.7,0.1
	l-1,0.7v-1.2c0-0.4-0.1-0.6-0.3-0.6c0,0,0,0,0,0c-0.1,0-0.2,0.1-0.2,0.3c0,0.9-0.2,1.7-0.4,2.1l2.3,3.3L21.1,34z"/>
<path class="st40" d="M18.3,38c-1.5,0-2.9-1-3.3-2.5l1.2-0.3c0.3,0.9,1.1,1.6,2.1,1.6c0.4,0,0.7-0.1,1.1-0.3l0.6,1.1
	C19.4,37.9,18.8,38,18.3,38z"/>
<path class="st40" d="M27.9,25.7l-1.3-0.1c0.2-2.3-0.3-4-2-5.4l0.6-1.1C26.7,20.3,28.2,22.4,27.9,25.7z"/>
<path class="st40" d="M16.1,40h-0.8c-2.2,0-4-1.8-4-4v-1.9h1.3v1.9c0,1.5,1.2,2.7,2.7,2.7h0.8V40z"/>
<rect x="21.7" y="33.1" class="st40" width="6.9" height="1.3"/>
<path class="st40" d="M28.5,34.4v-1.3c0.9,0,1.6-0.7,1.6-1.6c0-0.9-0.7-1.6-1.6-1.6v-1.3c1.6,0,2.9,1.3,2.9,2.9
	C31.4,33.1,30.1,34.4,28.5,34.4z"/>
<path class="st40" d="M28.5,29.9c-0.3,0-0.6-0.1-0.9-0.4c-0.8-0.8-0.9-2.8-0.9-3.2l1.3,0c0,1.2,0.3,2.3,0.6,2.4L28.5,29.9
	C28.5,29.9,28.5,29.9,28.5,29.9z"/>
<path class="st40" d="M22,22.9c-2.4,0-4.3-1.9-4.3-4.3s1.9-4.3,4.3-4.3s4.3,1.9,4.3,4.3S24.4,22.9,22,22.9z M22,15.5
	c-1.7,0-3,1.4-3,3c0,1.7,1.4,3,3,3c1.7,0,3-1.4,3-3C25,16.9,23.7,15.5,22,15.5z"/>
<circle class="st40" cx="170.6" cy="110.1" r="3.2"/>
<circle class="st40" cx="170.7" cy="119.6" r="3.2"/>
<circle class="st40" cx="170.5" cy="91.5" r="3.2"/>
<circle class="st40" cx="170.6" cy="101" r="3.2"/>
<circle class="st40" cx="202.3" cy="110.1" r="3.2"/>
<circle class="st40" cx="202.5" cy="119.6" r="3.2"/>
<circle class="st40" cx="202.2" cy="91.5" r="3.2"/>
<circle class="st40" cx="202.3" cy="101" r="3.2"/>
<circle class="st40" cx="202.1" cy="82" r="3.2"/>
<circle class="st40" cx="202" cy="63.3" r="3.2"/>
<circle class="st40" cx="202.1" cy="72.8" r="3.2"/>
<text transform="matrix(1 0 0 1 165.306 158.3798)" class="st40 st42 st44">45%</text>
<text transform="matrix(1 0 0 1 164.8666 141.5253)" class="st40 st45 st46">PP</text>
<rect x="69.2" y="109.3" class="st40" width="17.3" height="1.3"/>
<text transform="matrix(1 0 0 1 184.7982 141.3925)" class="st40 st45 st46">Botànic</text>
<rect x="207.1" y="57.5" transform="matrix(0.8725 -0.4886 0.4886 0.8725 -1.6673 109.8223)" class="st40" width="5.1" height="1.3"/>
<rect x="209.5" y="63.4" transform="matrix(0.2878 -0.9577 0.9577 0.2878 86.7064 248.0789)" class="st40" width="1.3" height="4.6"/>
<rect x="198.5" y="53.6" transform="matrix(0.9293 -0.3692 0.3692 0.9293 -6.5369 77.4819)" class="st40" width="1.3" height="4.5"/>
<rect x="192.4" y="62.5" transform="matrix(0.9997 -2.539071e-02 2.539071e-02 0.9997 -1.5414 4.958)" class="st40" width="4.1" height="1.3"/>
<rect x="193.8" y="68.4" transform="matrix(0.5003 -0.8658 0.8658 0.5003 35.8875 203.7449)" class="st40" width="1.3" height="4.7"/>
<rect x="207.2" y="79" transform="matrix(0.9324 -0.3614 0.3614 0.9324 -14.6168 81.133)" class="st40" width="4.8" height="1.3"/>
<rect x="209.5" y="83.9" transform="matrix(0.4481 -0.894 0.894 0.4481 39.3087 235.2094)" class="st40" width="1.3" height="3.8"/>
<rect x="194.3" y="77.5" transform="matrix(0.2023 -0.9793 0.9793 0.2023 77.5206 254.4636)" class="st40" width="1.3" height="4.3"/>
<rect x="193.2" y="85.1" transform="matrix(0.9028 -0.4301 0.4301 0.9028 -17.9362 92.1833)" class="st40" width="3.4" height="1.3"/>
<rect x="144.4" y="183.8" class="st40" width="12.9" height="1.3"/>
<text transform="matrix(1 0 0 1 12.4974 79.6617)" class="st40 st42 st44">424.636</text>
<path class="st40" d="M22.5,62h-4.7l0-0.6c0-0.2-0.1-1.9,0.8-2.9c0.4-0.4,1-0.7,1.6-0.7c0.6,0,1.2,0.2,1.6,0.7c0.9,1,0.8,2.7,0.8,2.9
	L22.5,62z M19,60.7h2.2c0-0.5-0.1-1.1-0.4-1.4c-0.2-0.2-0.4-0.3-0.6-0.3c-0.3,0-0.5,0.1-0.7,0.3C19.2,59.7,19.1,60.3,19,60.7z"/>
<rect x="207.3" y="72.1" transform="matrix(0.989 -0.1478 0.1478 0.989 -8.4536 31.7803)" class="st40" width="4.6" height="1.3"/>
<rect x="165.3" y="165.7" class="st47" width="73.7" height="60.4"/>
<text transform="matrix(1 0 0 1 165.306 171.6122)"><tspan x="0" y="0" class="st40 st45 st48">más alumnado se </tspan><tspan x="0" y="9.8" class="st40 st45 st48">ha visto benefici</tspan><tspan x="66.4" y="9.8" class="st40 st45 st48">-</tspan><tspan x="0" y="19.6" class="st40 st45 st48">do de </tspan><tspan x="22.6" y="19.6" class="st40 st42 st48">becas de </tspan><tspan x="0" y="29.5" class="st40 st42 st48">comedor </tspan><tspan x="35.3" y="29.5" class="st40 st45 st48">con el </tspan><tspan x="0" y="39.3" class="st40 st45 st48">Govern del Botànic.</tspan></text>
<rect x="-5.4" y="86.5" class="st47" width="68" height="30"/>
<text transform="matrix(1 0 0 1 19.39 92.4352)"><tspan x="0" y="0" class="st40 st45 st48">alumnos se </tspan><tspan x="-7.9" y="9.8" class="st40 st45 st48">benefician de </tspan><tspan x="-16.5" y="19.6" class="st40 st42 st48">“Xarxa Llibres”.</tspan></text>
<rect x="26.1" y="19.9" class="st40" width="21.5" height="1.3"/>
<rect x="27.4" y="23.5" class="st40" width="20.2" height="1.3"/>
<g>
	<text transform="matrix(1 0 0 1 165.3051 222.814)"><tspan x="0" y="0" class="st40 st42 st48">(40.000 becas más)</tspan><tspan x="73.3" y="0" class="st40 st45 st48"> </tspan></text>
</g>
<rect x="195.9" y="253.9" transform="matrix(0.446 -0.895 0.895 0.446 -131.3561 324.5972)" class="st41" width="1.3" height="29"/>
<rect x="37.9" y="230.3" transform="matrix(0.8342 -0.5515 0.5515 0.8342 -126.5656 61.2191)" class="st41" width="1.3" height="21.6"/>
<path class="st41" d="M39.8,203.5C54.7,192.7,63.4,182.1,68,175c5-7.6,6.5-12.7,6.5-12.9l-1.2-0.3l0.6,0.2l-0.6-0.2
	c0,0.1-1.5,5.1-6.4,12.6c-4.6,6.9-13.1,17.4-27.8,28.1L39.8,203.5z"/>
<rect x="61.1" y="170.9" transform="matrix(0.3155 -0.9489 0.9489 0.3155 -128.1814 181.5288)" class="st41" width="1.3" height="17.5"/>
<path class="st40" d="M48.4,24.5c-1.2,0-2.2-1-2.2-2.2s1-2.2,2.2-2.2c1.2,0,2.2,1,2.2,2.2S49.6,24.5,48.4,24.5z M48.4,21.3
	c-0.5,0-1,0.4-1,1s0.4,1,1,1c0.5,0,1-0.4,1-1S48.9,21.3,48.4,21.3z"/>
<circle class="st49" cx="48.3" cy="22" r="1.5"/>
<path class="st40" d="M48.3,24.5c-1.2,0-2.2-1-2.2-2.2s1-2.2,2.2-2.2s2.2,1,2.2,2.2S49.5,24.5,48.3,24.5z M48.3,21.3
	c-0.5,0-1,0.4-1,1s0.4,1,1,1s1-0.4,1-1S48.8,21.3,48.3,21.3z"/>
<g>
	<path class="st410" d="M115.2,168.5c-10.2,0-18.6-8.3-18.6-18.6s8.3-18.6,18.6-18.6s18.6,8.3,18.6,18.6S125.4,168.5,115.2,168.5z
		 M115.2,132.6c-9.5,0-17.3,7.8-17.3,17.3c0,9.5,7.8,17.3,17.3,17.3c9.5,0,17.3-7.8,17.3-17.3C132.5,140.4,124.7,132.6,115.2,132.6z
		"/>
	<path class="st410" d="M115.2,163.3c-7.4,0-13.4-6-13.4-13.4c0-7.4,6-13.4,13.4-13.4c7.4,0,13.4,6,13.4,13.4
		C128.6,157.3,122.6,163.3,115.2,163.3z M115.2,137.8c-6.7,0-12.1,5.4-12.1,12.1c0,6.7,5.4,12.1,12.1,12.1c6.7,0,12.1-5.4,12.1-12.1
		C127.3,143.2,121.9,137.8,115.2,137.8z"/>
	<g>
		<path class="st410" d="M115.1,155.6c-2.6,0-5-1.6-5.8-4.2c-0.5-1.6-0.4-3.2,0.3-4.7c0.7-1.5,2-2.6,3.6-3.1c2-0.7,4.2-0.3,5.8,1.1
			l-0.8,1c-1.3-1.1-3-1.4-4.6-0.9c-1.2,0.4-2.2,1.3-2.8,2.4c-0.6,1.2-0.7,2.5-0.3,3.7c0.8,2.5,3.6,3.9,6.1,3.1
			c1.5-0.5,2.7-1.7,3.1-3.2l1.2,0.4c-0.6,1.9-2.1,3.4-3.9,4C116.4,155.5,115.7,155.6,115.1,155.6z"/>
		
			<rect x="107.7" y="149.3" transform="matrix(0.9494 -0.3141 0.3141 0.9494 -41.437 42.6976)" class="st410" width="8.1" height="1.3"/>
		
			<rect x="108.3" y="151.1" transform="matrix(0.9494 -0.3141 0.3141 0.9494 -42.0007 42.7293)" class="st410" width="6.7" height="1.3"/>
	</g>
</g>
<rect x="170.4" y="126.8" class="st411" width="1.1" height="4.8"/>
<rect x="201.6" y="126.8" class="st411" width="1.1" height="4.8"/>
<circle class="st40" cx="19" cy="14.5" r="3.2"/>
<rect x="20.1" y="36.3" class="st49" width="6.1" height="6.1"/>
<path class="st412" d="M27.9,34.4v8.1h-13c0,0,1.5-1.3,1.5-5.5"/>
<line class="st412" x1="19" y1="52.9" x2="21.1" y2="52.9"/>
<line class="st412" x1="25.1" y1="52.9" x2="27.2" y2="52.9"/>
<path class="st49" d="M57.9,32.6c0.2,0.3,1,0.3,0.9-0.5l0.8,0.8L58.7,34l-1.2-0.4L57.9,32.6z"/>
</svg>
