<?xml version="1.0" encoding="utf-8"?>
<!-- Generator: Adobe Illustrator 22.1.0, SVG Export Plug-In . SVG Version: 6.00 Build 0)  -->
<svg version="1.1" id="Layer_1" xmlns="http://www.w3.org/2000/svg" xmlns:xlink="http://www.w3.org/1999/xlink" x="0px" y="0px"
	 viewBox="0 0 177.8 220.9" style="enable-background:new 0 0 177.8 220.9;" xml:space="preserve">
<circle class="st50" cx="14.6" cy="134.2" r="11.8"/>
<rect x="7.7" y="213" class="st51" width="156.8" height="1.3"/>
<path class="st51" d="M53,214.3V213c2.9,0,4.1-1.2,4.1-4c0-2.9-3.8-3-4-3l-3.7,0v-30.4l0.1-0.2c1.8-2.3,2.9-5.1,3.4-8
	c0.9-6-1.3-11.9-6-15.8l0.8-1c5,4.2,7.4,10.6,6.4,17c-0.5,3-1.7,5.9-3.5,8.4v28.7h2.4c1.8,0,5.2,1,5.2,4.3
	C58.4,212.5,56.6,214.3,53,214.3z"/>
<path class="st51" d="M31.8,180.3c-10.3,0-18.7-8.4-18.7-18.7c0-6.5,3.5-12.7,9.1-16l0.7,1.1c-5.2,3.1-8.5,8.8-8.5,14.9
	c0,9.6,7.8,17.4,17.4,17.4c9.6,0,17.4-7.8,17.4-17.4c0-0.1-0.1-1.1-0.6-2.1c-0.7-1.3-1.9-2-3.4-2c-1.6,0-2.8,0.4-3.5,1.2
	c-1.1,1.2-1,3-1,3l0,0.1c0,4.9-4,8.8-8.8,8.8s-8.8-4-8.8-8.8c0-3.1,1.7-6,4.3-7.6l0.7,1.1c-2.3,1.4-3.7,3.8-3.7,6.5
	c0,4.2,3.4,7.5,7.5,7.5c4.2,0,7.5-3.4,7.5-7.5c0-0.3-0.1-2.4,1.3-3.9c1-1.1,2.5-1.7,4.5-1.7c4,0,5.2,3.5,5.3,5.4l0,0
	C50.4,171.9,42.1,180.3,31.8,180.3z"/>
<rect x="43.3" y="161.7" transform="matrix(0.4466 -0.8948 0.8948 0.4466 -124.7377 131.5181)" class="st51" width="1.3" height="9.8"/>
<path class="st51" d="M29.9,185.6c-6.2,0-11.3-5.1-11.3-11.3H20c0,5.5,4.5,10,10,10c2.3,0,4.4-0.7,6.2-2.1l0.8,1
	C34.9,184.8,32.5,185.6,29.9,185.6z"/>
<path class="st51" d="M40.5,214.3H28.7V185H30v28h10.6c0.2,0,4-0.1,4-3.5c0-2.3-1-3.2-3.7-3.2h-4.2v-18c0-0.1,0-1.8,1.1-3
	c0.7-0.7,1.6-1,2.7-1c2.7,0,3.4,2.6,3.4,3.9l-0.1,17.3c1.2,0.5,2.1,1.7,2.1,4C45.9,213.3,42.4,214.3,40.5,214.3z M37.9,205.1h2.9
	c0.5,0,1.1,0,1.6,0.1l0.1-16.9c0-0.3-0.1-2.6-2.1-2.6c-0.8,0-1.3,0.2-1.8,0.6c-0.8,0.8-0.7,2.1-0.7,2.1L37.9,205.1z"/>
<path class="st51" d="M52.3,146.4l-0.2-1.3c8.9-1.3,15.6-8.8,15.9-17.8l1.3,0C69,137,61.8,145,52.3,146.4z"/>
<path class="st51" d="M51.5,156.3l-0.1-1.3c7.2-0.5,13.9-3.6,19.1-8.7c5.1-5.1,8.1-11.7,8.3-18.5l1.3,0c-0.2,7.1-3.3,14-8.6,19.4
	C66,152.5,58.9,155.8,51.5,156.3z"/>
<rect x="68.7" y="127.1" class="st51" width="10.7" height="1.3"/>
<path class="st51" d="M80,128l-1.2-0.5c0.4-1,0.7-2.2-0.4-3.4l-0.2-0.2l0.1-0.3c0-0.1,0.9-5.3-1.6-7.8c-1.2-1.1-3-1.5-5.4-1
	c-4.3,0.8-3.4,7.5-3.4,7.6l-1.3,0.2c-0.4-2.7,0-8.2,4.4-9c2.8-0.6,5-0.1,6.5,1.4c2.6,2.6,2.2,7.3,2,8.6
	C80.9,125.2,80.5,126.9,80,128z"/>
<path class="st51" d="M68.3,128.2l-5.1-4.7l0.2-0.4c0.5-1,1.3-1.5,2.2-1.7c1.1-0.2,2.2,0.5,2.8,0.9c1-0.5,2.3-0.4,3.4,0.4
	c1.3,0.9,2,2.3,1.6,3.5l-1.2-0.3c0.2-0.7-0.3-1.5-1.1-2.1c-0.7-0.5-1.6-0.7-2.4-0.2l-0.4,0.3l-0.4-0.4c-0.3-0.3-1.2-1-2.1-0.9
	c-0.4,0.1-0.7,0.3-0.9,0.6l4.3,4L68.3,128.2z"/>
<path class="st52" d="M65.8,118.6"/>
<path class="st52" d="M69.1,117.6"/>
<path class="st51" d="M97,214.3H79.6v-17.4H97V214.3z M80.9,213h14.8v-14.8H80.9V213z"/>
<path class="st51" d="M102.6,198.2H85.2v-17.4h17.4V198.2z M86.5,196.9h14.8v-14.8H86.5V196.9z"/>
<path class="st51" d="M97,182.1H79.6v-17.4H97V182.1z M80.9,180.8h14.8V166H80.9V180.8z"/>
<path class="st51" d="M138.7,214.5l-12.2-12.3l12.3-12.2l12.2,12.3L138.7,214.5z M128.3,202.2l10.4,10.5l10.5-10.4l-10.4-10.5
	L128.3,202.2z"/>
<path class="st51" d="M119,197.5l-3.5-17l17-3.5l3.5,17L119,197.5z M117,181.4L120,196l14.5-2.9l-2.9-14.5L117,181.4z"/>
<text transform="matrix(1 0 0 1 84.3521 177.7466)" class="st50 st53 st54">3</text>
<text transform="matrix(1 0 0 1 84.4088 209.4038)" class="st50 st53 st54">a</text>
<text transform="matrix(1 0 0 1 115.2554 209.4038)" class="st50 st53 st54">ñ</text>
<text transform="matrix(0.976 -0.2177 0.2177 0.976 122.7271 190.0351)" class="st50 st53 st55">o</text>
<text transform="matrix(0.6596 0.7516 -0.7516 0.6596 133.8399 202.0071)" class="st50 st53 st55">s</text>
<path class="st50" d="M130.7,139c-9.7-2.6-17.8-9.9-23-15.5c-5.5-6.1-8.8-11.7-8.9-11.7l1.1-0.7c0,0.1,3.3,5.5,8.7,11.5
	c5,5.5,12.9,12.6,22.3,15.1L130.7,139z"/>
<rect x="80" y="54.3" transform="matrix(0.3471 -0.9378 0.9378 0.3471 -17.6017 124.603)" class="st50" width="1.3" height="41.3"/>
<rect x="79.2" y="78.9" transform="matrix(6.607612e-02 -0.9978 0.9978 6.607612e-02 0.6356 159.8311)" class="st50" width="13.1" height="1.3"/>
<rect x="47.8" y="68.1" transform="matrix(0.5501 -0.8351 0.8351 0.5501 -28.6358 84.2662)" class="st50" width="32.1" height="1.3"/>
<rect x="145.9" y="165.2" transform="matrix(0.6459 -0.7634 0.7634 0.6459 -69.7317 181.3504)" class="st50" width="29.5" height="1.3"/>
<path class="st50" d="M9.7,104.9l-1-0.8c6.8-7.9,13-17.9,18.4-29.8c4.3-9.5,8.2-20.2,11.4-31.9C44.1,22.5,46,6.7,46,6.6l1.3,0.1
	c0,0.2-1.9,16-7.5,36c-3.3,11.7-7.1,22.5-11.5,32.1C22.8,86.8,16.6,96.9,9.7,104.9z"/>
<rect x="65.1" y="173.7" transform="matrix(0.9901 -0.1405 0.1405 0.9901 -25.358 11.079)" class="st50" width="1.3" height="22.8"/>
<rect x="160.1" y="157.1" transform="matrix(0.9828 -0.1846 0.1846 0.9828 -29.2101 32.6526)" class="st50" width="1.3" height="32.2"/>
<rect x="23.5" y="189.4" class="st51" width="5.9" height="1.3"/>
<rect x="13.1" y="161.6" class="st51" width="1.3" height="18.6"/>
<path class="st51" d="M14.4,160.5h-1.3v-9.6c0-2.9,2.3-5.2,5.2-5.2h4.2v1.3h-4.2c-2.2,0-3.9,1.8-3.9,3.9V160.5z"/>
<path class="st51" d="M37.9,168l-1.3-0.2c1.8-9.6-6.7-14.1-6.8-14.2l0.6-1.1c0.1,0,2.4,1.2,4.5,3.8C36.9,158.6,38.9,162.5,37.9,168z"
	/>
<path class="st51" d="M41.7,158.9l-1.3,0c0-1.5-1.5-3.3-2.1-3.8l0.9-0.9C39.4,154.2,41.7,156.6,41.7,158.9z"/>
<path class="st51" d="M52.5,155.6l-1.3-0.1c0.2-4-1.3-6.9-1.3-6.9l1.1-0.6C51.1,148.2,52.7,151.3,52.5,155.6z"/>
<path class="st51" d="M23.5,190.6c-5.7,0-10.4-4.7-10.4-10.4h1.3c0,5,4.1,9.1,9.1,9.1V190.6z"/>
<path class="st51" d="M49.3,160.3l0-1.3c0.1,0,1.5,0,2.5-1.6l1.1,0.7C51.5,160.3,49.4,160.3,49.3,160.3z"/>
<path class="st51" d="M102.6,166H85.2v-17.4h17.4V166z M86.5,164.7h14.8v-14.8H86.5V164.7z"/>
<path class="st51" d="M128,214.3h-17.4v-17.4H128V214.3z M111.9,213h14.8v-14.8h-14.8V213z"/>
<circle class="st50" cx="28.7" cy="123.6" r="11.8"/>
<path class="st51" d="M37.3,155.2c-9.8,0-17.7-7.9-17.7-17.7c0-9.8,7.9-17.7,17.7-17.7S55,127.8,55,137.5
	C55,147.3,47,155.2,37.3,155.2z M37.3,121.1c-9,0-16.4,7.4-16.4,16.4S28.2,154,37.3,154s16.4-7.4,16.4-16.4S46.3,121.1,37.3,121.1z"
	/>
</svg>
