<?xml version="1.0" encoding="utf-8"?>
<!-- Generator: Adobe Illustrator 22.1.0, SVG Export Plug-In . SVG Version: 6.00 Build 0)  -->
<svg version="1.1" id="Layer_1" xmlns="http://www.w3.org/2000/svg" xmlns:xlink="http://www.w3.org/1999/xlink" x="0px" y="0px"
	 viewBox="0 0 223.1 347" style="enable-background:new 0 0 223.1 347;" xml:space="preserve">
<circle class="st20" cx="165.2" cy="226.9" r="2.8"/>
<circle class="st20" cx="55.5" cy="270.3" r="2.8"/>
<rect x="7.6" y="306.8" class="st21" width="209.2" height="1.3"/>
<rect x="169.4" y="74" class="st21" width="1.3" height="18.7"/>
<path class="st21" d="M165.1,92.8h-4.7c-1.4,0-2.2-0.7-2.2-1.9c0-1.4,1.2-1.9,2-1.9h1.1l0.1-16l1.3,0l-0.1,17.2h-2.4
	c-0.2,0-0.7,0.1-0.7,0.6c0,0.2,0,0.6,1,0.6h3.4l0-1.9V76.9c0-0.3-0.1-1.3,0.5-2c0.2-0.3,0.7-0.6,1.4-0.6c0.8,0,1.2,0.3,1.5,0.6
	c0.5,0.6,0.5,1.3,0.4,1.6v15.2h-1.3V76.4l0,0c0-0.1,0-0.4-0.1-0.6c-0.1-0.1-0.3-0.2-0.5-0.2c-0.3,0-0.4,0.1-0.5,0.2
	c-0.2,0.2-0.2,0.8-0.2,1l0,0.1v12.8L165.1,92.8z"/>
<path class="st21" d="M170.2,74.6c-0.1,0-0.4,0-2.9-0.8c-0.1,0-2.4-0.8-2.8-1l0.6-1.1c0.5,0.2,4.5,1.6,5.1,1.7c0.4,0,1.3-0.1,1.7-0.6
	c0.3-0.3,0.3-0.9,0.1-1.6l1.2-0.3c0.3,1.1,0.2,2-0.3,2.7C172.2,74.5,170.9,74.6,170.2,74.6z"/>
<path class="st21" d="M170.7,92.8h-4.4l-0.1-0.6c0-0.2-0.1-1.8,0.7-2.7c0.4-0.4,0.9-0.6,1.5-0.6c0.6,0,1.1,0.2,1.5,0.6
	c0.9,0.9,0.8,2.5,0.8,2.7L170.7,92.8z M167.5,91.5h1.9c0-0.4-0.2-0.9-0.4-1.1c-0.1-0.1-0.3-0.2-0.5-0.2c-0.2,0-0.4,0.1-0.5,0.2
	C167.7,90.6,167.6,91.1,167.5,91.5z"/>
<path class="st21" d="M168.2,69.2c-1.1,0-2.2-0.5-2.9-1.3l1-0.9c0.5,0.6,1.2,0.9,2,0.9c1.5,0,2.6-1.2,2.6-2.6c0-0.7-0.3-1.3-0.7-1.8
	l0.9-0.9c0.7,0.7,1.1,1.7,1.1,2.7C172.1,67.4,170.4,69.2,168.2,69.2z"/>
<path class="st21" d="M168.1,73.1c-3,0-5.7-1.6-7-4.3l1.1-0.6c1.1,2.2,3.4,3.6,5.8,3.6c3.6,0,6.5-2.9,6.5-6.5c0-3.6-2.9-6.5-6.5-6.5
	c-0.2,0-0.5,0-0.7,0l-0.1-1.3c0.3,0,0.6,0,0.9,0c4.3,0,7.8,3.5,7.8,7.8C176,69.6,172.5,73.1,168.1,73.1z"/>
<path class="st21" d="M164,71.1l-1.1-0.7l2-2.9c-0.1-0.4-0.3-1.1-0.3-1.9c0-0.2-0.1-0.2-0.1-0.2c-0.1,0-0.2,0.2-0.2,0.5v1.3l-1-0.7v0
	c0,0-0.3-0.2-0.6-0.1c-0.3,0.1-0.5,0.4-0.6,0.6c-0.3,0.6,0.1,1.3,0.1,1.3l-1.1,0.6c0-0.1-0.8-1.3-0.1-2.6c0.4-0.7,0.9-1.1,1.5-1.2
	c0.3-0.1,0.5-0.1,0.7,0c0.3-0.6,0.8-0.9,1.3-0.9c0.8,0,1.4,0.6,1.4,1.5c0,1,0.4,1.8,0.4,1.8l0.1,0.3L164,71.1z"/>
<path class="st21" d="M159.1,65.1c-2,0-3.5-1.6-3.5-3.5h1.3c0,1.2,1,2.3,2.3,2.3c1.2,0,2.3-1,2.3-2.3c0-0.5-0.1-0.9-0.4-1.3l1-0.7
	c0.4,0.6,0.7,1.3,0.7,2C162.6,63.6,161,65.1,159.1,65.1z"/>
<path class="st21" d="M158.5,69.6c-3.8,0-6.9-3.1-6.9-6.9h1.3c0,3.1,2.5,5.6,5.6,5.6c1.1,0,2.2-0.3,3.1-1l0.7,1.1
	C161.2,69.2,159.9,69.6,158.5,69.6z"/>
<path class="st21" d="M162.5,74.2c-1.8,0-3.3-1.5-3.3-3.3c0-1.3,0.7-2.4,1.8-3l0.6,1.1c-0.7,0.4-1.1,1.1-1.1,1.8c0,1.1,0.9,2,2,2
	c0.7,0,1.4-0.4,1.8-1l1.1,0.6C164.8,73.6,163.7,74.2,162.5,74.2z"/>
<path class="st21" d="M153.9,64.3c-1.6,0-2.9-1.3-2.9-2.9c0-1.6,1.3-2.9,2.9-2.9s2.9,1.3,2.9,2.9C156.8,63,155.5,64.3,153.9,64.3z
	 M153.9,59.8c-0.9,0-1.6,0.7-1.6,1.6c0,0.9,0.7,1.6,1.6,1.6c0.9,0,1.6-0.7,1.6-1.6C155.5,60.5,154.8,59.8,153.9,59.8z"/>
<rect x="153.3" y="52.2" class="st21" width="1.3" height="8.4"/>
<path class="st21" d="M150.4,73.4h-27.3v-21h27.3V73.4z M124.4,72.1h24.7V53.7h-24.7V72.1z"/>
<rect x="169.6" y="117.2" class="st21" width="1.3" height="18.7"/>
<path class="st21" d="M165.3,136h-4.7c-1.4,0-2.2-0.7-2.2-1.9c0-1.4,1.2-1.9,2-1.9h1.1l0.1-16l1.3,0l-0.1,17.2h-2.4
	c-0.2,0-0.7,0.1-0.7,0.6c0,0.2,0,0.6,1,0.6h3.4l0-1.9v-12.7c0-0.3-0.1-1.3,0.5-2c0.2-0.3,0.7-0.6,1.4-0.6c0.8,0,1.2,0.3,1.5,0.6
	c0.5,0.6,0.5,1.3,0.4,1.6V135h-1.3v-15.3l0,0c0-0.1,0-0.4-0.1-0.6c-0.1-0.1-0.3-0.2-0.5-0.2c-0.3,0-0.4,0.1-0.5,0.2
	c-0.2,0.2-0.2,0.8-0.2,1l0,0.1v12.8L165.3,136z"/>
<path class="st21" d="M170.4,117.8c-0.1,0-0.4,0-2.9-0.8c-0.1,0-2.4-0.8-2.8-1l0.6-1.1c0.5,0.2,4.5,1.6,5.1,1.7
	c0.4,0,1.3-0.1,1.7-0.6c0.3-0.3,0.3-0.9,0.1-1.6l1.2-0.3c0.3,1.1,0.2,2-0.3,2.7C172.4,117.7,171.1,117.8,170.4,117.8z"/>
<path class="st21" d="M170.8,136h-4.4l-0.1-0.6c0-0.2-0.1-1.8,0.7-2.7c0.4-0.4,0.9-0.6,1.5-0.6c0.6,0,1.1,0.2,1.5,0.6
	c0.9,0.9,0.8,2.5,0.8,2.7L170.8,136z M167.7,134.7h1.9c0-0.4-0.2-0.9-0.4-1.1c-0.1-0.1-0.3-0.2-0.5-0.2c-0.2,0-0.4,0.1-0.5,0.2
	C167.8,133.8,167.7,134.3,167.7,134.7z"/>
<path class="st21" d="M168.4,112.4c-1.1,0-2.2-0.5-2.9-1.3l1-0.9c0.5,0.6,1.2,0.9,2,0.9c1.5,0,2.6-1.2,2.6-2.6c0-0.7-0.3-1.3-0.7-1.8
	l0.9-0.9c0.7,0.7,1.1,1.7,1.1,2.7C172.3,110.6,170.6,112.4,168.4,112.4z"/>
<path class="st21" d="M168.3,116.3c-3,0-5.7-1.6-7-4.3l1.1-0.6c1.1,2.2,3.4,3.6,5.8,3.6c3.6,0,6.5-2.9,6.5-6.5c0-3.6-2.9-6.5-6.5-6.5
	c-0.2,0-0.5,0-0.7,0l-0.1-1.3c0.3,0,0.6,0,0.9,0c4.3,0,7.8,3.5,7.8,7.8C176.2,112.8,172.6,116.3,168.3,116.3z"/>
<path class="st21" d="M164.2,114.3l-1.1-0.7l2-2.9c-0.1-0.4-0.3-1.1-0.3-1.9c0-0.2-0.1-0.2-0.1-0.2c-0.1,0-0.2,0.2-0.2,0.5v1.3
	l-1-0.7h0c0,0-0.3-0.2-0.6-0.1c-0.3,0.1-0.5,0.4-0.6,0.6c-0.3,0.6,0.1,1.3,0.1,1.3l-1.1,0.6c0-0.1-0.8-1.3-0.1-2.6
	c0.4-0.7,0.9-1.1,1.5-1.2c0.3-0.1,0.5-0.1,0.7,0c0.3-0.6,0.8-0.9,1.3-0.9c0,0,0,0,0,0c0.8,0,1.4,0.6,1.4,1.5c0,1,0.4,1.8,0.4,1.8
	l0.1,0.3l-0.2,0.3L164.2,114.3z"/>
<path class="st21" d="M159.3,108.4c-2,0-3.5-1.6-3.5-3.5h1.3c0,1.2,1,2.3,2.3,2.3c1.2,0,2.3-1,2.3-2.3c0-0.5-0.1-0.9-0.4-1.3l1-0.7
	c0.4,0.6,0.7,1.3,0.7,2C162.8,106.8,161.2,108.4,159.3,108.4z"/>
<path class="st21" d="M158.7,112.8c-3.8,0-6.9-3.1-6.9-6.9h1.3c0,3.1,2.5,5.6,5.6,5.6c1.1,0,2.2-0.3,3.1-1l0.7,1.1
	C161.4,112.4,160.1,112.8,158.7,112.8z"/>
<path class="st21" d="M162.7,117.4c-1.8,0-3.3-1.5-3.3-3.3c0-1.3,0.7-2.4,1.8-3l0.6,1.1c-0.7,0.4-1.1,1.1-1.1,1.8c0,1.1,0.9,2,2,2
	c0.7,0,1.4-0.4,1.8-1l1.1,0.6C165,116.8,163.9,117.4,162.7,117.4z"/>
<path class="st21" d="M154.1,107.5c-1.6,0-2.9-1.3-2.9-2.9s1.3-2.9,2.9-2.9s2.9,1.3,2.9,2.9S155.7,107.5,154.1,107.5z M154.1,103
	c-0.9,0-1.6,0.7-1.6,1.6c0,0.9,0.7,1.6,1.6,1.6s1.6-0.7,1.6-1.6C155.7,103.7,155,103,154.1,103z"/>
<rect x="153.4" y="95.5" class="st21" width="1.3" height="8.4"/>
<path class="st21" d="M150.5,116.6h-27.3v-21h27.3V116.6z M124.6,115.3h24.7V96.9h-24.7V115.3z"/>
<rect x="169.6" y="159.2" class="st21" width="1.3" height="18.7"/>
<path class="st21" d="M165.3,178h-4.7c-1.4,0-2.2-0.7-2.2-1.9c0-1.4,1.2-1.9,2-1.9h1.1l0.1-16l1.3,0l-0.1,17.2h-2.4
	c-0.2,0-0.7,0.1-0.7,0.6c0,0.2,0,0.6,1,0.6h3.4l0-1.9v-12.7c0-0.3-0.1-1.3,0.5-2c0.2-0.3,0.7-0.6,1.4-0.6c0.8,0,1.2,0.3,1.5,0.6
	c0.5,0.6,0.5,1.3,0.4,1.6V177h-1.3v-15.3l0,0c0-0.1,0-0.4-0.1-0.6c-0.1-0.1-0.3-0.2-0.5-0.2c-0.3,0-0.4,0.1-0.5,0.2
	c-0.2,0.2-0.2,0.8-0.2,1l0,0.1v12.8L165.3,178z"/>
<path class="st21" d="M170.4,159.8c-0.1,0-0.4,0-2.9-0.8c-0.1,0-2.4-0.8-2.8-1l0.6-1.1c0.5,0.2,4.5,1.6,5.1,1.7
	c0.4,0,1.3-0.1,1.7-0.6c0.3-0.3,0.3-0.9,0.1-1.6l1.2-0.3c0.3,1.1,0.2,2-0.3,2.7C172.4,159.7,171.1,159.8,170.4,159.8z"/>
<path class="st21" d="M170.8,178h-4.4l-0.1-0.6c0-0.2-0.1-1.8,0.7-2.7c0.4-0.4,0.9-0.6,1.5-0.6c0.6,0,1.1,0.2,1.5,0.6
	c0.9,0.9,0.8,2.5,0.8,2.7L170.8,178z M167.7,176.7h1.9c0-0.4-0.2-0.9-0.4-1.1c-0.1-0.1-0.3-0.2-0.5-0.2c-0.2,0-0.4,0.1-0.5,0.2
	C167.8,175.9,167.7,176.3,167.7,176.7z"/>
<path class="st21" d="M168.4,154.4c-1.1,0-2.2-0.5-2.9-1.3l1-0.9c0.5,0.6,1.2,0.9,2,0.9c1.5,0,2.6-1.2,2.6-2.6c0-0.7-0.3-1.3-0.7-1.8
	l0.9-0.9c0.7,0.7,1.1,1.7,1.1,2.7C172.3,152.6,170.6,154.4,168.4,154.4z"/>
<path class="st21" d="M168.3,158.3c-3,0-5.7-1.6-7-4.3l1.1-0.6c1.1,2.2,3.4,3.6,5.8,3.6c3.6,0,6.5-2.9,6.5-6.5c0-3.6-2.9-6.5-6.5-6.5
	c-0.2,0-0.5,0-0.7,0l-0.1-1.3c0.3,0,0.6,0,0.9,0c4.3,0,7.8,3.5,7.8,7.8C176.2,154.8,172.6,158.3,168.3,158.3z"/>
<path class="st21" d="M164.2,156.3l-1.1-0.7l2-2.9c-0.1-0.4-0.3-1.1-0.3-1.9c0-0.2-0.1-0.2-0.1-0.2h0c-0.1,0-0.2,0.2-0.2,0.5v1.3
	l-1-0.7h0c0,0-0.3-0.2-0.6-0.1c-0.3,0.1-0.5,0.4-0.6,0.6c-0.3,0.6,0.1,1.3,0.1,1.3l-1.1,0.6c0-0.1-0.8-1.3-0.1-2.6
	c0.4-0.7,0.9-1.1,1.5-1.2c0.3-0.1,0.5-0.1,0.7,0c0.3-0.6,0.8-0.9,1.3-0.9c0,0,0,0,0,0c0.8,0,1.4,0.6,1.4,1.5c0,1,0.4,1.8,0.4,1.8
	l0.1,0.3l-0.2,0.3L164.2,156.3z"/>
<path class="st21" d="M159.3,150.4c-2,0-3.5-1.6-3.5-3.5h1.3c0,1.2,1,2.3,2.3,2.3c1.2,0,2.3-1,2.3-2.3c0-0.5-0.1-0.9-0.4-1.3l1-0.7
	c0.4,0.6,0.7,1.3,0.7,2C162.8,148.8,161.2,150.4,159.3,150.4z"/>
<path class="st21" d="M158.7,154.8c-3.8,0-6.9-3.1-6.9-6.9h1.3c0,3.1,2.5,5.6,5.6,5.6c1.1,0,2.2-0.3,3.1-1l0.7,1.1
	C161.4,154.4,160.1,154.8,158.7,154.8z"/>
<path class="st21" d="M162.7,159.4c-1.8,0-3.3-1.5-3.3-3.3c0-1.3,0.7-2.4,1.8-3l0.6,1.1c-0.7,0.4-1.1,1.1-1.1,1.8c0,1.1,0.9,2,2,2
	c0.7,0,1.4-0.4,1.8-1l1.1,0.6C165,158.8,163.9,159.4,162.7,159.4z"/>
<path class="st21" d="M154.1,149.5c-1.6,0-2.9-1.3-2.9-2.9s1.3-2.9,2.9-2.9s2.9,1.3,2.9,2.9S155.7,149.5,154.1,149.5z M154.1,145
	c-0.9,0-1.6,0.7-1.6,1.6c0,0.9,0.7,1.6,1.6,1.6s1.6-0.7,1.6-1.6C155.7,145.7,155,145,154.1,145z"/>
<rect x="153.4" y="137.5" class="st21" width="1.3" height="8.4"/>
<path class="st21" d="M150.5,158.6h-27.3v-21h27.3V158.6z M124.6,157.3h24.7v-18.4h-24.7V157.3z"/>
<rect x="169.9" y="202.1" class="st21" width="1.3" height="18.7"/>
<path class="st21" d="M165.5,221h-4.7c-1.4,0-2.2-0.7-2.2-1.9c0-1.4,1.2-1.9,2-1.9h1.1l0.1-16l1.3,0l-0.1,17.2h-2.4
	c-0.2,0-0.7,0.1-0.7,0.6c0,0.2,0,0.6,1,0.6h3.4l0-1.9v-12.7c0-0.3-0.1-1.3,0.5-2c0.2-0.3,0.7-0.6,1.4-0.6c0.8,0,1.2,0.3,1.5,0.6
	c0.5,0.6,0.5,1.3,0.4,1.6v15.2h-1.3v-15.3l0,0c0-0.1,0-0.4-0.1-0.6c-0.1-0.1-0.3-0.2-0.5-0.2c-0.3,0-0.4,0.1-0.5,0.2
	c-0.2,0.2-0.2,0.8-0.2,1l0,0.1v12.8L165.5,221z"/>
<path class="st21" d="M170.6,202.8c-0.1,0-0.4,0-2.9-0.8c-0.1,0-2.4-0.8-2.8-1l0.6-1.1c0.5,0.2,4.5,1.6,5.1,1.7
	c0.4,0,1.3-0.1,1.7-0.6c0.3-0.3,0.3-0.9,0.1-1.6l1.2-0.3c0.3,1.1,0.2,2-0.3,2.7C172.6,202.6,171.3,202.8,170.6,202.8z"/>
<path class="st21" d="M171.1,221h-4.4l-0.1-0.6c0-0.2-0.1-1.8,0.7-2.7c0.4-0.4,0.9-0.6,1.5-0.6c0.6,0,1.1,0.2,1.5,0.6
	c0.9,0.9,0.8,2.5,0.8,2.7L171.1,221z M168,219.7h1.9c0-0.4-0.2-0.9-0.4-1.1c-0.1-0.1-0.3-0.2-0.5-0.2c-0.2,0-0.4,0.1-0.5,0.2
	C168.1,218.8,168,219.3,168,219.7z"/>
<path class="st21" d="M168.6,197.3c-1.1,0-2.2-0.5-2.9-1.3l1-0.9c0.5,0.6,1.2,0.9,2,0.9c1.5,0,2.6-1.2,2.6-2.6c0-0.7-0.3-1.3-0.7-1.8
	l0.9-0.9c0.7,0.7,1.1,1.7,1.1,2.7C172.6,195.6,170.8,197.3,168.6,197.3z"/>
<path class="st21" d="M168.6,201.2c-3,0-5.7-1.6-7-4.3l1.1-0.6c1.1,2.2,3.4,3.6,5.8,3.6c3.6,0,6.5-2.9,6.5-6.5c0-3.6-2.9-6.5-6.5-6.5
	c-0.2,0-0.5,0-0.7,0l-0.1-1.3c0.3,0,0.6,0,0.9,0c4.3,0,7.8,3.5,7.8,7.8C176.4,197.7,172.9,201.2,168.6,201.2z"/>
<path class="st21" d="M164.5,199.3l-1.1-0.7l2-2.9c-0.1-0.4-0.3-1.1-0.3-1.9c0-0.2-0.1-0.2-0.1-0.2c0,0,0,0,0,0
	c-0.1,0-0.2,0.2-0.2,0.5v1.3l-1-0.7h0c0,0-0.3-0.2-0.6-0.1c-0.3,0.1-0.5,0.4-0.6,0.6c-0.3,0.6,0.1,1.3,0.1,1.3l-1.1,0.6
	c0-0.1-0.8-1.3-0.1-2.6c0.4-0.7,0.9-1.1,1.5-1.2c0.3-0.1,0.5-0.1,0.7,0c0.3-0.6,0.8-0.9,1.3-0.9c0,0,0,0,0,0c0.8,0,1.4,0.6,1.4,1.5
	c0,1,0.4,1.8,0.4,1.8l0.1,0.3l-0.2,0.3L164.5,199.3z"/>
<path class="st21" d="M159.5,193.3c-2,0-3.5-1.6-3.5-3.5h1.3c0,1.2,1,2.3,2.3,2.3c1.2,0,2.3-1,2.3-2.3c0-0.5-0.1-0.9-0.4-1.3l1-0.7
	c0.4,0.6,0.7,1.3,0.7,2C163.1,191.7,161.5,193.3,159.5,193.3z"/>
<path class="st21" d="M158.9,197.8c-3.8,0-6.9-3.1-6.9-6.9h1.3c0,3.1,2.5,5.6,5.6,5.6c1.1,0,2.2-0.3,3.1-1l0.7,1.1
	C161.6,197.4,160.3,197.8,158.9,197.8z"/>
<path class="st21" d="M162.9,202.3c-1.8,0-3.3-1.5-3.3-3.3c0-1.3,0.7-2.4,1.8-3l0.6,1.1c-0.7,0.4-1.1,1.1-1.1,1.8c0,1.1,0.9,2,2,2
	c0.7,0,1.4-0.4,1.8-1l1.1,0.6C165.2,201.7,164.1,202.3,162.9,202.3z"/>
<path class="st21" d="M154.3,192.4c-1.6,0-2.9-1.3-2.9-2.9s1.3-2.9,2.9-2.9s2.9,1.3,2.9,2.9S155.9,192.4,154.3,192.4z M154.3,188
	c-0.9,0-1.6,0.7-1.6,1.6c0,0.9,0.7,1.6,1.6,1.6s1.6-0.7,1.6-1.6C155.9,188.7,155.2,188,154.3,188z"/>
<rect x="153.7" y="180.4" class="st21" width="1.3" height="8.4"/>
<path class="st21" d="M150.8,201.5h-27.3v-21h27.3V201.5z M124.8,200.2h24.7v-18.4h-24.7V200.2z"/>
<rect x="169.9" y="245.8" class="st21" width="1.3" height="18.7"/>
<path class="st21" d="M165.5,264.6h-4.7c-1.4,0-2.2-0.7-2.2-1.9c0-1.4,1.2-1.9,2-1.9h1.1l0.1-16l1.3,0l-0.1,17.2h-2.4
	c-0.2,0-0.7,0.1-0.7,0.6c0,0.2,0,0.6,1,0.6h3.4l0-1.9v-12.7c0-0.3-0.1-1.3,0.5-2c0.2-0.3,0.7-0.6,1.4-0.6c0.8,0,1.2,0.3,1.5,0.6
	c0.5,0.6,0.5,1.3,0.4,1.6v15.2h-1.3v-15.3l0,0c0-0.1,0-0.4-0.1-0.6c-0.1-0.1-0.3-0.2-0.5-0.2c-0.3,0-0.4,0.1-0.5,0.2
	c-0.2,0.2-0.2,0.8-0.2,1l0,0.1v12.8L165.5,264.6z"/>
<path class="st21" d="M170.6,246.4c-0.1,0-0.4,0-2.9-0.8c-0.1,0-2.4-0.8-2.8-1l0.6-1.1c0.5,0.2,4.5,1.6,5.1,1.7
	c0.4,0,1.3-0.1,1.7-0.6c0.3-0.3,0.3-0.9,0.1-1.6l1.2-0.3c0.3,1.1,0.2,2-0.3,2.7C172.6,246.3,171.3,246.4,170.6,246.4z"/>
<path class="st21" d="M171.1,264.6h-4.4l-0.1-0.6c0-0.2-0.1-1.8,0.7-2.7c0.4-0.4,0.9-0.6,1.5-0.6c0.6,0,1.1,0.2,1.5,0.6
	c0.9,0.9,0.8,2.5,0.8,2.7L171.1,264.6z M168,263.3h1.9c0-0.4-0.2-0.9-0.4-1.1c-0.1-0.1-0.3-0.2-0.5-0.2c-0.2,0-0.4,0.1-0.5,0.2
	C168.1,262.4,168,262.9,168,263.3z"/>
<path class="st21" d="M168.6,241c-1.1,0-2.2-0.5-2.9-1.3l1-0.9c0.5,0.6,1.2,0.9,2,0.9c1.5,0,2.6-1.2,2.6-2.6c0-0.7-0.3-1.3-0.7-1.8
	l0.9-0.9c0.7,0.7,1.1,1.7,1.1,2.7C172.6,239.2,170.8,241,168.6,241z"/>
<path class="st21" d="M168.6,244.9c-3,0-5.7-1.6-7-4.3l1.1-0.6c1.1,2.2,3.4,3.6,5.8,3.6c3.6,0,6.5-2.9,6.5-6.5c0-3.6-2.9-6.5-6.5-6.5
	c-0.2,0-0.5,0-0.7,0l-0.1-1.3c0.3,0,0.6,0,0.9,0c4.3,0,7.8,3.5,7.8,7.8C176.4,241.4,172.9,244.9,168.6,244.9z"/>
<path class="st21" d="M164.5,242.9l-1.1-0.7l2-2.9c-0.1-0.4-0.3-1.1-0.3-1.9c0-0.2-0.1-0.2-0.1-0.2c-0.1,0-0.2,0.2-0.2,0.5v1.3
	l-1-0.7v0c0,0-0.3-0.2-0.5-0.1c-0.3,0.1-0.5,0.4-0.6,0.6c-0.3,0.6,0.1,1.3,0.1,1.3l-1.1,0.6c0-0.1-0.8-1.3-0.1-2.6
	c0.4-0.7,0.9-1.1,1.5-1.2c0.3-0.1,0.5-0.1,0.7,0c0.3-0.6,0.8-0.9,1.3-0.9c0,0,0,0,0,0c0.8,0,1.4,0.6,1.4,1.5c0,1,0.4,1.8,0.4,1.8
	l0.1,0.3l-0.2,0.3L164.5,242.9z"/>
<path class="st21" d="M159.5,236.9c-2,0-3.5-1.6-3.5-3.5h1.3c0,1.2,1,2.3,2.3,2.3c1.2,0,2.3-1,2.3-2.3c0-0.5-0.1-0.9-0.4-1.3l1-0.7
	c0.4,0.6,0.7,1.3,0.7,2C163.1,235.4,161.5,236.9,159.5,236.9z"/>
<path class="st21" d="M158.9,241.4c-3.8,0-6.9-3.1-6.9-6.9h1.3c0,3.1,2.5,5.6,5.6,5.6c1.1,0,2.2-0.3,3.1-1l0.7,1.1
	C161.6,241,160.3,241.4,158.9,241.4z"/>
<path class="st21" d="M162.9,246c-1.8,0-3.3-1.5-3.3-3.3c0-1.3,0.7-2.4,1.8-3l0.6,1.1c-0.7,0.4-1.1,1.1-1.1,1.8c0,1.1,0.9,2,2,2
	c0.7,0,1.4-0.4,1.8-1l1.1,0.6C165.2,245.4,164.1,246,162.9,246z"/>
<path class="st21" d="M154.3,236.1c-1.6,0-2.9-1.3-2.9-2.9c0-1.6,1.3-2.9,2.9-2.9s2.9,1.3,2.9,2.9
	C157.2,234.8,155.9,236.1,154.3,236.1z M154.3,231.6c-0.9,0-1.6,0.7-1.6,1.6c0,0.9,0.7,1.6,1.6,1.6s1.6-0.7,1.6-1.6
	C155.9,232.3,155.2,231.6,154.3,231.6z"/>
<rect x="153.7" y="224" class="st21" width="1.3" height="8.4"/>
<path class="st21" d="M150.8,245.1h-27.3v-21h27.3V245.1z M124.8,243.9h24.7v-18.4h-24.7V243.9z"/>
<rect x="170.1" y="288.7" class="st21" width="1.3" height="18.7"/>
<path class="st21" d="M165.8,307.5h-4.7c-1.4,0-2.2-0.7-2.2-1.9c0-1.4,1.2-1.9,2-1.9h1.1l0.1-16l1.3,0l-0.1,17.2h-2.4
	c-0.2,0-0.7,0.1-0.7,0.6c0,0.2,0,0.6,1,0.6h3.4l0-1.9v-12.7c0-0.3-0.1-1.3,0.5-2c0.2-0.3,0.7-0.6,1.4-0.6c0.8,0,1.2,0.3,1.5,0.6
	c0.5,0.6,0.5,1.3,0.4,1.6v15.2h-1.3v-15.3l0,0c0-0.1,0-0.4-0.1-0.6c-0.1-0.1-0.3-0.2-0.5-0.2c-0.3,0-0.4,0.1-0.5,0.2
	c-0.2,0.2-0.2,0.8-0.2,1l0,0.1v12.8L165.8,307.5z"/>
<path class="st21" d="M170.9,289.3c-0.1,0-0.4,0-2.9-0.8c-0.1,0-2.4-0.8-2.8-1l0.6-1.1c0.5,0.2,4.5,1.6,5.1,1.7
	c0.4,0,1.3-0.1,1.7-0.6c0.3-0.3,0.3-0.9,0.1-1.6l1.2-0.3c0.3,1.1,0.2,2-0.3,2.7C172.9,289.2,171.6,289.3,170.9,289.3z"/>
<path class="st21" d="M171.3,307.5H167l-0.1-0.6c0-0.2-0.1-1.8,0.7-2.7c0.4-0.4,0.9-0.6,1.5-0.6c0.6,0,1.1,0.2,1.5,0.6
	c0.9,0.9,0.8,2.5,0.8,2.7L171.3,307.5z M168.2,306.2h1.9c0-0.4-0.2-0.9-0.4-1.1c-0.1-0.1-0.3-0.2-0.5-0.2c-0.2,0-0.4,0.1-0.5,0.2
	C168.3,305.4,168.2,305.8,168.2,306.2z"/>
<path class="st21" d="M168.9,283.9c-1.1,0-2.2-0.5-2.9-1.3l1-0.9c0.5,0.6,1.2,0.9,2,0.9c1.5,0,2.6-1.2,2.6-2.6c0-0.7-0.3-1.3-0.7-1.8
	l0.9-0.9c0.7,0.7,1.1,1.7,1.1,2.7C172.8,282.1,171.1,283.9,168.9,283.9z"/>
<path class="st21" d="M168.8,287.8c-3,0-5.7-1.6-7-4.3l1.1-0.6c1.1,2.2,3.4,3.6,5.8,3.6c3.6,0,6.5-2.9,6.5-6.5s-2.9-6.5-6.5-6.5
	c-0.2,0-0.5,0-0.7,0l-0.1-1.3c0.3,0,0.6,0,0.9,0c4.3,0,7.8,3.5,7.8,7.8S173.1,287.8,168.8,287.8z"/>
<path class="st21" d="M164.7,285.8l-1.1-0.7l2-2.9c-0.1-0.4-0.3-1.1-0.3-1.9c0-0.2-0.1-0.2-0.1-0.2c-0.1,0-0.2,0.2-0.2,0.5v1.3
	l-1-0.7v0c0,0-0.3-0.2-0.5-0.1c-0.3,0.1-0.5,0.4-0.6,0.6c-0.3,0.6,0.1,1.3,0.1,1.3l-1.1,0.6c0-0.1-0.8-1.3-0.1-2.6
	c0.4-0.7,0.9-1.1,1.5-1.2c0.3-0.1,0.5-0.1,0.7,0c0.3-0.6,0.8-0.9,1.3-0.9c0.8,0,1.4,0.6,1.4,1.5c0,1,0.4,1.8,0.4,1.8l0.1,0.3
	l-0.2,0.3L164.7,285.8z"/>
<path class="st21" d="M159.8,279.9c-2,0-3.5-1.6-3.5-3.5h1.3c0,1.2,1,2.3,2.3,2.3c1.2,0,2.3-1,2.3-2.3c0-0.5-0.1-0.9-0.4-1.3l1-0.7
	c0.4,0.6,0.7,1.3,0.7,2C163.3,278.3,161.7,279.9,159.8,279.9z"/>
<path class="st21" d="M159.2,284.3c-3.8,0-6.9-3.1-6.9-6.9h1.3c0,3.1,2.5,5.6,5.6,5.6c1.1,0,2.2-0.3,3.1-1l0.7,1.1
	C161.9,283.9,160.6,284.3,159.2,284.3z"/>
<path class="st21" d="M163.2,288.9c-1.8,0-3.3-1.5-3.3-3.3c0-1.3,0.7-2.4,1.8-3l0.6,1.1c-0.7,0.4-1.1,1.1-1.1,1.8c0,1.1,0.9,2,2,2
	c0.7,0,1.4-0.4,1.8-1l1.1,0.6C165.5,288.3,164.4,288.9,163.2,288.9z"/>
<path class="st21" d="M154.6,279c-1.6,0-2.9-1.3-2.9-2.9s1.3-2.9,2.9-2.9s2.9,1.3,2.9,2.9S156.2,279,154.6,279z M154.6,274.5
	c-0.9,0-1.6,0.7-1.6,1.6c0,0.9,0.7,1.6,1.6,1.6c0.9,0,1.6-0.7,1.6-1.6C156.2,275.2,155.5,274.5,154.6,274.5z"/>
<rect x="153.9" y="267" class="st21" width="1.3" height="8.4"/>
<path class="st21" d="M151,288.1h-27.3v-21H151V288.1z M125.1,286.8h24.7v-18.4h-24.7V286.8z"/>
<rect x="136.6" y="55.7" class="st20" width="1.1" height="14.2"/>
<path class="st22" d="M137.2,72.7"/>
<rect x="136.6" y="99.2" class="st20" width="1.1" height="14"/>
<path class="st22" d="M137.2,115.9"/>
<path class="st22" d="M137.2,157.9"/>
<path class="st22" d="M137.2,200.9"/>
<path class="st22" d="M137.2,244.5"/>
<rect x="136.6" y="269.8" class="st20" width="1.1" height="8.3"/>
<rect x="136.5" y="141" class="st20" width="1.1" height="14"/>
<rect x="136.5" y="183.9" class="st20" width="1.1" height="14"/>
<rect x="136.5" y="227.8" class="st20" width="1.1" height="14"/>
<path class="st21" d="M58.8,284.5c-2.2,0-3.9-1.8-3.9-3.9c0-1,0.4-1.9,1.1-2.7l0.9,0.9c-0.5,0.5-0.7,1.1-0.7,1.8
	c0,1.5,1.2,2.6,2.6,2.6c0.8,0,1.5-0.3,2-0.9l1,0.9C61,284,59.9,284.5,58.8,284.5z"/>
<rect x="59.9" y="289.5" class="st21" width="1.3" height="18"/>
<path class="st21" d="M70.1,307.6h-4.7l0-3.1v-13.2l0,0c0-0.2,0-0.7-0.2-1c-0.1-0.1-0.2-0.2-0.5-0.2c-0.2,0-0.4,0.1-0.5,0.2
	c-0.2,0.2-0.1,0.5-0.1,0.6l0,0.1v15.6h-1.3V291c0-0.2-0.1-1,0.4-1.6c0.2-0.3,0.7-0.6,1.5-0.6c0.8,0,1.2,0.3,1.4,0.6
	c0.6,0.7,0.5,1.7,0.5,2v13.1l0,1.9h3.4c1,0,1-0.4,1-0.6c0-0.5-0.6-0.6-0.7-0.6H68l-0.1-19l1.3,0l0.1,17.7h1.1c0.8,0,2,0.5,2,1.9
	C72.4,306.9,71.5,307.6,70.1,307.6z"/>
<path class="st21" d="M58.8,288.4c-4.3,0-7.8-3.5-7.8-7.8c0-3.4,2.2-6.4,5.5-7.5l0.4,1.2c-2.7,0.9-4.6,3.4-4.6,6.2
	c0,3.6,2.9,6.5,6.5,6.5c2.5,0,4.7-1.4,5.8-3.6l1.1,0.6C64.5,286.7,61.8,288.4,58.8,288.4z"/>
<path class="st21" d="M62.9,286.4l-2.4-3.5l0.1-0.3c0,0,0.3-0.8,0.4-1.8c0-0.8,0.7-1.5,1.4-1.5c0.5,0,1,0.3,1.3,0.9
	c0.2,0,0.5,0,0.7,0c0.6,0.1,1.1,0.6,1.5,1.2c0.7,1.2-0.1,2.5-0.1,2.6l-1.1-0.6c0,0,0.4-0.7,0.1-1.3c-0.1-0.2-0.3-0.5-0.6-0.6
	c-0.3-0.1-0.6,0.1-0.6,0.1l-1,0.7l0-1.2c0-0.3-0.1-0.5-0.2-0.5c0,0-0.1,0.1-0.1,0.2c0,0.8-0.2,1.5-0.3,1.9l2,2.9L62.9,286.4z"/>
<path class="st21" d="M60.4,290.1c-1.4,0-2.7-0.9-3.1-2.3l1.2-0.4c0.2,0.8,1,1.4,1.8,1.4c0.3,0,0.6-0.1,0.9-0.2l0.6,1.1
	C61.5,290,60.9,290.1,60.4,290.1z"/>
<path class="st21" d="M69.2,278.9l-1.3-0.1c0.1-1.4-0.4-2.9-1.5-4c-0.8-0.9-2.2-1.9-4.5-1.9v-1.3c2.8,0,4.5,1.2,5.5,2.3
	C68.7,275.3,69.4,277.2,69.2,278.9z"/>
<rect x="63.5" y="285.5" class="st21" width="6.2" height="1.3"/>
<path class="st21" d="M69.7,286.8v-1.3c0.8,0,1.4-0.6,1.4-1.4s-0.6-1.4-1.4-1.4v-1.3c1.5,0,2.7,1.2,2.7,2.7
	C72.4,285.6,71.2,286.8,69.7,286.8z"/>
<path class="st21" d="M69.6,282.7c-1.7-0.3-1.8-2.6-1.6-4l1.3,0.2c-0.1,0.7-0.1,2.4,0.6,2.5L69.6,282.7z"/>
<path class="st21" d="M58.8,275.1c-2.2,0-4-1.8-4-4c0-2.2,1.8-4,4-4c2.2,0,4,1.8,4,4C62.8,273.3,61,275.1,58.8,275.1z M58.8,268.5
	c-1.5,0-2.7,1.2-2.7,2.7c0,1.5,1.2,2.7,2.7,2.7c1.5,0,2.7-1.2,2.7-2.7C61.5,269.7,60.3,268.5,58.8,268.5z"/>
<path class="st21" d="M64.3,307.6h-4.4l0-0.6c0-0.2-0.1-1.8,0.8-2.7c0.4-0.4,0.9-0.6,1.5-0.6c0.6,0,1.1,0.2,1.5,0.6
	c0.8,0.9,0.7,2.5,0.7,2.7L64.3,307.6z M61.2,306.3H63c0-0.4-0.1-0.9-0.4-1.1c-0.1-0.1-0.3-0.2-0.5-0.2c-0.2,0-0.4,0.1-0.5,0.2
	C61.3,305.5,61.2,305.9,61.2,306.3z"/>
<path class="st21" d="M100.1,308.1H72.8v-15.5h27.3V308.1z M74.1,306.8h24.7v-12.9H74.1V306.8z"/>
<path class="st21" d="M101.1,294H71.7v-3.6h29.4V294z M73,292.7h26.9v-1.1H73V292.7z"/>
<text transform="matrix(1 0 0 1 77.6611 332.7621)" class="st20 st3 st4">PP</text>
<text transform="matrix(1 0 0 1 134.4443 332.7621)" class="st20 st3 st4">Botànic</text>
<rect x="82.1" y="313.2" class="st21" width="1.3" height="7.6"/>
<rect x="151.9" y="312.8" class="st21" width="1.3" height="7.6"/>
<path class="st21" d="M150.5,31h-27.3V10h27.3V31z M124.6,29.7h24.7V11.3h-24.7V29.7z"/>
<rect x="136.8" y="17.6" class="st20" width="1.1" height="10.8"/>
<path class="st22" d="M137.3,30.3"/>
<path class="st20" d="M141.2,23l-3.9-5l-3.5,5l-0.9-0.6l3.9-5.6c0.1-0.1,0.3-0.2,0.4-0.2c0.2,0,0.3,0.1,0.4,0.2l4.3,5.6L141.2,23z"/>
<path class="st25" d="M23.6,192.2l-0.6-1.1c13.9-7.6,27.6-21.6,37.7-38.4c10.7-17.8,16.2-36.7,15.5-53.3l1.3-0.1
	c0.7,16.9-4.9,36-15.7,54C51.5,170.3,37.6,184.5,23.6,192.2z"/>
<rect x="85.6" y="181.6" transform="matrix(0.8955 -0.445 0.445 0.8955 -79.9022 59.269)" class="st25" width="1.3" height="36.3"/>
<rect x="79.3" y="196.9" transform="matrix(0.7397 -0.6729 0.6729 0.7397 -110.7577 108.767)" class="st25" width="11.9" height="1.3"/>
<rect x="13.1" y="256.9" transform="matrix(0.7324 -0.6809 0.6809 0.7324 -166.643 91.1819)" class="st25" width="39.2" height="1.3"/>
<rect x="169.4" y="31.4" class="st21" width="1.3" height="18.7"/>
<path class="st21" d="M165.1,50.3h-4.7c-1.4,0-2.2-0.7-2.2-1.9c0-1.4,1.2-1.9,2-1.9h1.1l0.1-16l1.3,0l-0.1,17.2h-2.4
	c-0.2,0-0.7,0.1-0.7,0.6c0,0.2,0,0.6,1,0.6h3.4l0-1.9V34.4c0-0.3-0.1-1.3,0.5-2c0.2-0.3,0.7-0.6,1.4-0.6c0.8,0,1.2,0.3,1.5,0.6
	c0.5,0.6,0.5,1.3,0.4,1.6v15.2h-1.3V33.9l0,0c0-0.1,0-0.4-0.1-0.6c-0.1-0.1-0.3-0.2-0.5-0.2c-0.3,0-0.4,0.1-0.5,0.2
	c-0.2,0.2-0.2,0.8-0.2,1l0,0.1v12.8L165.1,50.3z"/>
<path class="st21" d="M170.2,32.1c-0.1,0-0.4,0-2.9-0.8c-0.1,0-2.4-0.8-2.8-1l0.6-1.1c0.5,0.2,4.5,1.6,5.1,1.7c0.4,0,1.3-0.1,1.7-0.6
	c0.3-0.3,0.3-0.9,0.1-1.6l1.2-0.3c0.3,1.1,0.2,2-0.3,2.7C172.2,31.9,170.9,32.1,170.2,32.1z"/>
<path class="st21" d="M170.7,50.3h-4.4l-0.1-0.6c0-0.2-0.1-1.8,0.7-2.7c0.4-0.4,0.9-0.6,1.5-0.6c0.6,0,1.1,0.2,1.5,0.6
	c0.9,0.9,0.8,2.5,0.8,2.7L170.7,50.3z M167.6,49h1.9c0-0.4-0.2-0.9-0.4-1.1c-0.1-0.1-0.3-0.2-0.5-0.2c-0.2,0-0.4,0.1-0.5,0.2
	C167.7,48.1,167.6,48.6,167.6,49z"/>
<path class="st21" d="M168.2,26.6c-1.1,0-2.2-0.5-2.9-1.3l1-0.9c0.5,0.6,1.2,0.9,2,0.9c1.5,0,2.6-1.2,2.6-2.6c0-0.7-0.3-1.3-0.7-1.8
	l0.9-0.9c0.7,0.7,1.1,1.7,1.1,2.7C172.2,24.9,170.4,26.6,168.2,26.6z"/>
<path class="st21" d="M168.2,30.5c-3,0-5.7-1.6-7-4.3l1.1-0.6c1.1,2.2,3.4,3.6,5.8,3.6c3.6,0,6.5-2.9,6.5-6.5s-2.9-6.5-6.5-6.5
	c-0.2,0-0.5,0-0.7,0l-0.1-1.3c0.3,0,0.6,0,0.9,0c4.3,0,7.8,3.5,7.8,7.8S172.5,30.5,168.2,30.5z"/>
<path class="st21" d="M164.1,28.6l-1.1-0.7l2-2.9c-0.1-0.4-0.3-1.1-0.3-1.9c0-0.2-0.1-0.2-0.1-0.2c-0.1,0-0.2,0.2-0.2,0.5v1.3l-1-0.7
	l0,0c0,0-0.3-0.2-0.6-0.1c-0.3,0.1-0.5,0.4-0.6,0.6c-0.3,0.6,0.1,1.3,0.1,1.3l-1.1,0.6c0-0.1-0.8-1.3-0.1-2.6
	c0.4-0.7,0.9-1.1,1.5-1.2c0.3-0.1,0.5-0.1,0.7,0c0.3-0.6,0.8-0.9,1.3-0.9c0.8,0,1.4,0.6,1.4,1.5c0,1,0.4,1.8,0.4,1.8l0.1,0.3
	L164.1,28.6z"/>
<path class="st21" d="M159.1,22.6c-2,0-3.5-1.6-3.5-3.5h1.3c0,1.2,1,2.3,2.3,2.3c1.2,0,2.3-1,2.3-2.3c0-0.5-0.1-0.9-0.4-1.3l1-0.7
	c0.4,0.6,0.7,1.3,0.7,2C162.7,21,161.1,22.6,159.1,22.6z"/>
<path class="st21" d="M158.5,27.1c-3.8,0-6.9-3.1-6.9-6.9h1.3c0,3.1,2.5,5.6,5.6,5.6c1.1,0,2.2-0.3,3.1-1l0.7,1.1
	C161.2,26.7,159.9,27.1,158.5,27.1z"/>
<path class="st21" d="M162.5,31.7c-1.8,0-3.3-1.5-3.3-3.3c0-1.3,0.7-2.4,1.8-3l0.6,1.1c-0.7,0.4-1.1,1.1-1.1,1.8c0,1.1,0.9,2,2,2
	c0.7,0,1.4-0.4,1.8-1l1.1,0.6C164.8,31,163.7,31.7,162.5,31.7z"/>
<path class="st21" d="M153.9,21.7c-1.6,0-2.9-1.3-2.9-2.9c0-1.6,1.3-2.9,2.9-2.9s2.9,1.3,2.9,2.9C156.8,20.4,155.5,21.7,153.9,21.7z
	 M153.9,17.3c-0.9,0-1.6,0.7-1.6,1.6s0.7,1.6,1.6,1.6c0.9,0,1.6-0.7,1.6-1.6S154.8,17.3,153.9,17.3z"/>
<g>
	<text transform="matrix(1 0 0 1 73.6728 61.4867)" class="st20 st3 st6">+6.051</text>
</g>
<g>
	<text transform="matrix(1 0 0 1 59.528 74.308)" class="st20 st3 st6">docentes</text>
</g>
<path class="st21" d="M143.9,308.1h-27.3v-15.5h27.3V308.1z M117.9,306.8h24.7v-12.9h-24.7V306.8z"/>
<path class="st21" d="M145,294h-29.4v-3.6H145V294z M116.8,292.7h26.9v-1.1h-26.9V292.7z"/>
<rect x="60.8" y="277.5" transform="matrix(0.2251 -0.9743 0.9743 0.2251 -221.2956 278.0339)" class="st21" width="6.7" height="1.3"/>
<path class="st21" d="M108.6,287.5H81.3v-21h27.3V287.5z M82.6,286.2h24.7v-18.4H82.6V286.2z"/>
<circle class="st20" cx="168.9" cy="225.4" r="2.8"/>
<path class="st21" d="M163.9,232.8c-2.2,0-4-1.8-4-4c0-2.2,1.8-4,4-4s4,1.8,4,4C167.9,231,166.1,232.8,163.9,232.8z M163.9,226.2
	c-1.5,0-2.7,1.2-2.7,2.7c0,1.5,1.2,2.7,2.7,2.7c1.5,0,2.7-1.2,2.7-2.7C166.6,227.4,165.4,226.2,163.9,226.2z"/>
<circle class="st20" cx="165.4" cy="270" r="2.8"/>
<circle class="st20" cx="169.1" cy="268.5" r="2.8"/>
<path class="st21" d="M164.1,276c-2.2,0-4-1.8-4-4c0-2.2,1.8-4,4-4s4,1.8,4,4C168.1,274.2,166.3,276,164.1,276z M164.1,269.3
	c-1.5,0-2.7,1.2-2.7,2.7c0,1.5,1.2,2.7,2.7,2.7c1.5,0,2.7-1.2,2.7-2.7C166.8,270.5,165.6,269.3,164.1,269.3z"/>
<g>
	<circle class="st20" cx="165" cy="183.1" r="2.8"/>
	<circle class="st20" cx="168.7" cy="181.6" r="2.8"/>
	<path class="st21" d="M163.8,189c-2.2,0-4-1.8-4-4c0-2.2,1.8-4,4-4s4,1.8,4,4C167.7,187.2,166,189,163.8,189z M163.8,182.4
		c-1.5,0-2.7,1.2-2.7,2.7c0,1.5,1.2,2.7,2.7,2.7c1.5,0,2.7-1.2,2.7-2.7C166.5,183.6,165.3,182.4,163.8,182.4z"/>
</g>
<g>
	<circle class="st20" cx="165" cy="140.3" r="2.8"/>
	<circle class="st20" cx="168.7" cy="138.9" r="2.8"/>
	<path class="st21" d="M163.7,146.3c-2.2,0-4-1.8-4-4c0-2.2,1.8-4,4-4c2.2,0,4,1.8,4,4C167.7,144.5,165.9,146.3,163.7,146.3z
		 M163.7,139.7c-1.5,0-2.7,1.2-2.7,2.7c0,1.5,1.2,2.7,2.7,2.7c1.5,0,2.7-1.2,2.7-2.7C166.4,140.9,165.2,139.7,163.7,139.7z"/>
</g>
<g>
	<circle class="st20" cx="164.9" cy="98.4" r="2.8"/>
	<circle class="st20" cx="168.6" cy="96.9" r="2.8"/>
	<path class="st21" d="M163.6,104.3c-2.2,0-4-1.8-4-4c0-2.2,1.8-4,4-4s4,1.8,4,4C167.6,102.5,165.8,104.3,163.6,104.3z M163.6,97.7
		c-1.5,0-2.7,1.2-2.7,2.7c0,1.5,1.2,2.7,2.7,2.7c1.5,0,2.7-1.2,2.7-2.7C166.3,98.9,165.1,97.7,163.6,97.7z"/>
</g>
<g>
	<circle class="st20" cx="164.7" cy="55.1" r="2.8"/>
	<circle class="st20" cx="168.4" cy="53.6" r="2.8"/>
	<path class="st21" d="M163.5,61c-2.2,0-4-1.8-4-4c0-2.2,1.8-4,4-4s4,1.8,4,4C167.4,59.3,165.6,61,163.5,61z M163.5,54.4
		c-1.5,0-2.7,1.2-2.7,2.7c0,1.5,1.2,2.7,2.7,2.7c1.5,0,2.7-1.2,2.7-2.7C166.1,55.6,164.9,54.4,163.5,54.4z"/>
</g>
<g>
	<circle class="st20" cx="164.9" cy="12.6" r="2.8"/>
	<circle class="st20" cx="168.6" cy="11.1" r="2.8"/>
	<path class="st21" d="M163.7,18.5c-2.2,0-4-1.8-4-4c0-2.2,1.8-4,4-4s4,1.8,4,4C167.6,16.7,165.8,18.5,163.7,18.5z M163.7,11.9
		c-1.5,0-2.7,1.2-2.7,2.7c0,1.5,1.2,2.7,2.7,2.7c1.5,0,2.7-1.2,2.7-2.7C166.3,13.1,165.1,11.9,163.7,11.9z"/>
</g>
<rect x="153.3" y="9.7" class="st21" width="1.3" height="8.4"/>
</svg>
