<?xml version="1.0" encoding="UTF-8"?>
<svg fill="#FFFFFF" width="100pt" height="100pt" version="1.1" viewBox="0 0 100 100" xmlns="http://www.w3.org/2000/svg">
 <g>
  <path d="m50 97.5c26.199 0 47.5-21.301 47.5-47.5s-21.301-47.5-47.5-47.5-47.5 21.301-47.5 47.5 21.301 47.5 47.5 47.5zm0-88.199c22.398 0 40.699 18.199 40.699 40.699s-18.301 40.699-40.699 40.699-40.699-18.301-40.699-40.699 18.301-40.699 40.699-40.699z"/>
  <path d="m47.602 63.5c0.60156 0.60156 1.5 1 2.3984 1s1.8008-0.39844 2.3984-1l18.301-18.301c1.3008-1.3008 1.3008-3.5 0-4.8008-1.3008-1.3008-3.5-1.3008-4.8008 0l-15.898 15.801-15.801-15.801c-0.69922-0.69922-1.5-1-2.3984-1-0.89844 0-1.8008 0.30078-2.3984 1-1.3008 1.3008-1.3008 3.5 0 4.8008z"/>
 </g>
</svg>
