<?xml version="1.0" encoding="utf-8"?>
<!-- Generator: Adobe Illustrator 22.1.0, SVG Export Plug-In . SVG Version: 6.00 Build 0)  -->
<svg version="1.1" id="Layer_1" xmlns="http://www.w3.org/2000/svg" xmlns:xlink="http://www.w3.org/1999/xlink" x="0px" y="0px"
	 viewBox="0 0 45.6 32.2" style="enable-background:new 0 0 45.6 32.2;" xml:space="preserve">
<style type="text/css">
	.st0{fill:none;stroke:url(#SVGID_1_);stroke-linejoin:round;stroke-miterlimit:10;}
</style>
<g>
	<linearGradient id="SVGID_1_" gradientUnits="userSpaceOnUse" x1="8.4191" y1="16.0576" x2="36.3093" y2="16.0576">
		<stop  offset="0" style="stop-color:#E28226"/>
		<stop  offset="1" style="stop-color:#D44127"/>
	</linearGradient>
	<path class="st0" d="M34.6,3.2H10.2c-0.7,0-1.3,0.5-1.3,1.2v23.3c0,0.7,0.6,1.2,1.3,1.2h24.4c0.7,0,1.3-0.5,1.3-1.2V4.4
		C35.8,3.8,35.2,3.2,34.6,3.2z M24.5,10.2h2.8v2.7h-2.8V10.2z M15.6,10.3c0.5,1,1.1,1.2,2.1,1.2v-1.3h2.8v2.7h-2.6
		c-1.6,0-2.7-0.4-3.4-2L15.6,10.3z M22.5,22.6c-3.6,0-6.5-1.1-9-3.2l1-1.3c2.5,1.8,4.6,2.6,8,2.6c3.4,0,5.5-0.8,8-2.6l1,1.3
		C29,21.5,26.1,22.6,22.5,22.6z"/>
</g>
</svg>
