<?xml version="1.0" encoding="utf-8"?>
<!-- Generator: Adobe Illustrator 22.1.0, SVG Export Plug-In . SVG Version: 6.00 Build 0)  -->
<svg version="1.1" id="Layer_1" xmlns="http://www.w3.org/2000/svg" xmlns:xlink="http://www.w3.org/1999/xlink" x="0px" y="0px"
	 viewBox="0 0 45.6 32.2" style="enable-background:new 0 0 45.6 32.2;" xml:space="preserve">
<style type="text/css">
	.st0{fill:none;stroke:url(#SVGID_1_);stroke-linejoin:round;stroke-miterlimit:10;}
	.st1{fill:none;stroke:url(#SVGID_2_);stroke-linejoin:round;stroke-miterlimit:10;}
	.st2{fill:none;stroke:url(#SVGID_3_);stroke-linejoin:round;stroke-miterlimit:10;}
	.st3{fill:none;stroke:url(#SVGID_4_);stroke-linejoin:round;stroke-miterlimit:10;}
	.st4{fill:none;stroke:url(#SVGID_5_);stroke-linejoin:round;stroke-miterlimit:10;}
	.st5{fill:none;stroke:url(#SVGID_6_);stroke-linejoin:round;stroke-miterlimit:10;}
	.st6{fill:none;stroke:url(#SVGID_7_);stroke-linejoin:round;stroke-miterlimit:10;}
	.st7{fill:none;stroke:url(#SVGID_8_);stroke-linejoin:round;stroke-miterlimit:10;}
	.st8{fill:none;stroke:url(#SVGID_9_);stroke-linejoin:round;stroke-miterlimit:10;}
	.st9{fill:none;stroke:url(#SVGID_10_);stroke-linejoin:round;stroke-miterlimit:10;}
	.st10{fill:none;stroke:url(#SVGID_11_);stroke-linejoin:round;stroke-miterlimit:10;}
</style>
<g>
	<linearGradient id="SVGID_1_" gradientUnits="userSpaceOnUse" x1="21.6597" y1="15.2338" x2="39.3663" y2="15.2338">
		<stop  offset="0" style="stop-color:#E28226"/>
		<stop  offset="1" style="stop-color:#D44127"/>
	</linearGradient>
	<path class="st0" d="M22.2,27.3v-22c0,0,8.3-4.7,16.7-0.1v22.1C38.9,27.3,30.8,22.9,22.2,27.3z"/>
	<linearGradient id="SVGID_2_" gradientUnits="userSpaceOnUse" x1="4.9201" y1="15.3449" x2="22.6267" y2="15.3449">
		<stop  offset="0" style="stop-color:#E28226"/>
		<stop  offset="1" style="stop-color:#D44127"/>
	</linearGradient>
	<path class="st1" d="M5.4,27.3V5.5c0,0,8.3-4.7,16.7-0.1v21.9C22.1,27.3,14.1,22.9,5.4,27.3z"/>
	<linearGradient id="SVGID_3_" gradientUnits="userSpaceOnUse" x1="3.0262" y1="17.9548" x2="22.1725" y2="17.9548">
		<stop  offset="0" style="stop-color:#E28226"/>
		<stop  offset="1" style="stop-color:#D44127"/>
	</linearGradient>
	<polyline class="st2" points="22.1,27.3 3.5,29 3.5,6.9 5.4,6.9 	"/>
	<linearGradient id="SVGID_4_" gradientUnits="userSpaceOnUse" x1="22.2579" y1="17.9548" x2="41.4043" y2="17.9548">
		<stop  offset="0" style="stop-color:#E28226"/>
		<stop  offset="1" style="stop-color:#D44127"/>
	</linearGradient>
	<polyline class="st3" points="22.3,27.3 40.9,29 40.9,6.9 39,6.9 	"/>
	<linearGradient id="SVGID_5_" gradientUnits="userSpaceOnUse" x1="7.5078" y1="9.1888" x2="20.0479" y2="9.1888">
		<stop  offset="0" style="stop-color:#E28226"/>
		<stop  offset="1" style="stop-color:#D44127"/>
	</linearGradient>
	<path class="st4" d="M7.7,9.9c0,0,6.3-3,12.1-0.1"/>
	<linearGradient id="SVGID_6_" gradientUnits="userSpaceOnUse" x1="7.4748" y1="12.4248" x2="14.8943" y2="12.4248">
		<stop  offset="0" style="stop-color:#E28226"/>
		<stop  offset="1" style="stop-color:#D44127"/>
	</linearGradient>
	<path class="st5" d="M7.7,13.2c0,0,3.1-1.8,7.1-1.5"/>
	<linearGradient id="SVGID_7_" gradientUnits="userSpaceOnUse" x1="7.5095" y1="15.873" x2="20.0481" y2="15.873">
		<stop  offset="0" style="stop-color:#E28226"/>
		<stop  offset="1" style="stop-color:#D44127"/>
	</linearGradient>
	<path class="st6" d="M7.7,16.6c0,0,6.4-2.9,12.1-0.1"/>
	<linearGradient id="SVGID_8_" gradientUnits="userSpaceOnUse" x1="7.5081" y1="19.211" x2="20.0476" y2="19.211">
		<stop  offset="0" style="stop-color:#E28226"/>
		<stop  offset="1" style="stop-color:#D44127"/>
	</linearGradient>
	<path class="st7" d="M7.7,19.9c0,0,6.3-3,12.1-0.1"/>
	<linearGradient id="SVGID_9_" gradientUnits="userSpaceOnUse" x1="24.2395" y1="9.3205" x2="36.78" y2="9.3205">
		<stop  offset="0" style="stop-color:#E28226"/>
		<stop  offset="1" style="stop-color:#D44127"/>
	</linearGradient>
	<path class="st8" d="M24.5,10c0,0,6.1-3,12.1-0.1"/>
	<linearGradient id="SVGID_10_" gradientUnits="userSpaceOnUse" x1="24.243" y1="12.6936" x2="31.6339" y2="12.6936">
		<stop  offset="0" style="stop-color:#E28226"/>
		<stop  offset="1" style="stop-color:#D44127"/>
	</linearGradient>
	<path class="st9" d="M24.5,13.4c0,0,3.1-1.5,7.1-1.3"/>
	<linearGradient id="SVGID_11_" gradientUnits="userSpaceOnUse" x1="24.2255" y1="15.9789" x2="31.6377" y2="15.9789">
		<stop  offset="0" style="stop-color:#E28226"/>
		<stop  offset="1" style="stop-color:#D44127"/>
	</linearGradient>
	<path class="st10" d="M24.5,16.7c0,0,3.1-1.6,7.1-1.4"/>
</g>
</svg>
