<?xml version="1.0" encoding="utf-8"?>
<!-- Generator: Adobe Illustrator 22.0.1, SVG Export Plug-In . SVG Version: 6.00 Build 0)  -->
<svg version="1.1" id="Layer_1" xmlns="http://www.w3.org/2000/svg" xmlns:xlink="http://www.w3.org/1999/xlink" x="0px" y="0px"
	 viewBox="0 0 595.3 841.9" style="enable-background:new 0 0 595.3 841.9;" xml:space="preserve">
<rect x="386.4" y="654.4" transform="matrix(0.8089 -0.588 0.588 0.8089 -301.6454 385.1939)" class="st0" width="110.5" height="4.3"/>
<rect x="387.3" y="662.5" transform="matrix(0.8111 -0.5849 0.5849 0.8111 -304.7073 385.7687)" class="st0" width="115.3" height="4.3"/>
<path class="st1" d="M417.7,533.5c-41.4-56.7-79.2-108.5-79.6-109l3.5-2.6c0.4,0.5,38.2,52.4,79.6,109L417.7,533.5z"/>
<path class="st2" d="M419.5,532.3"/>
<path class="st1" d="M444.2,569.7c-3.8-5.2-7.8-10.7-11.8-16.2c-3.3-4.5-6.6-9-9.7-13.3l3.5-2.6c3.1,4.2,6.4,8.8,9.7,13.3
	c4,5.5,8.1,11,11.8,16.2L444.2,569.7z"/>
<path class="st1" d="M472.4,608.3c-4.1-5.6-8.2-11.2-12.4-17l3.5-2.6c4.2,5.7,8.3,11.4,12.4,17L472.4,608.3z"/>
<path class="st1" d="M545.3,703.3c-5-4.4-11.7-12.1-15.5-17.2c-7.6-10.1-27.8-37.5-51.8-70.1l3.5-2.6c23.9,32.6,44.1,59.9,51.8,70.1
	c3.1,4.2,10.5,13.4,15,16.5"/>
<path class="st1" d="M577.9,687c-0.5-8.2-3.5-13.9-6.3-18.6c-11.5-19.9-49.1-77.9-49.1-77.9l3.7-2.3c0,0,41.5,65.3,49.1,78
	c4.7,7.9,6.9,14.7,6.9,21.6"/>
<rect x="506.2" y="553.5" transform="matrix(0.8461 -0.533 0.533 0.8461 -222.3374 357.7243)" class="st1" width="4.3" height="20.9"/>
<rect x="437.7" y="366.6" transform="matrix(0.8462 -0.5329 0.5329 0.8462 -174.9234 304.4808)" class="st1" width="4.3" height="177.2"/>
<path class="st1" d="M360.2,385.9L230.4,194.6c-5.3-6.4-9.7-13.5-13.2-21.1c-9.4-20.6-11-43.3-4.7-63.8c6.4-20.6,20-36.5,38.5-44.9
	s39.5-8.2,59.1,0.6c19.6,8.7,35.5,24.9,44.9,45.5c7.4,16.2,10,33.7,7.6,50.6c-0.1,0.3-4.3,27.6,0,67.9
	c3.9,37.2,16.1,93.3,51.8,149.9l2,3.1L360.2,385.9z M236.7,196.1l125.7,185.3l46.4-2.9c-34.7-56.2-46.7-111.8-50.6-148.8
	c-4.3-40.9,0-68.6,0.1-68.9c2.2-16.1-0.3-32.7-7.3-48.2C342.1,93,327,77.6,308.3,69.3c-18.5-8.2-38.3-8.5-55.6-0.6
	c-17.3,7.9-30.1,22.9-36.1,42.2c-6,19.5-4.4,41,4.5,60.7c1,2.1,2,4.2,3.1,6.2l9.6,14.1c1.1,1.3,2.1,2.5,3.3,3.7L236.7,196.1z"/>
<path class="st1" d="M334,446.3l-2.4-3.5c-0.2-0.2-15.5-22.3-47.9-49.9c-27.5-23.4-72.7-55.3-136.3-79.2
	C127.3,308.9,109,296.6,96,279c-13.5-18.2-19.8-40-17.9-61.4c1.9-21.5,11.9-39.9,28.2-52c33.6-24.8,83.5-14.3,111.4,23.4
	c1.3,1.8,2.6,3.6,3.8,5.5l132.6,195.1L334,446.3z M131.8,303.5c73.4,24.6,124.7,60.5,154.9,86.2c23,19.6,38.9,37.8,46,47.2
	l16.5-46.7L217.8,196.9c-1.2-1.8-2.4-3.6-3.6-5.3c-26.4-35.8-73.7-45.8-105.3-22.4c-15.3,11.3-24.7,28.6-26.5,48.9
	c-1.8,20.3,4.3,41,17.1,58.4C108.2,288.2,119.3,297.5,131.8,303.5z"/>
<path class="st1" d="M328.7,550.5c-6.6,0-12.2-4.7-13.3-11.2l4.3-0.7c0.7,4.4,4.5,7.6,9,7.6c4.5,0,8.3-3.2,9-7.6l4.3,0.7
	C340.9,545.8,335.3,550.5,328.7,550.5z"/>
<circle class="st0" cx="113.8" cy="473.1" r="15.6"/>
<path class="st1" d="M91.8,566.8c-12.4,0-22.6-10.1-22.6-22.6c0-5.7,2.2-11.2,6.1-15.4l3.2,3c-3.2,3.4-4.9,7.8-4.9,12.4
	c0,10,8.2,18.2,18.2,18.2c5.2,0,10.2-2.2,13.7-6.2l3.3,2.9C104.5,564,98.3,566.8,91.8,566.8z"/>
<path class="st1" d="M108.2,601.4c-9.7,0-19.1-4.6-25-12.6l3.5-2.6c6.1,8.2,16.5,12.3,26.5,10.3c4.4-0.9,8.6-2.8,12-5.7l2.8,3.3
	c-4,3.4-8.8,5.7-14,6.7C112.1,601.3,110.1,601.4,108.2,601.4z"/>
<rect x="144.6" y="576.6" class="st1" width="15.3" height="4.3"/>
<path class="st1" d="M159.9,580.9v-4.3c5.8,0,10.5-4.7,10.5-10.5c0-5.8-4.7-10.5-10.5-10.5v-4.3c8.2,0,14.8,6.6,14.8,14.8
	C174.7,574.3,168,580.9,159.9,580.9z"/>
<path class="st1" d="M210.9,709.2h-37.7V668c0-36.6-29.8-66.4-66.4-66.4v-4.3c39,0,70.7,31.7,70.7,70.7v36.8h33.4c2.9,0,4.8-1,6-3
	c0.8-1.4,0.9-2.8,1-3c0-5.6-4.2-8.1-8.3-8.1h-16.9v-21.6c0-29.5-14.9-57.5-39.8-74.9l2.5-3.6c26.1,18.2,41.6,47.5,41.6,78.4v17.2
	h12.5c7.3,0,12.7,5.3,12.7,12.5l0,0.1C222.2,699.1,221.7,709.2,210.9,709.2z"/>
<path class="st1" d="M278.3,692l-102.6-75.3l2.6-3.5l99.1,72.8c5.3-6.9,15.8-20.7,16.8-22.4c2.2-3.5,3.7-7.1-0.3-10.6
	c-1.4-1.2-2.7-1.7-4.2-1.5c-2.3,0.3-4.4,2.3-5.6,3.9c-1.7,2.4-6.7,10-6.7,10.1l-1.3,2l-115.6-87.4l2.6-3.5l111.9,84.6
	c1.6-2.5,4.3-6.6,5.6-8.3c0.9-1.2,4-5.1,8.6-5.7c2.7-0.3,5.2,0.5,7.5,2.5c4.9,4.2,5.3,9.7,1.2,16.2c-1.5,2.3-16.6,22.1-18.3,24.4
	L278.3,692z"/>
<path class="st1" d="M342.2,531.7h-4.3c0-9.3-5.9-10.6-11.1-10.6c-3.6,0-5.5-0.1-6.5-0.1l0,0.1c-150.3,0-179.6-9.5-183.8-15.1
	c-0.9-1.3-0.7-2.4-0.6-2.8l4.1,1.3c0.2-0.7,0-1.1,0-1.1c0.1,0.2,2.8,3.9,29.6,7.3c31,4,81.2,6,149.4,6c0.1,0,0.2,0,0.3,0l0,0
	c0,0,0,0,0.1,0c0.4,0,0.9,0,1.3,0c1.2,0,3.1,0,6.3,0.1C339.5,516.9,342.2,525,342.2,531.7z"/>
<path class="st1" d="M160.4,555.7c-5.2,0-9.4-4.2-9.4-9.4s4.2-9.4,9.4-9.4v4.3c-2.8,0-5,2.3-5,5c0,2.8,2.3,5,5,5V555.7z"/>
<rect x="160.4" y="536.9" class="st1" width="131.2" height="4.3"/>
<rect x="144.6" y="529.5" class="st0" width="350.1" height="4.3"/>
<path class="st0" d="M121.6,549l-4-1.6c4.3-10.9,15.2-17.9,27.7-17.9v4.3C134.6,533.9,125.3,539.8,121.6,549z"/>
<rect x="146.9" y="536.8" class="st0" width="347.3" height="4.3"/>
<path class="st0" d="M130,549.6l-3.8-2.1c3.8-6.9,11.4-10.7,21.4-10.7v4.3C142.8,541.1,134.2,542.2,130,549.6z"/>
<path class="st0" d="M122.6,699c-17.5,0-31.7-14.2-31.7-31.7s14.2-31.7,31.7-31.7v4.3c-15.1,0-27.3,12.3-27.3,27.3
	s12.3,27.3,27.3,27.3V699z"/>
<path class="st0" d="M118.8,817c-17.5,0-31.7-14.2-31.7-31.7c0-17.5,14.2-31.7,31.7-31.7v4.3c-15.1,0-27.3,12.3-27.3,27.3
	c0,15.1,12.3,27.3,27.3,27.3V817z"/>
<path class="st0" d="M494.2,541.1v-4.3c0.8,0,1.5-0.7,1.5-1.5c0-0.8-0.7-1.5-1.5-1.5v-4.3c3.2,0,5.8,2.6,5.8,5.8
	C500,538.5,497.4,541.1,494.2,541.1z"/>
<g>
	
		<rect x="441.2" y="552.8" transform="matrix(0.8705 -0.4922 0.4922 0.8705 -212.3125 303.1196)" class="st0" width="57.2" height="4.3"/>
	
		<rect x="444.6" y="558.8" transform="matrix(0.8705 -0.4922 0.4922 0.8705 -214.8195 305.5598)" class="st0" width="57.2" height="4.3"/>
	<path class="st0" d="M499.1,548.8L497,545c0.6-0.3,0.8-1.1,0.5-1.7c-0.3-0.6-1.1-0.8-1.7-0.5l-2.1-3.8c2.7-1.5,6.1-0.6,7.6,2.1
		C502.8,543.8,501.8,547.2,499.1,548.8z"/>
	<path class="st0" d="M447.1,577.4c-2,0-3.9-1-4.9-2.8c-0.7-1.3-0.9-2.8-0.5-4.3c0.4-1.4,1.3-2.6,2.6-3.4l2.1,3.8
		c-0.3,0.2-0.5,0.4-0.6,0.8c-0.1,0.3,0,0.7,0.1,1c0.3,0.6,1.1,0.8,1.7,0.5l2.1,3.8C449,577.1,448,577.4,447.1,577.4z"/>
</g>
<g>
	
		<rect x="447" y="559.2" transform="matrix(0.8705 -0.4922 0.4922 0.8705 -214.7283 306.7982)" class="st0" width="57.2" height="4.3"/>
	
		<rect x="450.4" y="565.2" transform="matrix(0.8705 -0.4922 0.4922 0.8705 -217.2353 309.2385)" class="st0" width="57.2" height="4.3"/>
	<path class="st0" d="M504.9,555.2l-2.1-3.8c0.3-0.2,0.5-0.4,0.6-0.8c0.1-0.3,0-0.7-0.1-1c-0.2-0.3-0.4-0.5-0.8-0.6
		c-0.3-0.1-0.7,0-1,0.1l-2.1-3.8c1.3-0.7,2.8-0.9,4.3-0.5c1.4,0.4,2.6,1.3,3.4,2.6c0.7,1.3,0.9,2.8,0.5,4.3
		C507.2,553.3,506.2,554.5,504.9,555.2z"/>
	<path class="st0" d="M452.9,583.8c-0.5,0-1-0.1-1.5-0.2c-1.4-0.4-2.6-1.3-3.4-2.6c-1.5-2.7-0.6-6.1,2.1-7.6l2.1,3.8
		c-0.6,0.3-0.8,1.1-0.5,1.7c0.2,0.3,0.4,0.5,0.8,0.6c0.3,0.1,0.7,0,1-0.1l2.1,3.8C454.8,583.5,453.8,583.8,452.9,583.8z"/>
</g>
<g>
	
		<rect x="457.8" y="576.5" transform="matrix(0.9864 -0.1642 0.1642 0.9864 -88.4296 87.7364)" class="st0" width="57.2" height="4.3"/>
	
		<rect x="458.9" y="583.2" transform="matrix(0.9864 -0.1641 0.1641 0.9864 -89.4481 87.9211)" class="st0" width="57.2" height="4.3"/>
	<path class="st0" d="M516.1,582.9l-0.7-4.3c0.7-0.1,1.2-0.8,1-1.5c-0.1-0.3-0.2-0.6-0.5-0.8c-0.3-0.2-0.6-0.3-0.9-0.2l-0.7-4.3
		c1.5-0.2,3,0.1,4.2,1c1.2,0.9,2,2.2,2.3,3.6C521.2,579.5,519.1,582.3,516.1,582.9z"/>
	<path class="st0" d="M459.3,592.2c-2.7,0-5.1-1.9-5.5-4.7c-0.5-3.1,1.6-5.9,4.6-6.5l0.7,4.3c-0.7,0.1-1.2,0.8-1,1.5
		c0.1,0.7,0.8,1.2,1.5,1l0.7,4.3C459.9,592.2,459.6,592.2,459.3,592.2z"/>
</g>
<g>
	
		<rect x="467.5" y="594" transform="matrix(0.8705 -0.4922 0.4922 0.8705 -229.1657 321.4145)" class="st0" width="57.2" height="4.3"/>
	
		<rect x="470.9" y="600" transform="matrix(0.8705 -0.4922 0.4922 0.8705 -231.6728 323.8546)" class="st0" width="57.2" height="4.3"/>
	<path class="st0" d="M525.5,589.9l-2.1-3.8c0.6-0.3,0.8-1.1,0.5-1.7c-0.3-0.6-1.1-0.8-1.7-0.5l-2.1-3.8c2.7-1.5,6.1-0.6,7.6,2.1
		C529.1,585,528.2,588.4,525.5,589.9z"/>
	<path class="st0" d="M473.4,618.5c-0.5,0-1-0.1-1.5-0.2c-1.4-0.4-2.6-1.3-3.4-2.6c-0.7-1.3-0.9-2.8-0.5-4.3
		c0.4-1.4,1.3-2.6,2.6-3.4l2.1,3.8c-0.3,0.2-0.5,0.4-0.6,0.8c-0.1,0.3,0,0.7,0.1,1c0.2,0.3,0.4,0.5,0.8,0.6c0.3,0.1,0.7,0,1-0.1
		l2.1,3.8C475.3,618.3,474.4,618.5,473.4,618.5z"/>
</g>
<rect x="150.4" y="704.9" class="st1" width="429.1" height="4.3"/>
<rect x="102.8" y="704.9" class="st1" width="38.3" height="4.3"/>
<g>
	<path class="st3" d="M328.1,526.9l4.6,7.5c1.5,2.8,0.5,6.2-2.3,7.7c-2.8,1.5-6.2,0.5-7.7-2.3l-6.1-9.5"/>
	<path class="st1" d="M327.7,544.9c-0.7,0-1.5-0.1-2.2-0.3c-2-0.6-3.6-1.9-4.6-3.7l-6-9.4l3.7-2.3l6.1,9.6c0.4,0.8,1.2,1.4,2.1,1.7
		c0.9,0.3,1.8,0.2,2.7-0.3c0.8-0.4,1.4-1.2,1.7-2.1c0.3-0.9,0.2-1.8-0.3-2.6l-4.6-7.4l3.7-2.3l4.7,7.6c1,1.8,1.2,4,0.6,6
		c-0.6,2-1.9,3.7-3.8,4.7C330.3,544.5,329,544.9,327.7,544.9z"/>
</g>
<rect x="302.6" y="518.9" class="st1" width="4.3" height="13.5"/>
<path class="st1" d="M296.6,201.7C296.6,201.7,296.6,201.7,296.6,201.7c-21.3,0-42.7-15.6-53.2-38.8c-6.7-14.8-8.4-30.8-4.7-45.1
	c3.7-14.5,12.4-25.5,24.6-31c5.4-2.4,11.2-3.7,17.2-3.7c21.3,0,42.7,15.6,53.2,38.8c13.9,30.7,5,64.8-19.9,76.1
	C308.4,200.4,302.6,201.7,296.6,201.7z M280.4,87.4c-5.4,0-10.6,1.1-15.4,3.3c-10.9,5-18.8,14.9-22.2,28.1
	c-3.4,13.4-1.8,28.4,4.5,42.2c9.8,21.7,29.6,36.2,49.2,36.2c0,0,0,0,0,0c5.4,0,10.6-1.1,15.4-3.3c22.7-10.3,30.6-41.9,17.7-70.4
	C319.8,102,300,87.4,280.4,87.4z"/>
<path class="st1" d="M166.9,288.7L166.9,288.7c-15.2,0-30.6-5.9-43.4-16.7c-25.8-21.7-32.4-56.3-14.8-77.3
	c8.3-9.9,20.8-15.3,35.2-15.3c15.2,0,30.6,5.9,43.4,16.7c12.4,10.5,20.8,24.2,23.7,38.7c2.9,14.7-0.3,28.4-8.9,38.6
	C193.8,283.2,181.3,288.7,166.9,288.7z M143.9,183.7c-13.1,0-24.4,4.9-31.9,13.8c-16.1,19.1-9.7,51,14.3,71.1
	c12,10.1,26.5,15.7,40.6,15.7c13.1,0,24.4-4.9,31.9-13.8c7.7-9.2,10.5-21.6,7.9-34.9c-2.7-13.5-10.5-26.4-22.2-36.2
	C172.5,189.3,158.1,183.7,143.9,183.7z"/>
<polygon class="st1" points="377,689.1 372.7,689.1 372.7,678.3 394.9,678.3 394.9,689 390.5,689 390.5,682.7 377,682.7 "/>
<g>
	<path class="st0" d="M395.2,698.1l0-4.3c0.7,0,1.3-0.6,1.3-1.3c0-0.7-0.6-1.3-1.3-1.3h0l0-4.3h0c3.1,0,5.6,2.5,5.6,5.6
		C400.8,695.5,398.3,698.1,395.2,698.1z"/>
	
		<rect x="371.8" y="686.9" transform="matrix(1 -1.627602e-03 1.627602e-03 1 -1.121 0.6251)" class="st0" width="23.4" height="4.3"/>
	
		<rect x="371.8" y="693.7" transform="matrix(1 -1.627602e-03 1.627602e-03 1 -1.1322 0.6252)" class="st0" width="23.4" height="4.3"/>
	<path class="st0" d="M372.4,698.1c-1.5,0-2.9-0.6-4-1.6c-1.1-1.1-1.6-2.5-1.6-4c0-3.1,2.5-5.6,5.6-5.6l0,4.3
		c-0.7,0-1.3,0.6-1.3,1.3c0,0.3,0.1,0.7,0.4,0.9c0.2,0.2,0.6,0.4,0.9,0.4h0L372.4,698.1C372.4,698.1,372.4,698.1,372.4,698.1z"/>
</g>
<g>
	<path class="st0" d="M395.7,706.4l0-4.3c0.3,0,0.7-0.1,0.9-0.4c0.2-0.2,0.4-0.6,0.4-0.9c0-0.7-0.6-1.3-1.3-1.3h0l0-4.3h0
		c3.1,0,5.6,2.5,5.6,5.6c0,1.5-0.6,2.9-1.6,4C398.6,705.8,397.2,706.4,395.7,706.4z"/>
	
		<rect x="372.3" y="695.2" transform="matrix(1 -1.627602e-03 1.627602e-03 1 -1.1345 0.6259)" class="st0" width="23.4" height="4.3"/>
	
		<rect x="372.3" y="702" transform="matrix(1 -1.627602e-03 1.627602e-03 1 -1.1457 0.6259)" class="st0" width="23.4" height="4.3"/>
	<path class="st0" d="M372.9,706.4c-3.1,0-5.6-2.5-5.6-5.6c0-1.5,0.6-2.9,1.6-4c1.1-1.1,2.5-1.6,4-1.6l0,4.3c-0.3,0-0.7,0.1-0.9,0.4
		c-0.2,0.2-0.4,0.6-0.4,0.9c0,0.7,0.6,1.3,1.3,1.3h0L372.9,706.4C372.9,706.4,372.9,706.4,372.9,706.4z"/>
</g>
<path class="st1" d="M419.5,425.9c-56.4,0-72.9-22.4-73.6-23.3l3.5-2.5c0.2,0.2,16.3,21.8,71,21.5l0,4.3
	C420.1,425.9,419.8,425.9,419.5,425.9z"/>
<rect x="372.7" y="383.6" class="st1" width="4.3" height="33.9"/>
<path class="st1" d="M415.5,495.5c-10.5,0-19-8.5-19-19s8.5-19,19-19c10.5,0,19,8.5,19,19S425.9,495.5,415.5,495.5z M415.5,461.8
	c-8.1,0-14.7,6.6-14.7,14.7c0,8.1,6.6,14.7,14.7,14.7c8.1,0,14.7-6.6,14.7-14.7C430.1,468.4,423.5,461.8,415.5,461.8z"/>
<rect x="526.1" y="473.9" transform="matrix(0.7397 -0.6729 0.6729 0.7397 -178.9474 489.4988)" class="st0" width="34.4" height="4.3"/>
<rect x="544.1" y="430.1" transform="matrix(0.8955 -0.445 0.445 0.8955 -157.6753 293.5412)" class="st0" width="4.3" height="104.9"/>
<rect x="184" y="358.3" transform="matrix(0.7249 -0.6888 0.6888 0.7249 -234.9223 242.5326)" class="st0" width="4.3" height="114.1"/>
<rect x="-39.1" y="97.6" transform="matrix(0.5944 -0.8042 0.8042 0.5944 -51.3745 97.6789)" class="st0" width="220.6" height="4.3"/>
<rect x="497.2" y="225.2" transform="matrix(0.2128 -0.9771 0.9771 0.2128 136.0716 695.1176)" class="st0" width="4.3" height="75.8"/>
<rect x="496.8" y="266.7" transform="matrix(0.512 -0.859 0.859 0.512 22.7466 577.7832)" class="st0" width="46.1" height="4.3"/>
<rect x="416.8" y="256" transform="matrix(0.5501 -0.8351 0.8351 0.5501 -3.6941 509.5467)" class="st0" width="108.5" height="4.3"/>
<path class="st1" d="M134.1,565.4l-3.8-2.1c0,0,2.9-5.4,0.5-10.1c-0.8-1.5-2.1-1.6-4.1-1.6c-0.2,0-0.4,0-0.6,0v-4.3
	c0.2,0,0.3,0,0.5,0c1.9,0,6-0.1,8.1,3.9C138.2,558,134.2,565.1,134.1,565.4z"/>
<path class="st1" d="M119.3,579.6l-14.5-20.9l0.5-1.1c0-0.1,2.2-5.3,2.4-11.7c0.2-4.9,3.8-7.4,7.1-7.3c4.9,0.1,7.1,4.9,7.1,9.2h-4.3
	c0-2.9-1.1-4.9-2.9-4.9c0,0,0,0,0,0c-1.3,0-2.6,1.1-2.7,3.2c-0.2,5.4-1.6,10-2.3,12.1l13.2,19L119.3,579.6z"/>
<path class="st1" d="M123.5,553.6c-3.4,0-6.1-2.7-6.1-6.1h4.3c0,1,0.8,1.8,1.8,1.8c1.1,0,2.4-0.9,2.4-1.8h4.3
	C130.2,551,126.7,553.6,123.5,553.6z"/>
<path class="st0" d="M118.8,758v-4.3c15.1,0,27.3-12.3,27.3-27.3c0-15.1-12.3-27.3-27.3-27.3v-4.3c17.5,0,31.7,14.2,31.7,31.7
	C150.5,743.8,136.3,758,118.8,758z"/>
<path class="st0" d="M117.4,766.1v-4.3c19.8,0,35.8-16.1,35.8-35.8c0-17.1-12.1-31.9-28.9-35.2l-1.8-0.2c-12.7-0.1-23-10.4-23-23.1
	c0-12.8,10.4-23.1,23.1-23.1v4.3c-10.4,0-18.8,8.4-18.8,18.8c0,10.4,8.4,18.8,18.8,18.8l0.2,0l2.2,0.2c18.8,3.6,32.5,20.2,32.5,39.4
	C157.6,748.1,139.6,766.1,117.4,766.1z"/>
<polygon class="st3" points="154.3,612.3 151.1,616.2 150.4,621 154.3,624.9 157.6,617.4 155.8,596.4 154,591.1 150.5,593.1 "/>
<path class="st0" d="M122.6,640v-4.3c15.1,0,27.3-12.3,27.3-27.3c0-15.1-12.3-27.3-27.3-27.3v-4.3c17.5,0,31.7,14.2,31.7,31.7
	C154.3,625.7,140.1,640,122.6,640z"/>
<path class="st0" d="M120.8,648.7v-4.3c19.8,0,35.8-16.1,35.8-35.8c0-17.1-12.2-31.9-29-35.2l0.8-4.3c18.8,3.6,32.5,20.2,32.5,39.4
	C161,630.7,142.9,648.7,120.8,648.7z"/>
<path class="st1" d="M92.3,591.1c-25.8,0-46.9-21-46.9-46.9c0-25.8,21-46.9,46.9-46.9c1.7,0,3.4,0.1,5.1,0.3l-0.5,4.3
	c-1.5-0.2-3.1-0.3-4.6-0.3c-23.5,0-42.5,19.1-42.5,42.5c0,23.5,19.1,42.5,42.5,42.5c16.2,0,30.7-9,38-23.4l3.9,2
	C126.1,581.2,110.1,591.1,92.3,591.1z"/>
<circle class="st0" cx="93.4" cy="470.5" r="15.6"/>
<path class="st1" d="M120.2,516.1c-12.6,0-22.8-10.2-22.8-22.8c0-12.6,10.2-22.8,22.8-22.8s22.8,10.2,22.8,22.8
	C142.9,505.9,132.7,516.1,120.2,516.1z M120.2,474.9c-10.2,0-18.4,8.3-18.4,18.4c0,10.2,8.3,18.4,18.4,18.4s18.4-8.3,18.4-18.4
	C138.6,483.1,130.3,474.9,120.2,474.9z"/>
<path class="st1" d="M560.2,709.1c-5.6,0-10.9-2.1-15-5.9l3-3.2c3.3,3,7.5,4.7,12,4.7c9.7,0,17.7-7.9,17.7-17.7h4.4
	C582.3,699.2,572.4,709.1,560.2,709.1z"/>
</svg>
