<?xml version="1.0" encoding="utf-8"?>
<!-- Generator: Adobe Illustrator 22.1.0, SVG Export Plug-In . SVG Version: 6.00 Build 0)  -->
<svg version="1.1" id="Layer_1" xmlns="http://www.w3.org/2000/svg" xmlns:xlink="http://www.w3.org/1999/xlink" x="0px" y="0px"
	 viewBox="0 0 213.1 250.6" style="enable-background:new 0 0 213.1 250.6;" xml:space="preserve">
<circle class="st70" cx="109.9" cy="224.9" r="12.2"/>
<rect x="34.1" y="246.1" class="st71" width="135.6" height="1.3"/>
<path class="st71" d="M102.6,247.4c-8.5,0-15.4-6.9-15.4-15.4c0-8.5,6.9-15.4,15.4-15.4S118,223.5,118,232
	C118,240.5,111.1,247.4,102.6,247.4z M102.6,217.9c-7.8,0-14.1,6.3-14.1,14.1c0,7.8,6.3,14.1,14.1,14.1c7.8,0,14.1-6.3,14.1-14.1
	C116.7,224.2,110.4,217.9,102.6,217.9z"/>
<path class="st71" d="M52.5,186.1l-1.1-0.7c4.6-7.4,10.8-13,16.9-15.4c0.2-0.1,0.7-0.4,0.8-0.8c0.1-0.3,0-0.6-0.3-0.9
	c-0.4-0.6-1.1-0.5-2.4-0.2c0,0-4.5,1.2-9.7,6.1l-0.9-0.9c5.5-5.2,10.2-6.4,10.2-6.4c1.3-0.3,2.8-0.7,3.8,0.6c0.6,0.8,0.6,1.6,0.5,2
	c-0.3,1.1-1.4,1.6-1.5,1.6l0,0C62.9,173.5,57,178.9,52.5,186.1z"/>
<path class="st71" d="M50.1,180.8L50.1,180.8c-0.6,0-1.2-0.2-1.7-0.6c-0.5-0.4-0.9-1.1-0.9-1.7c-0.1-0.7,0.1-1.4,0.6-1.9l4.8-5.7
	c0.5-0.6,1.2-0.9,1.9-0.9c0.6,0,1.2,0.2,1.7,0.6c1.1,0.9,1.3,2.5,0.4,3.6l-4.8,5.7C51.5,180.4,50.8,180.8,50.1,180.8z M54.7,171.3
	c-0.4,0-0.7,0.2-0.9,0.4l-4.8,5.7c-0.2,0.2-0.3,0.6-0.3,0.9c0,0.3,0.2,0.7,0.5,0.9c0.3,0.2,0.6,0.3,0.9,0.3c0.4,0,0.7-0.2,0.9-0.4
	l4.8-5.7c0.4-0.5,0.3-1.3-0.2-1.8C55.3,171.4,55,171.3,54.7,171.3z"/>
<path class="st71" d="M47.4,177.6L47.4,177.6c-0.6,0-1.1-0.2-1.6-0.6c-1-0.9-1.1-2.4-0.3-3.4l4.5-5.3c0.5-0.5,1.1-0.9,1.8-0.9
	c0.6,0,1.1,0.2,1.6,0.6c0.5,0.4,0.8,1,0.8,1.6c0.1,0.6-0.1,1.3-0.6,1.8l-4.5,5.3C48.8,177.3,48.1,177.6,47.4,177.6z M51.9,168.7
	c-0.3,0-0.6,0.1-0.9,0.4l-4.5,5.3c-0.4,0.5-0.3,1.2,0.1,1.6c0.2,0.2,0.5,0.3,0.7,0.3h0c0.3,0,0.6-0.1,0.9-0.4l4.5-5.3
	c0.2-0.2,0.3-0.5,0.3-0.8c0-0.3-0.2-0.6-0.4-0.8C52.4,168.8,52.2,168.7,51.9,168.7z"/>
<path class="st71" d="M45.1,174.7L45.1,174.7c-0.5,0-1.1-0.2-1.5-0.5c-0.5-0.4-0.7-0.9-0.8-1.6c-0.1-0.6,0.1-1.2,0.5-1.7l4.2-4.9
	c0.4-0.5,1.1-0.8,1.7-0.8c0.5,0,1.1,0.2,1.5,0.5c1,0.8,1.1,2.3,0.3,3.2l-4.2,4.9C46.4,174.4,45.7,174.7,45.1,174.7z M49.2,166.5
	c-0.3,0-0.6,0.1-0.8,0.4l-4.2,4.9c-0.2,0.2-0.3,0.5-0.2,0.7c0,0.3,0.1,0.5,0.3,0.7c0.2,0.2,0.4,0.2,0.6,0.2c0.3,0,0.6-0.1,0.8-0.4
	l4.2-4.9c0.4-0.4,0.3-1-0.1-1.4C49.7,166.5,49.5,166.5,49.2,166.5z"/>
<path class="st71" d="M48.9,195.2l-1.3-0.3c0.6-2.7,1.9-4.7,4-6c2.8-1.7,6-1.5,7.5-1.1c0.1,0,0.2,0,0.3,0.1c1.4,0.4,1.9,0.4,2.1-0.5
	c0.1-0.3,0.1-0.6,0-0.9c-0.3-0.5-1-0.9-1.6-1.1c-4.9-1.6-7.4,0.8-7.5,0.9l-0.9-0.9c0.1-0.1,3.2-3.1,8.9-1.2c0.5,0.2,1.8,0.7,2.3,1.8
	c0.3,0.6,0.3,1.2,0.1,1.9c-0.7,2.1-2.7,1.6-3.7,1.3c-0.1,0-0.2,0-0.3-0.1c-1.2-0.3-4.1-0.5-6.5,1C50.6,191,49.4,192.8,48.9,195.2z"
	/>
<path class="st71" d="M56.3,247.3c-7.4-4.5-13.7-10.9-18-18.4c-4.5-7.8-6.8-16.6-6.8-25.7c0-7.2,1.5-14.3,4.4-20.8
	c2.8-6.4,6.8-12,11.9-16.8l0.9,0.9c-5,4.7-8.9,10.2-11.6,16.3c-2.8,6.4-4.3,13.2-4.3,20.3c0,8.8,2.3,17.4,6.7,25
	c4.2,7.4,10.3,13.6,17.5,18L56.3,247.3z"/>
<path class="st71" d="M83,239.5c-20,0-36.3-16.3-36.3-36.3c0-3.4,0.5-6.8,1.4-10.1l1.2,0.4c-0.9,3.1-1.4,6.4-1.4,9.7
	c0,19.3,15.7,35,35,35c2.1,0,4.2-0.2,6.2-0.6l0.2,1.3C87.4,239.4,85.2,239.5,83,239.5z"/>
<path class="st71" d="M153.4,186.1c-4.5-7.2-10.4-12.6-16.3-14.9l0,0c-0.1-0.1-1.2-0.6-1.5-1.6c-0.1-0.4-0.1-1.2,0.5-2
	c1-1.3,2.5-1,3.8-0.6c0,0,4.8,1.2,10.2,6.4l-0.9,0.9c-5.1-4.8-9.6-6.1-9.7-6.1c-1.3-0.3-2-0.4-2.4,0.2c-0.3,0.3-0.4,0.7-0.3,0.9
	c0.1,0.4,0.6,0.7,0.8,0.8c6.1,2.4,12.3,8,16.9,15.4L153.4,186.1z"/>
<path class="st71" d="M155.9,180.8c-0.7,0-1.4-0.3-1.9-0.9l-4.8-5.7c-0.9-1.1-0.7-2.7,0.4-3.6c0.5-0.4,1.1-0.6,1.7-0.6
	c0.7,0,1.4,0.3,1.9,0.9l4.8,5.7c0.4,0.5,0.6,1.2,0.6,1.9c-0.1,0.7-0.4,1.3-0.9,1.7C157.1,180.5,156.5,180.8,155.9,180.8z
	 M151.2,171.3c-0.3,0-0.6,0.1-0.9,0.3c-0.6,0.5-0.7,1.3-0.2,1.8l4.8,5.7c0.2,0.3,0.6,0.4,0.9,0.4c0.3,0,0.6-0.1,0.9-0.3
	c0.3-0.2,0.4-0.6,0.5-0.9c0-0.3-0.1-0.7-0.3-0.9l-4.8-5.7C151.9,171.4,151.6,171.3,151.2,171.3z"/>
<path class="st71" d="M158.5,177.6c-0.7,0-1.4-0.3-1.8-0.9l-4.5-5.3c-0.4-0.5-0.6-1.1-0.6-1.8c0.1-0.6,0.4-1.2,0.8-1.6
	c0.4-0.4,1-0.6,1.6-0.6c0.7,0,1.4,0.3,1.8,0.9l4.5,5.3c0.9,1,0.7,2.5-0.3,3.4C159.6,177.4,159.1,177.6,158.5,177.6z M154,168.7
	c-0.3,0-0.5,0.1-0.7,0.3c-0.2,0.2-0.4,0.5-0.4,0.8c0,0.3,0.1,0.6,0.3,0.8l4.5,5.3c0.2,0.3,0.5,0.4,0.9,0.4c0.3,0,0.5-0.1,0.7-0.3
	c0.5-0.4,0.5-1.1,0.1-1.6l-4.5-5.3C154.7,168.9,154.3,168.7,154,168.7z"/>
<path class="st71" d="M160.8,174.7c-0.7,0-1.3-0.3-1.7-0.8l-4.2-4.9c-0.8-1-0.7-2.4,0.3-3.2c0.4-0.3,0.9-0.5,1.5-0.5
	c0.7,0,1.3,0.3,1.7,0.8l4.2,4.9c0.4,0.5,0.6,1.1,0.5,1.7c-0.1,0.6-0.3,1.2-0.8,1.6C161.9,174.5,161.4,174.7,160.8,174.7z
	 M156.7,166.5c-0.2,0-0.5,0.1-0.6,0.2c-0.4,0.4-0.5,1-0.1,1.4l4.2,4.9c0.2,0.2,0.5,0.4,0.8,0.4c0.2,0,0.5-0.1,0.6-0.2
	c0.2-0.2,0.3-0.4,0.3-0.7c0-0.3-0.1-0.5-0.2-0.7l-4.2-4.9C157.2,166.6,156.9,166.5,156.7,166.5z"/>
<path class="st71" d="M157,195.2c-0.5-2.4-1.6-4.1-3.4-5.2c-2.4-1.5-5.3-1.3-6.5-1c-0.1,0-0.2,0-0.3,0.1c-1,0.3-3,0.8-3.7-1.3
	c-0.2-0.6-0.2-1.3,0.1-1.9c0.5-1.1,1.8-1.6,2.3-1.8c5.6-1.9,8.7,1.1,8.9,1.2l-0.9,0.9l0.5-0.5l-0.4,0.5c-0.1-0.1-2.7-2.5-7.5-0.9
	c-0.6,0.2-1.3,0.6-1.6,1.1c-0.1,0.3-0.1,0.5,0,0.9c0.3,0.8,0.8,0.8,2.1,0.5c0.1,0,0.2,0,0.3-0.1c1.5-0.4,4.7-0.6,7.5,1.1
	c2,1.3,3.4,3.3,4,6L157,195.2z"/>
<path class="st71" d="M149.6,247.3l-0.7-1.1c7.3-4.4,13.3-10.6,17.5-18c4.4-7.6,6.7-16.2,6.7-25c0-7.1-1.4-13.9-4.3-20.3
	c-2.7-6.2-6.6-11.7-11.6-16.3l0.9-0.9c5.1,4.8,9.1,10.4,11.9,16.8c2.9,6.6,4.4,13.6,4.4,20.8c0,9-2.4,17.9-6.8,25.7
	C163.3,236.4,157,242.8,149.6,247.3z"/>
<path class="st71" d="M122.9,239.5c-2.4,0-4.7-0.2-7-0.7l0.2-1.3c2.2,0.4,4.5,0.7,6.8,0.7c19.3,0,35-15.7,35-35
	c0-3.3-0.5-6.6-1.4-9.7l1.2-0.4c0.9,3.3,1.4,6.6,1.4,10.1C159.2,223.3,142.9,239.5,122.9,239.5z"/>
<path class="st70" d="M124.5,177.8l-0.9-0.9c6-5.9,9.3-13.7,9.3-22.1c0-17.1-13.9-30.9-30.9-30.9s-30.9,13.9-30.9,30.9
	c0,8,3,15.6,8.6,21.4l-0.9,0.9c-5.8-6-8.9-13.9-8.9-22.3c0-17.8,14.5-32.2,32.2-32.2s32.2,14.5,32.2,32.2
	C134.2,163.5,130.8,171.6,124.5,177.8z"/>
<path class="st70" d="M113.1,200.8H89.8l-0.1-0.6c0-0.1-1.5-12.1-13.7-26.4l1-0.8c11.1,13.1,13.5,24,13.9,26.6h20.9
	c0.2-4.3,2.8-10,7.6-16.9c3.7-5.4,7.5-9.6,7.6-9.7l1,0.9c-0.1,0.2-14.9,16.6-14.9,26.4V200.8z"/>
<path class="st70" d="M90.8,205L90.8,205c-1.4,0-2.6-1.2-2.6-2.7c0-0.7,0.3-1.4,0.8-1.9c0.5-0.5,1.2-0.8,1.9-0.8l21.1,0
	c1.4,0,2.6,1.2,2.6,2.7c0,1.5-1.2,2.7-2.6,2.7L90.8,205z M112,200.8l-21.1,0c-0.3,0-0.7,0.1-0.9,0.4c-0.3,0.3-0.4,0.6-0.4,1
	c0,0.8,0.6,1.4,1.3,1.4v0.6l0-0.6l21.1,0c0.7,0,1.3-0.6,1.3-1.4C113.3,201.4,112.7,200.8,112,200.8z"/>
<path class="st70" d="M92.8,209.2L92.8,209.2c-1.4,0-2.6-1.2-2.6-2.7c0-1.5,1.2-2.7,2.6-2.7l17.1,0c1.4,0,2.6,1.2,2.6,2.7
	c0,0.7-0.3,1.4-0.8,1.9c-0.5,0.5-1.2,0.8-1.9,0.8L92.8,209.2z M109.9,205l-17.1,0c-0.7,0-1.3,0.6-1.3,1.4c0,0.8,0.6,1.4,1.3,1.4
	l0,0.6l0-0.6l17.1,0c0.3,0,0.7-0.1,0.9-0.4c0.3-0.3,0.4-0.6,0.4-1C111.2,205.6,110.6,205,109.9,205z"/>
<text transform="matrix(1 0 0 1 78.9208 156.5763)" class="st70 st72 st73">6milions</text>
<text transform="matrix(1 0 0 1 97.6766 168.9483)" class="st70 st72 st73">€</text>
<rect x="42.7" y="24.4" transform="matrix(0.7975 -0.6033 0.6033 0.7975 -39.0795 42.2305)" class="st70" width="1.3" height="109.9"/>
<rect x="78" y="48.7" transform="matrix(0.9556 -0.2945 0.2945 0.9556 -21.0888 26.8523)" class="st70" width="1.3" height="69.5"/>
<rect x="104.8" y="78.7" transform="matrix(0.6032 -0.7976 0.7976 0.6032 9.238815e-02 158.8553)" class="st70" width="109.9" height="1.3"/>
<rect x="89.7" y="82.8" transform="matrix(0.2946 -0.9556 0.9556 0.2946 8.0752 177.8115)" class="st70" width="69.5" height="1.3"/>
<rect x="100.7" y="5.3" class="st70" width="1.3" height="106.7"/>
<path class="st71" d="M209.3,214.9c-8.8-6.3-16.6-14.5-23.1-24.2c-5.2-7.8-9.7-16.5-13.3-26.1c-6.1-16.2-7.5-29.3-7.5-29.4l1.3-0.1
	c0,0.1,1.4,13,7.4,29.1c3.5,9.4,7.9,18.1,13.1,25.8c6.5,9.6,14.1,17.6,22.8,23.8L209.3,214.9z"/>
<rect x="135.5" y="195.5" transform="matrix(0.5155 -0.8569 0.8569 0.5155 -111.1622 216.82)" class="st71" width="1.3" height="22.4"/>
<rect x="40.6" y="123.2" transform="matrix(0.7383 -0.6745 0.6745 0.7383 -80.2154 63.1299)" class="st71" width="1.3" height="23.6"/>
<path class="st71" d="M4.1,244.2l-0.2-1.3c13.2-2.4,22.9-8.4,28.6-13.1c6.2-5.1,9.4-9.7,9.4-9.7l1.1,0.7c-0.1,0.2-3.3,4.8-9.6,10
	C27.5,235.5,17.6,241.7,4.1,244.2z"/>
<rect x="178.1" y="212.2" transform="matrix(0.3076 -0.9515 0.9515 0.3076 -64.4741 337.1427)" class="st71" width="42.7" height="1.3"/>
</svg>
