<?xml version="1.0" encoding="utf-8"?>
<!-- Generator: Adobe Illustrator 22.1.0, SVG Export Plug-In . SVG Version: 6.00 Build 0)  -->
<svg version="1.1" id="Layer_1" xmlns="http://www.w3.org/2000/svg" xmlns:xlink="http://www.w3.org/1999/xlink" x="0px" y="0px"
	 viewBox="0 0 252.4 281.1" style="enable-background:new 0 0 252.4 281.1;" xml:space="preserve">
<rect x="55.7" y="275.5" class="st80" width="141.5" height="1.3"/>
<rect x="31.5" y="91.4" class="st81" width="6.7" height="12.4"/>
<rect x="63" y="19.7" class="st81" width="6.7" height="84.1"/>
<text transform="matrix(1 0 0 1 24.443 121.6621)" class="st81 st82 st83">2014</text>
<text transform="matrix(1 0 0 1 55.5406 121.5254)" class="st81 st82 st83">2018</text>
<rect x="85.1" y="144.2" class="st81" width="14.1" height="1.1"/>
<rect y="131.2" class="st84" width="76.4" height="48.8"/>
<text transform="matrix(1 0 0 1 33.1334 137.083)"><tspan x="0" y="0" class="st81 st82 st85">100 milions</tspan><tspan x="-27.4" y="9.8" class="st81 st82 st85">d’euros </tspan><tspan x="2.8" y="9.8" class="st81 st86 st85">adjudicats</tspan><tspan x="-19.8" y="19.6" class="st81 st82 st85">en 2018 front als </tspan><tspan x="-29.2" y="29.5" class="st81 st82 st85">15 milions en 2014.</tspan><tspan x="43.3" y="29.5" class="st81 st82 st87"> </tspan></text>
<text transform="matrix(1 0 0 1 16.8502 85.8593)" class="st81 st86 st88">15M€</text>
<g>
	<circle class="st89" cx="59.7" cy="96.5" r="8"/>
	<path class="st81" d="M59.7,105.1c-4.7,0-8.6-3.8-8.6-8.6c0-4.7,3.8-8.6,8.6-8.6s8.6,3.8,8.6,8.6C68.3,101.3,64.4,105.1,59.7,105.1z
		 M59.7,89c-4.1,0-7.5,3.4-7.5,7.5c0,4.1,3.4,7.5,7.5,7.5s7.5-3.4,7.5-7.5C67.2,92.4,63.8,89,59.7,89z"/>
</g>
<path class="st81" d="M59.7,102.2c-3.1,0-5.7-2.5-5.7-5.7c0-3.1,2.5-5.7,5.7-5.7c3.1,0,5.7,2.5,5.7,5.7
	C65.4,99.7,62.8,102.2,59.7,102.2z M59.7,91.9c-2.5,0-4.6,2.1-4.6,4.6c0,2.5,2.1,4.6,4.6,4.6c2.5,0,4.6-2.1,4.6-4.6
	C64.3,94,62.2,91.9,59.7,91.9z"/>
<g>
	<path class="st81" d="M59.8,99.4c-0.7,0-1.2-0.2-1.6-0.6c-0.4-0.4-0.6-0.9-0.7-1.3h-0.6v-0.6h0.6c0-0.1,0-0.2,0-0.3
		c0-0.1,0-0.2,0-0.3h-0.6v-0.6h0.6c0.1-0.5,0.3-1,0.7-1.4c0.4-0.4,1-0.6,1.6-0.6c0.7,0,1.1,0.2,1.6,0.5L61,95
		c-0.4-0.3-0.7-0.4-1.2-0.4c-0.4,0-0.7,0.1-1,0.4c-0.2,0.2-0.3,0.5-0.3,0.7h2.2l-0.3,0.6h-2v0.6h1.8L60,97.4h-1.5
		c0.1,0.3,0.2,0.5,0.3,0.7c0.3,0.3,0.6,0.4,1,0.4c0.5,0,0.9-0.2,1.2-0.4l0.4,0.8C60.9,99.2,60.5,99.4,59.8,99.4z"/>
</g>
<rect x="34.3" y="106.8" class="st81" width="1.1" height="4.8"/>
<rect x="65.6" y="106.8" class="st81" width="1.1" height="4.8"/>
<path class="st80" d="M126.5,161.5c-10.2,0-18.6-8.3-18.6-18.6c0-10.2,8.3-18.6,18.6-18.6s18.6,8.3,18.6,18.6
	C145.1,153.2,136.8,161.5,126.5,161.5z M126.5,125.7c-9.5,0-17.3,7.8-17.3,17.3c0,9.5,7.8,17.3,17.3,17.3c9.5,0,17.3-7.8,17.3-17.3
	C143.8,133.4,136.1,125.7,126.5,125.7z"/>
<path class="st80" d="M126.5,156.3c-7.4,0-13.4-6-13.4-13.4c0-7.4,6-13.4,13.4-13.4c7.4,0,13.4,6,13.4,13.4
	C139.9,150.3,133.9,156.3,126.5,156.3z M126.5,130.9c-6.7,0-12.1,5.4-12.1,12.1c0,6.7,5.4,12.1,12.1,12.1s12.1-5.4,12.1-12.1
	C138.6,136.3,133.2,130.9,126.5,130.9z"/>
<text transform="matrix(1 0 0 1 115.5738 247.6103)" class="st81 st86 st810">395</text>
<path class="st80" d="M161.4,258.7c-5.1-2.5-4.8-6-4.5-9.4c0.2-2.5,0.5-5.1-1.4-7.6c-2.1-2.7-4.3-3-11-4c-0.9-0.1-1.9-0.3-3-0.4
	c-5.6-0.8-6-5.3-6-11.2h1.3c0,7.1,1.1,9.3,4.9,9.9c1.1,0.2,2.1,0.3,3,0.4c6.7,0.9,9.4,1.3,11.8,4.5c2.2,2.9,1.9,5.9,1.7,8.5
	c-0.3,3.4-0.5,6,3.7,8.2L161.4,258.7z"/>
<path class="st80" d="M74,276.4c-0.1-0.3-2.7-6.6,0.1-13c1.8-4.2,5.5-7.5,10.9-9.6c11.5-4.5,12-8.2,11.8-18.3
	c-0.2-10.5,6.9-15.4,13.7-16.6c4.7-0.8,9.8,0.1,14.1,2.4c4.8,2.6,8.2,6.7,9.9,11.9l-1.2,0.4c-2-6.2-6.1-9.5-9.3-11.2
	c-4-2.2-8.8-3-13.2-2.3c-6.2,1.1-12.9,5.6-12.7,15.3c0.1,4.9,0,8.9-1.7,12c-1.7,3-4.9,5.2-10.9,7.6c-5.1,2-8.6,5-10.2,8.9
	c-2.5,5.9-0.1,12,0,12L74,276.4z"/>
<path class="st80" d="M108.7,234c-1.1,0-2-0.9-2-2s0.9-2,2-2s2,0.9,2,2S109.8,234,108.7,234z M108.7,231.3c-0.4,0-0.7,0.3-0.7,0.7
	s0.3,0.7,0.7,0.7s0.7-0.3,0.7-0.7S109.1,231.3,108.7,231.3z"/>
<path class="st80" d="M104.4,230c-0.9,0-1.6-0.7-1.6-1.6s0.7-1.6,1.6-1.6c0.9,0,1.6,0.7,1.6,1.6S105.3,230,104.4,230z M104.4,228.1
	c-0.2,0-0.3,0.2-0.3,0.3c0,0.2,0.2,0.3,0.3,0.3c0.2,0,0.3-0.2,0.3-0.3C104.8,228.2,104.6,228.1,104.4,228.1z"/>
<path class="st80" d="M104.6,238.1c-1.1,0-2-0.9-2-2c0-1.1,0.9-2,2-2c1.1,0,2,0.9,2,2C106.6,237.2,105.7,238.1,104.6,238.1z
	 M104.6,235.4c-0.4,0-0.7,0.3-0.7,0.7c0,0.4,0.3,0.7,0.7,0.7c0.4,0,0.7-0.3,0.7-0.7C105.3,235.7,105,235.4,104.6,235.4z"/>
<path class="st80" d="M113.4,267.2c-0.9,0-1.6-0.7-1.6-1.6c0-0.9,0.7-1.6,1.6-1.6c0.9,0,1.6,0.7,1.6,1.6
	C115,266.5,114.3,267.2,113.4,267.2z M113.4,265.3c-0.2,0-0.3,0.2-0.3,0.3c0,0.2,0.2,0.3,0.3,0.3c0.2,0,0.3-0.2,0.3-0.3
	C113.7,265.4,113.5,265.3,113.4,265.3z"/>
<path class="st80" d="M124.4,271c-1.1,0-2-0.9-2-2c0-1.1,0.9-2,2-2s2,0.9,2,2C126.4,270.1,125.5,271,124.4,271z M124.4,268.3
	c-0.4,0-0.7,0.3-0.7,0.7c0,0.4,0.3,0.7,0.7,0.7s0.7-0.3,0.7-0.7C125.1,268.6,124.8,268.3,124.4,268.3z"/>
<path class="st80" d="M116,272.9c-1.3,0-2.3-1-2.3-2.3s1-2.3,2.3-2.3s2.3,1,2.3,2.3S117.3,272.9,116,272.9z M116,269.5
	c-0.6,0-1,0.5-1,1s0.5,1,1,1s1-0.5,1-1S116.6,269.5,116,269.5z"/>
<path class="st80" d="M185.5,276.3c0-0.1-2.6-5.1-6.1-10.1c-4.5-6.5-8.5-9.9-11.5-9.9c-3.8,0-8.3,3.4-13,9.9
	c-3.7,5-6.2,10.1-6.2,10.1l-1.2-0.6c0.4-0.8,10.4-20.8,20.4-20.8c8.1,0,18.3,19.9,18.8,20.8L185.5,276.3z"/>
<path class="st80" d="M162.8,267.3c-1,0-1.8-0.8-1.8-1.8c0-1,0.8-1.8,1.8-1.8s1.8,0.8,1.8,1.8C164.6,266.5,163.8,267.3,162.8,267.3z
	 M162.8,265c-0.3,0-0.5,0.2-0.5,0.5c0,0.3,0.2,0.5,0.5,0.5s0.5-0.2,0.5-0.5C163.3,265.2,163.1,265,162.8,265z"/>
<path class="st80" d="M167.9,272.8c-0.8,0-1.5-0.7-1.5-1.5s0.7-1.5,1.5-1.5c0.8,0,1.5,0.7,1.5,1.5S168.7,272.8,167.9,272.8z
	 M167.9,271.1c-0.1,0-0.2,0.1-0.2,0.2s0.1,0.2,0.2,0.2c0.1,0,0.2-0.1,0.2-0.2S168,271.1,167.9,271.1z"/>
<path class="st80" d="M157.3,274.2c-1,0-1.8-0.8-1.8-1.8c0-1,0.8-1.8,1.8-1.8c1,0,1.8,0.8,1.8,1.8C159,273.4,158.2,274.2,157.3,274.2
	z M157.3,272c-0.3,0-0.5,0.2-0.5,0.5c0,0.3,0.2,0.5,0.5,0.5c0.3,0,0.5-0.2,0.5-0.5C157.8,272.2,157.5,272,157.3,272z"/>
<path class="st80" d="M132.1,276.4l-1.1-0.6c0.1-0.1,1.3-2.3,3.5-4.8c2.9-3.3,6.1-5.3,9.2-5.9c3.2-0.6,6.4,0.3,9.4,2.8l-0.8,1
	c-2.7-2.2-5.5-3-8.3-2.5C137.1,267.6,132.1,276.3,132.1,276.4z"/>
<text transform="matrix(1 0 0 1 102.1725 257.8828)" class="st81 st86 st810">milions€</text>
<g>
	<path class="st80" d="M113.8,219.3c0-0.9,0-1.7,0.2-2.6l2.5-14.6l11,1.9l-0.2,1.3l-9.7-1.7l-2.3,13.3c-0.1,0.8-0.2,1.5-0.2,2.3
		L113.8,219.3z"/>
	<path class="st80" d="M132.3,229.9l-0.6-1.1c3.1-1.7,5.2-4.6,5.8-8l2.3-13.3l-9.5-1.6l0.2-1.3l10.8,1.8l-2.5,14.6
		C138.1,224.8,135.7,228.1,132.3,229.9z"/>
	<polygon class="st80" points="129.2,215.2 128,215 130.6,199.7 128.8,199.4 126.2,214.7 125,214.5 127.8,197.9 132,198.6 	"/>
	<path class="st80" d="M127.1,217c-0.1,0-0.2,0-0.4,0c-0.6-0.1-1.1-0.4-1.4-0.9c-0.3-0.5-0.5-1-0.4-1.6l1.3,0.2c0,0.2,0,0.5,0.1,0.7
		c0.1,0.2,0.3,0.3,0.6,0.4c0.5,0.1,0.9-0.2,1-0.7l1.3,0.2C129,216.3,128.1,217,127.1,217z"/>
	<path class="st80" d="M131.8,199.9l-4.3-0.7l5.5-32.2l4.3,0.7L131.8,199.9z M129.1,198.1l1.7,0.3l5-29.6l-1.7-0.3L129.1,198.1z"/>
</g>
<path class="st80" d="M136,171.9l0-1.3c3.4-0.1,6.4-2.4,7.3-5.7l-15.1-2.7c-0.3,3.4,1.7,6.7,5,8l-0.5,1.2c-4.1-1.5-6.5-5.7-5.7-10
	l0.1-0.6l17.7,3.2l-0.1,0.6C143.9,168.7,140.3,171.8,136,171.9z"/>
<path class="st80" d="M136.7,168.8l-0.3-1.2c0.8-0.2,1.5-0.7,1.8-1.4l-5.6-1c0.1,0.8,0.5,1.5,1.2,2l-0.7,1.1c-1.3-0.9-2-2.4-1.7-3.9
	l0.1-0.6l8.3,1.5l-0.1,0.6C139.4,167.2,138.3,168.4,136.7,168.8z"/>
<g>
	<path class="st80" d="M126.4,148.7c-2.6,0-5-1.6-5.8-4.2c-0.5-1.6-0.4-3.2,0.3-4.7s2-2.6,3.6-3.1c2-0.7,4.2-0.3,5.8,1.1l-0.8,1
		c-1.3-1.1-3-1.4-4.6-0.9c-1.2,0.4-2.2,1.3-2.8,2.4c-0.6,1.2-0.7,2.5-0.3,3.7c0.8,2.5,3.6,3.9,6.1,3.1c1.5-0.5,2.7-1.7,3.1-3.2
		l1.2,0.4c-0.6,1.9-2.1,3.4-3.9,4C127.7,148.6,127.1,148.7,126.4,148.7z"/>
	
		<rect x="119.1" y="142.4" transform="matrix(0.9494 -0.3141 0.3141 0.9494 -38.6871 45.9158)" class="st80" width="8.1" height="1.3"/>
	
		<rect x="119.6" y="144.1" transform="matrix(0.9494 -0.3141 0.3141 0.9494 -39.2507 45.9476)" class="st80" width="6.7" height="1.3"/>
</g>
<rect x="143.4" y="182.9" class="st81" width="14.1" height="1.1"/>
<g>
	<rect x="166.4" y="81.6" class="st81" width="6.3" height="5.9"/>
	<rect x="168.3" y="85.3" class="st89" width="2.4" height="2.7"/>
</g>
<g>
	<rect x="166.4" y="73.2" class="st81" width="6.3" height="5.9"/>
	<rect x="168.3" y="76.9" class="st89" width="2.4" height="2.7"/>
</g>
<g>
	<rect x="166.4" y="64.2" class="st81" width="6.3" height="5.9"/>
	<rect x="168.3" y="67.9" class="st89" width="2.4" height="2.7"/>
</g>
<g>
	<rect x="166.4" y="55.8" class="st81" width="6.3" height="5.9"/>
	<rect x="168.3" y="59.4" class="st89" width="2.4" height="2.7"/>
</g>
<g>
	<rect x="175.3" y="81.6" class="st81" width="6.3" height="5.9"/>
	<rect x="177.2" y="85.3" class="st89" width="2.4" height="2.7"/>
</g>
<g>
	<rect x="175.3" y="73.2" class="st81" width="6.3" height="5.9"/>
	<rect x="177.2" y="76.9" class="st89" width="2.4" height="2.7"/>
</g>
<g>
	<rect x="175.3" y="64.2" class="st81" width="6.3" height="5.9"/>
	<rect x="177.2" y="67.9" class="st89" width="2.4" height="2.7"/>
</g>
<g>
	<rect x="175.3" y="55.8" class="st81" width="6.3" height="5.9"/>
	<rect x="177.2" y="59.4" class="st89" width="2.4" height="2.7"/>
</g>
<g>
	<rect x="184.2" y="81.6" class="st81" width="6.3" height="5.9"/>
	<rect x="186.1" y="85.3" class="st89" width="2.4" height="2.7"/>
</g>
<g>
	<rect x="184.2" y="73.2" class="st81" width="6.3" height="5.9"/>
	<rect x="186.1" y="76.9" class="st89" width="2.4" height="2.7"/>
</g>
<g>
	<rect x="184.2" y="64.2" class="st81" width="6.3" height="5.9"/>
	<rect x="186.1" y="67.9" class="st89" width="2.4" height="2.7"/>
</g>
<g>
	<rect x="184.2" y="55.8" class="st81" width="6.3" height="5.9"/>
	<rect x="186.1" y="59.4" class="st89" width="2.4" height="2.7"/>
</g>
<g>
	<rect x="202" y="64.2" class="st81" width="6.3" height="5.9"/>
	<rect x="203.9" y="67.8" class="st89" width="2.4" height="2.7"/>
</g>
<g>
	<rect x="193.1" y="73.2" class="st81" width="6.3" height="5.9"/>
	<rect x="195" y="76.9" class="st89" width="2.4" height="2.7"/>
</g>
<g>
	<rect x="193.1" y="64.2" class="st81" width="6.3" height="5.9"/>
	<rect x="195" y="67.9" class="st89" width="2.4" height="2.7"/>
</g>
<g>
	<rect x="193.1" y="55.8" class="st81" width="6.3" height="5.9"/>
	<rect x="195" y="59.4" class="st89" width="2.4" height="2.7"/>
</g>
<g>
	<rect x="202" y="73.3" class="st81" width="6.3" height="5.9"/>
	<rect x="203.9" y="77" class="st89" width="2.4" height="2.7"/>
</g>
<g>
	<rect x="202" y="55.8" class="st81" width="6.3" height="5.9"/>
	<rect x="203.9" y="59.4" class="st89" width="2.4" height="2.7"/>
</g>
<circle class="st81" cx="193.8" cy="86.7" r="0.7"/>
<circle class="st81" cx="196.8" cy="86.7" r="0.7"/>
<circle class="st81" cx="200" cy="86.7" r="0.7"/>
<rect x="166.3" y="195.5" class="st84" width="83.2" height="52"/>
<text transform="matrix(1 0 0 1 166.2506 201.4189)"><tspan x="0" y="0" class="st81 st82 st85">Iniciem la construcció</tspan><tspan x="0" y="9.8" class="st81 st82 st85">de 52 nous </tspan><tspan x="42.6" y="9.8" class="st81 st86 st85">centres </tspan><tspan x="0" y="19.6" class="st81 st86 st85">educatius </tspan><tspan x="39.7" y="19.6" class="st81 st82 st85">i en </tspan><tspan x="0" y="29.5" class="st81 st82 st85">millorem les </tspan><tspan x="0" y="39.3" class="st81 st82 st85">condicions de 172.</tspan></text>
<text transform="matrix(1 0 0 1 165.7506 106.084)" class="st81 st86 st88">52</text>
<rect x="166.1" y="145.3" transform="matrix(0.8564 -0.5164 0.5164 0.8564 -50.1368 113.7164)" class="st81" width="26.5" height="3.4"/>
<rect x="202.9" y="137" transform="matrix(0.3294 -0.9442 0.9442 0.3294 3.8872 286.2752)" class="st81" width="1.1" height="6.8"/>
<rect x="199.4" y="132.2" transform="matrix(0.8563 -0.5164 0.5164 0.8563 -39.4178 123.8648)" class="st81" width="6.9" height="1.1"/>
<rect x="196.4" y="142.2" transform="matrix(0.9784 -0.2069 0.2069 0.9784 -25.7693 43.8891)" class="st81" width="1.1" height="6"/>
<rect x="193" y="128.1" transform="matrix(0.1492 -0.9888 0.9888 0.1492 39.8762 303.6439)" class="st81" width="6.8" height="1.1"/>
<rect x="188.6" y="129.2" transform="matrix(0.6396 -0.7687 0.7687 0.6396 -33.4485 193.0532)" class="st81" width="1.1" height="6"/>
<path class="st81" d="M191.2,141.6c-0.2,0-0.4-0.1-0.5-0.3l-1.1-1.8c-0.1-0.1-0.1-0.3-0.1-0.4c0-0.1,0.1-0.3,0.2-0.3l6.4-3.9
	c0.1-0.1,0.3-0.1,0.4-0.1c0.1,0,0.3,0.1,0.3,0.2l1.1,1.8c0.2,0.3,0.1,0.6-0.2,0.7l-6.4,3.9C191.4,141.6,191.3,141.6,191.2,141.6z
	 M190.9,139.4l0.6,0.9l5.5-3.3l-0.6-0.9L190.9,139.4z"/>
<g>
	<rect x="202.1" y="143" class="st81" width="13.5" height="12.6"/>
	<rect x="206.3" y="150.8" class="st89" width="5.1" height="5.7"/>
</g>
<text transform="matrix(1 0 0 1 163.9205 173.5527)" class="st81 st86 st88">172</text>
<text transform="matrix(1 0 0 1 166.3551 186.0107)" class="st81 st86 st88">millorats</text>
<text transform="matrix(1 0 0 1 166.0641 117.1191)" class="st81 st86 st88">nous</text>
<rect x="211.5" y="145.7" class="st89" width="2.3" height="1.9"/>
<rect x="207.6" y="145.7" class="st89" width="2.3" height="1.9"/>
<rect x="204" y="145.7" class="st89" width="2.3" height="1.9"/>
<path class="st80" d="M23.1,251.7l-0.6-1.2c0.1,0,9.9-4.8,21-13.1c10.2-7.7,23.5-20.2,29.2-35.9l1.2,0.4c-2.6,7.1-6.9,14.1-12.7,20.9
	c-4.7,5.4-10.4,10.7-17,15.6C33.1,246.9,23.2,251.6,23.1,251.7z"/>
<rect x="209.4" y="250.9" transform="matrix(0.2661 -0.9639 0.9639 0.2661 -100.8695 396.7032)" class="st80" width="1.3" height="27.4"/>
<rect x="20.8" y="246.8" transform="matrix(0.2088 -0.9779 0.9779 0.2088 -210.1337 235.0565)" class="st80" width="38.7" height="1.3"/>
<rect x="67" y="250.6" class="st811" width="16" height="12.7"/>
<rect x="83" y="250.6" class="st811" width="12.2" height="12.7"/>
<rect x="69.2" y="252.7" class="st811" width="2.6" height="2.9"/>
<rect x="73.7" y="252.7" class="st811" width="2.6" height="2.9"/>
<rect x="78.1" y="252.7" class="st811" width="2.6" height="2.9"/>
<rect x="69.2" y="257.9" class="st811" width="2.6" height="2.9"/>
<rect x="73.7" y="257.9" class="st811" width="2.6" height="2.9"/>
<rect x="78.1" y="257.9" class="st811" width="2.6" height="2.9"/>
<line class="st812" x1="83" y1="253.6" x2="95.1" y2="253.6"/>
<line class="st812" x1="83.3" y1="255.8" x2="95.4" y2="255.8"/>
<line class="st812" x1="82.9" y1="258.1" x2="95" y2="258.1"/>
<line class="st812" x1="83" y1="260.2" x2="95.1" y2="260.2"/>
<rect x="65.2" y="263.8" class="st89" width="19.6" height="11.6"/>
<rect x="86.2" y="263.2" class="st811" width="20.3" height="12.9"/>
<rect x="88.6" y="265.3" class="st811" width="3.5" height="3.1"/>
<rect x="94.5" y="265.3" class="st811" width="3.5" height="3.1"/>
<rect x="100.4" y="265.3" class="st811" width="3.5" height="3.1"/>
<rect x="88.6" y="270.9" class="st811" width="3.5" height="3.1"/>
<rect x="94.5" y="270.9" class="st811" width="3.5" height="3.1"/>
<rect x="100.4" y="270.9" class="st811" width="3.5" height="3.1"/>
<g>
	<rect x="58.8" y="263.4" class="st811" width="24.4" height="12.7"/>
	<line class="st812" x1="58.8" y1="266.6" x2="83.1" y2="266.6"/>
	<line class="st812" x1="59.4" y1="268.8" x2="83.8" y2="268.8"/>
	<line class="st812" x1="58.3" y1="270.9" x2="82.7" y2="270.9"/>
	<line class="st812" x1="58.8" y1="272.9" x2="83.1" y2="272.9"/>
</g>
<text transform="matrix(1 0 0 1 44.9267 14.3658)" class="st81 st86 st813">100M€</text>
</svg>
