<?xml version="1.0" encoding="utf-8"?>
<!-- Generator: Adobe Illustrator 22.1.0, SVG Export Plug-In . SVG Version: 6.00 Build 0)  -->
<svg version="1.1" id="Layer_1" xmlns="http://www.w3.org/2000/svg" xmlns:xlink="http://www.w3.org/1999/xlink" x="0px" y="0px"
	 viewBox="0 0 248.1 284.7" style="enable-background:new 0 0 248.1 284.7;" xml:space="preserve">
<path class="st40" d="M56.5,29.7h-9.8v-14h9.8V29.7z M48,28.4h7.3V16.9H48V28.4z"/>
<path class="st40" d="M58.5,34l-1.1-1.2c-3.3-3.6-10-3.2-10-3.2l-0.1-1.3c0.1,0,1.8-0.1,4.1,0.3c2.4,0.4,4.4,1.2,5.9,2.3V19.2
	l-1.5-0.4l0.3-1.2l2.4,0.6V34z"/>
<rect x="61.7" y="12" transform="matrix(0.8725 -0.4887 0.4887 0.8725 2.1467 33.5085)" class="st40" width="7.1" height="1.3"/>
<rect x="65.4" y="20.1" transform="matrix(0.2878 -0.9577 0.9577 0.2878 24.6599 79.8488)" class="st40" width="1.3" height="6.5"/>
<rect x="45.8" y="4.2" transform="matrix(0.9294 -0.3692 0.3692 0.9294 0.5623 17.6765)" class="st40" width="1.3" height="6.4"/>
<path class="st41" d="M102.6,213.8l-0.4-1.2c11.1-4.2,23.1-0.8,23.9-0.4l-0.6,1.1l0.3-0.5l-0.3,0.6
	C124.6,212.9,113.1,209.8,102.6,213.8z"/>
<path class="st41" d="M143.1,227.7c-1.6-4.1-4.3-7.7-7.8-10.4l0.8-1c3.7,2.9,6.5,6.7,8.2,11L143.1,227.7z"/>
<path class="st41" d="M130.8,260.6l-0.5-1.1c1.7-0.8,3.1-1.6,4.2-2.1l0.2-0.1l0.6,1.1l-0.2,0.1C134,259,132.5,259.8,130.8,260.6z"/>
<path class="st41" d="M112.2,265.4c-3.6,0-7-0.6-10.2-1.7l0.4-1.2c3.1,1.1,6.4,1.6,9.8,1.6c3.6,0,7.5-0.7,11.6-2l0.4,1.2
	C120,264.7,116,265.4,112.2,265.4z"/>
<path class="st41" d="M96.2,260.9c-7.7-4.9-12.1-12.9-12.1-22.1c0-5.8,1.8-11.4,5.1-16.1c3.2-4.6,7.7-8.1,13-10.1l0.5,1.2
	c-5,1.9-9.3,5.3-12.4,9.7c-3.2,4.5-4.8,9.8-4.8,15.4c0,8.7,4.2,16.4,11.5,21L96.2,260.9z"/>
<path class="st41" d="M135.3,258.3l-0.6-1.1c13.6-7.9,17-17.3,17.3-18.3c0-5.7-1.6-7.1-2-7.4c-2.9-0.1-5.6-1.8-6.9-4.5l1.1-0.5
	c1.1,2.3,3.4,3.8,5.9,3.8h0.1l0.1,0c0.3,0.1,2.9,1.3,2.9,8.7v0.1l0,0.1C153.1,239.7,150,249.9,135.3,258.3z"/>
<path class="st41" d="M134.4,233.4c-1.1,0-2.1-0.9-2.1-2.1s0.9-2.1,2.1-2.1s2.1,0.9,2.1,2.1S135.5,233.4,134.4,233.4z M134.4,230.5
	c-0.4,0-0.8,0.4-0.8,0.8c0,0.4,0.4,0.8,0.8,0.8s0.8-0.4,0.8-0.8C135.1,230.9,134.8,230.5,134.4,230.5z"/>
<path class="st41" d="M134.3,222.6l-1.2-0.4c0.1-0.2,1.9-5.6,5.5-10.4c-0.5-0.6-1.8-2-4.2-2c0,0,0,0,0,0c-4.2,0-7.7,2.8-10.5,5.6
	l-0.9-0.9c3-3,6.7-6,11.4-6c0,0,0,0,0,0c3.9,0,5.5,2.9,5.6,3l0.2,0.4l-0.2,0.3C136.2,217,134.3,222.6,134.3,222.6z"/>
<path class="st41" d="M131.2,271.5c-1.4,0-2.8-1.7-4.2-3.3l-0.1-0.1c-1.8-2.1-4-4.7-4.1-4.7l1-0.8c0,0,2.3,2.6,4.1,4.8l0.1,0.1
	c1,1.2,2.5,3,3.3,2.9c0.3,0,0.4-0.2,0.6-0.3c0.3-0.4,0.2-1,0.2-1.2l0,0l-1.2-8.9l1.2-0.2l1.2,8.9c0,0.2,0.2,1.3-0.3,2.1
	c-0.3,0.5-0.8,0.8-1.4,0.9C131.4,271.5,131.3,271.5,131.2,271.5z"/>
<path class="st41" d="M95.8,271.5c-0.1,0-0.2,0-0.3,0c-0.6-0.1-1.1-0.4-1.4-0.9c-0.6-0.8-0.4-1.9-0.3-2.1l1.2-8.9l1.2,0.2l-1.2,8.9
	c0,0.2-0.1,0.8,0.2,1.2c0.1,0.2,0.3,0.3,0.6,0.3c0.7,0.1,2.3-1.7,3.3-2.9l0.1-0.1c1.8-2.1,4-4.7,4.1-4.8l1,0.8c0,0-2.3,2.6-4.1,4.7
	l-0.1,0.1C98.6,269.8,97.2,271.5,95.8,271.5z"/>
<path class="st41" d="M105.2,271.5c-0.4,0-0.8-0.1-1.1-0.4c-0.5-0.5-0.6-1.3-0.6-1.5l-0.5-6l1.3-0.1l0.5,6c0,0.1,0.1,0.5,0.2,0.6
	c0,0,0.1,0.1,0.3,0.1c0.4,0,1.2-1.6,1.6-2.2l0,0c0.9-1.7,2-3.7,2-3.7l1.1,0.6c0,0-1.1,2-2,3.7l0,0
	C107.2,270.1,106.4,271.5,105.2,271.5C105.3,271.5,105.2,271.5,105.2,271.5z"/>
<path class="st41" d="M122.9,271.5C122.8,271.5,122.8,271.5,122.9,271.5c-1.2,0-1.9-1.5-2.7-2.9l0,0c-0.9-1.6-2-3.6-2-3.7l1.1-0.6
	c0,0,1.1,2,2,3.7l0,0c0.4,0.7,1.2,2.2,1.6,2.2c0.1,0,0.2,0,0.3-0.1c0.2-0.2,0.2-0.5,0.2-0.6l0,0l0.5-6l1.3,0.1l-0.5,6
	c0,0.2-0.1,1-0.6,1.5C123.7,271.4,123.3,271.5,122.9,271.5z"/>
<path class="st41" d="M76.3,241.4C76.3,241.4,76.3,241.4,76.3,241.4c-1.7,0-2.9-0.8-3.3-2.1c-0.4-1.3,0.3-2.6,1.6-3.5
	c0.8-0.5,2-0.8,3.5-1c-0.2-0.4-0.5-0.7-0.8-1c-0.9-0.9-3.1-2.1-6.5-0.4l-0.5-1.1c3-1.4,5.9-1.2,7.9,0.7c0.6,0.5,1,1.2,1.4,1.8
	c2,0,4,0.3,5.5,0.9l-0.5,1.2c-1.3-0.5-3-0.8-4.6-0.8c0.3,1.1,0.3,2.2-0.1,3.1C79.2,240.6,78,241.4,76.3,241.4z M78.6,236.1
	c-1.4,0.1-2.7,0.4-3.4,0.8c-0.9,0.6-1.3,1.4-1.1,2.1c0.2,0.7,1,1.2,2.1,1.2c0,0,0,0,0,0c1.2,0,2-0.5,2.4-1.4
	C78.9,237.9,78.9,237,78.6,236.1z"/>
<rect x="58.4" y="270.4" class="st41" width="117.1" height="1.3"/>
<g>
	<polygon class="st41" points="116,132.6 89,120.2 89.2,119.6 106.5,82.1 107.7,82.6 90.6,119.5 115.4,131 131.4,96.2 108.7,85.7 
		109.2,84.6 133.1,95.6 132.8,96.2 	"/>
	<path class="st41" d="M108.7,85.7c-0.8-0.4-1.4-1-1.7-1.9c-0.3-0.8-0.3-1.7,0.1-2.5c0.4-0.8,1-1.4,1.9-1.7c0.8-0.3,1.7-0.3,2.5,0.1
		l-0.5,1.1c-0.5-0.2-1.1-0.3-1.6-0.1c-0.5,0.2-0.9,0.6-1.2,1.1c-0.2,0.5-0.3,1.1-0.1,1.6c0.2,0.5,0.6,0.9,1.1,1.2L108.7,85.7z"/>
	<path class="st41" d="M116.2,132.1l-1.1-0.6c1.5-2.9,4.3-3.1,5.9-2.6l16.5-35.7l-26.6-12.3l0.5-1.1l27.8,12.8l-0.3,0.6l-17.2,37.3
		l-0.6-0.2C121,130.2,117.8,129,116.2,132.1z"/>
	<polygon class="st41" points="121.5,126.1 120.4,125.6 134.6,94.7 110.7,83.7 111.3,82.6 136.3,94.1 	"/>
</g>
<path class="st41" d="M122.7,211.9L122.7,211.9c-1.7-0.6-4.2-3.7-5.3-6.5c-0.7-2-0.8-3.7,0-4.9c1.1-1.8,0.5-3.2-0.1-4.4
	c-3.5-6.6-14.1-26.2-14.2-26.4l-0.3-0.6l4.9-2.4l0.3,0.6c0.1,0.2,9.3,20.2,12.9,26.7c1,1.8,2.4,2.7,4.3,2.7c0.3,0,0.7,0,1.1,0.2
	c2.8,0.9,6.2,5.2,5.1,10.7c-0.1,0.3-0.2,0.6-0.6,0.8c-0.2,0.1-0.5,0.2-0.8,0.1c-0.4-0.1-0.8-0.5-1.1-1.2l-2.3-4.5
	c-0.1-0.2-0.3-0.5-0.5-0.5c0,0-0.1,0-0.2,0c-0.2,0.1-0.3,0.2-0.3,0.4c0,0.3,0.2,0.5,0.2,0.7c0.1,0.2,0.1,0.2,0.4,0.9l2.5,4.9
	c0.8,1.5-0.2,2.2-0.6,2.4c-0.5,0.2-0.9,0.3-1.3,0.1c-0.5-0.2-0.9-0.6-1.3-1.3c-0.2-0.4-2.9-5.5-2.9-5.6l0-0.1l0-0.1
	c-0.1-0.2-0.2-0.6-0.4-0.6c-0.1,0-0.1,0-0.2,0c-0.3,0.1-0.3,0.2-0.3,0.2c0,0.1,0.1,0.3,0.2,0.4c0,0.1,0.1,0.1,0.1,0.2l2.4,4.8
	c0,0,0.2,0.3,0.2,0.7c0.1,0.6-0.1,1.2-0.7,1.4C123.5,212,123.1,212,122.7,211.9z M104.5,169.6c1.8,3.3,10.8,19.9,13.9,25.8
	c0.5,1,1.6,3,0.1,5.6c-0.7,1.1-0.3,2.7,0.1,3.8c1,2.7,3.3,5.4,4.5,5.7l0,0c0.1,0,0.2,0,0.2,0c0-0.1,0-0.3-0.1-0.5l-2.4-4.8
	c0,0,0-0.1-0.1-0.1c-0.2-0.3-0.5-0.8-0.3-1.4c0.1-0.4,0.4-0.7,0.9-1c0.5-0.2,0.9-0.2,1.2-0.1c0.8,0.3,1.1,1.1,1.2,1.4
	c0.3,0.6,2.7,5.2,2.9,5.6c0.2,0.5,0.4,0.6,0.5,0.6c0,0,0.1,0,0.4-0.1c0.2-0.1,0.3-0.2,0.1-0.7l-2.5-5c-0.3-0.7-0.3-0.7-0.4-0.9
	c-0.1-0.3-0.3-0.7-0.4-1.2c-0.1-0.7,0.3-1.3,0.9-1.6c0.4-0.2,0.8-0.2,1.2-0.1c0.8,0.3,1.2,1.1,1.2,1.2l2.2,4.5
	c0.1,0.1,0.1,0.3,0.2,0.3c0.8-4.8-2.3-8.3-4.3-9c-0.2-0.1-0.5-0.1-0.7-0.1c-0.7,0-1.4-0.1-2-0.3c-1.4-0.5-2.6-1.5-3.4-3
	c-3.2-5.8-11.1-22.8-12.6-26.2L104.5,169.6z"/>
<g>
	<text transform="matrix(1 0 0 1 92.72 244.5961)" class="st40 st42 st43">705€ </text>
</g>
<path class="st41" d="M105.6,215.8l-0.5-1.2c0.2-0.1,4.4-1.8,11.8-1.1l-0.1,1.3C109.7,214.1,105.6,215.8,105.6,215.8z"/>
<path class="st40" d="M16.2,32.3c-2.3,0-4.2-1.9-4.2-4.2c0-1.1,0.4-2.1,1.1-2.9L14,26c-0.5,0.6-0.8,1.3-0.8,2c0,1.6,1.3,3,3,3
	c0.9,0,1.7-0.4,2.2-1l0.9,0.8C18.6,31.8,17.4,32.3,16.2,32.3z"/>
<rect x="17.5" y="42.9" class="st40" width="1.3" height="19.5"/>
<path class="st40" d="M28.7,62.4h-5.1l0-3.4V39.9l0,0c0-0.2,0-0.8-0.2-1.1c-0.1-0.1-0.2-0.2-0.6-0.2c-0.3,0-0.5,0.1-0.6,0.2
	c-0.2,0.2-0.2,0.6-0.2,0.7l0,0.1v21.9h-1.3V39.6c0-0.2-0.1-1.1,0.5-1.7c0.3-0.3,0.7-0.6,1.6-0.6c0.8,0,1.3,0.3,1.5,0.6
	c0.6,0.7,0.6,1.8,0.5,2.1V59l0,2.1h3.8c1.1,0,1.1-0.5,1.1-0.8c0-0.6-0.7-0.7-0.9-0.7h-2.6l-0.1-16.8l1.3,0l0.1,15.6H29
	c0.9,0,2.1,0.5,2.1,2C31.1,61.7,30.2,62.4,28.7,62.4z"/>
<path class="st40" d="M19.5,30.5l-1.2-0.3c1.9-6.8-3.7-9.1-4-9.2l0.4-1.2c0.1,0,1.8,0.7,3.2,2.3C19.3,23.7,20.7,26.4,19.5,30.5z"/>
<path class="st40" d="M16.3,36.6c-4.7,0-8.6-3.8-8.6-8.6s3.8-8.6,8.6-8.6c0.3,0,0.6,0,0.9,0.1l-0.1,1.3c-0.3,0-0.5,0-0.8,0
	C12.2,20.7,9,24,9,28s3.3,7.3,7.3,7.3c2.8,0,5.3-1.5,6.5-4l1.1,0.6C22.4,34.8,19.5,36.6,16.3,36.6z"/>
<path class="st40" d="M20.8,34.5l-2.7-3.8l0.1-0.3c0,0,0.4-0.9,0.4-2c0-0.9,0.7-1.6,1.5-1.5c0.5,0,1.1,0.3,1.4,1c0.2,0,0.5-0.1,0.8,0
	c0.6,0.1,1.2,0.6,1.6,1.3c0.7,1.3-0.1,2.7-0.1,2.8l-1.1-0.6c0,0,0.5-0.8,0.1-1.5c-0.2-0.4-0.5-0.6-0.7-0.7c-0.3-0.1-0.7,0.1-0.7,0.1
	l-1,0.7v-1.2c0-0.4-0.1-0.6-0.3-0.6c0,0,0,0,0,0c-0.1,0-0.2,0.1-0.2,0.3c0,0.9-0.2,1.7-0.4,2.1l2.3,3.3L20.8,34.5z"/>
<path class="st40" d="M18,38.5c-1.5,0-2.9-1-3.3-2.5l1.2-0.3c0.3,0.9,1.1,1.6,2.1,1.6c0.4,0,0.7-0.1,1.1-0.3l0.6,1.1
	C19.1,38.3,18.5,38.5,18,38.5z"/>
<path class="st40" d="M27.6,26.2l-1.3-0.1c0.2-2.3-0.3-4-2-5.4l0.6-1.1C26.4,20.7,27.9,22.8,27.6,26.2z"/>
<path class="st40" d="M15.8,40.5H15c-2.2,0-4-1.8-4-4v-1.9h1.3v1.9c0,1.5,1.2,2.7,2.7,2.7h0.8V40.5z"/>
<rect x="21.4" y="33.5" class="st40" width="6.9" height="1.3"/>
<path class="st40" d="M28.2,34.8v-1.3c0.9,0,1.6-0.7,1.6-1.6c0-0.9-0.7-1.6-1.6-1.6v-1.3c1.6,0,2.9,1.3,2.9,2.9
	C31.1,33.5,29.8,34.8,28.2,34.8z"/>
<path class="st40" d="M28.2,30.3c-0.3,0-0.6-0.1-0.9-0.4c-0.8-0.8-0.9-2.8-0.9-3.2l1.3,0c0,1.2,0.3,2.3,0.6,2.4L28.2,30.3
	C28.2,30.3,28.2,30.3,28.2,30.3z"/>
<path class="st40" d="M21.7,23.3c-2.4,0-4.3-1.9-4.3-4.3s1.9-4.3,4.3-4.3S26,16.7,26,19S24.1,23.3,21.7,23.3z M21.7,16
	c-1.7,0-3,1.4-3,3c0,1.7,1.4,3,3,3c1.7,0,3-1.4,3-3C24.7,17.3,23.4,16,21.7,16z"/>
<circle class="st40" cx="170.3" cy="110.6" r="3.2"/>
<circle class="st40" cx="170.4" cy="120.1" r="3.2"/>
<circle class="st40" cx="170.2" cy="91.9" r="3.2"/>
<circle class="st40" cx="170.3" cy="101.4" r="3.2"/>
<circle class="st40" cx="202.1" cy="110.6" r="3.2"/>
<circle class="st40" cx="202.2" cy="120.1" r="3.2"/>
<circle class="st40" cx="201.9" cy="91.9" r="3.2"/>
<circle class="st40" cx="202.1" cy="101.4" r="3.2"/>
<circle class="st40" cx="201.8" cy="82.4" r="3.2"/>
<circle class="st40" cx="201.7" cy="63.7" r="3.2"/>
<circle class="st40" cx="201.8" cy="73.2" r="3.2"/>
<text transform="matrix(1 0 0 1 165.008 158.8244)" class="st40 st42 st44">45%</text>
<text transform="matrix(1 0 0 1 164.5686 141.97)" class="st40 st45 st46">PP</text>
<rect x="68.9" y="109.7" class="st40" width="17.3" height="1.3"/>
<text transform="matrix(1 0 0 1 184.5002 141.8371)" class="st40 st45 st46">Botànic</text>
<rect x="206.8" y="57.9" transform="matrix(0.8725 -0.4886 0.4886 0.8725 -1.9225 109.7334)" class="st40" width="5.1" height="1.3"/>
<rect x="209.2" y="63.9" transform="matrix(0.2878 -0.9577 0.9577 0.2878 86.0683 248.1103)" class="st40" width="1.3" height="4.6"/>
<rect x="198.3" y="54" transform="matrix(0.9293 -0.3692 0.3692 0.9293 -6.7222 77.4034)" class="st40" width="1.3" height="4.5"/>
<rect x="192.1" y="63" transform="matrix(0.9997 -2.539071e-02 2.539071e-02 0.9997 -1.5527 4.9505)" class="st40" width="4.1" height="1.3"/>
<rect x="193.5" y="68.9" transform="matrix(0.5003 -0.8658 0.8658 0.5003 35.3536 203.7091)" class="st40" width="1.3" height="4.7"/>
<rect x="206.9" y="79.5" transform="matrix(0.9324 -0.3614 0.3614 0.9324 -14.7977 81.0554)" class="st40" width="4.8" height="1.3"/>
<rect x="209.2" y="84.3" transform="matrix(0.4481 -0.894 0.894 0.4481 38.7467 235.1884)" class="st40" width="1.3" height="3.8"/>
<rect x="194" y="78" transform="matrix(0.2023 -0.9793 0.9793 0.2023 76.8474 254.5265)" class="st40" width="1.3" height="4.3"/>
<rect x="192.9" y="85.6" transform="matrix(0.9028 -0.4301 0.4301 0.9028 -18.1564 92.0983)" class="st40" width="3.4" height="1.3"/>
<rect x="144.1" y="184.3" class="st40" width="12.9" height="1.3"/>
<text transform="matrix(1 0 0 1 12.1995 80.1064)" class="st40 st42 st44">424.636</text>
<path class="st40" d="M22.2,62.4h-4.7l0-0.6c0-0.2-0.1-1.9,0.8-2.9c0.4-0.4,1-0.7,1.6-0.7c0.6,0,1.2,0.2,1.6,0.7
	c0.9,1,0.8,2.7,0.8,2.9L22.2,62.4z M18.7,61.2H21c0-0.5-0.1-1.1-0.4-1.4c-0.2-0.2-0.4-0.3-0.6-0.3c-0.3,0-0.5,0.1-0.7,0.3
	C18.9,60.1,18.8,60.7,18.7,61.2z"/>
<rect x="207" y="72.6" transform="matrix(0.989 -0.1478 0.1478 0.989 -8.5226 31.7411)" class="st40" width="4.6" height="1.3"/>
<rect x="165" y="166.1" class="st47" width="73.7" height="51.8"/>
<text transform="matrix(1 0 0 1 165.008 172.0569)"><tspan x="0" y="0" class="st40 st45 st48">més d’alumnat </tspan><tspan x="0" y="9.8" class="st40 st45 st48">s’ha vist beneficiat </tspan><tspan x="0" y="19.6" class="st40 st45 st48">de </tspan><tspan x="11.3" y="19.6" class="st40 st42 st48">beques de </tspan><tspan x="0" y="29.5" class="st40 st42 st48">menjador</tspan><tspan x="36.5" y="29.5" class="st40 st45 st48"> amb el </tspan><tspan x="0" y="39.3" class="st40 st45 st48">govern del Botànic. </tspan></text>
<rect x="-5.7" y="87" class="st47" width="68" height="30"/>
<text transform="matrix(1 0 0 1 29.802 92.8798)"><tspan x="0" y="0" class="st40 st45 st48">alumnes</tspan><tspan x="-29.2" y="9.8" class="st40 st45 st48">es beneficien de </tspan><tspan x="-19.5" y="19.6" class="st40 st42 st48">Xarxa Llibres.</tspan></text>
<rect x="25.8" y="20.3" class="st40" width="21.5" height="1.3"/>
<rect x="27.1" y="23.9" class="st40" width="20.2" height="1.3"/>
<g>
	<text transform="matrix(1 0 0 1 165.0071 223.1311)"><tspan x="0" y="0" class="st40 st42 st48">(40.000 beques més)</tspan><tspan x="78.6" y="0" class="st40 st45 st48"> </tspan></text>
</g>
<rect x="195.6" y="254.3" transform="matrix(0.446 -0.895 0.895 0.446 -131.9192 324.5769)" class="st41" width="1.3" height="29"/>
<rect x="37.6" y="230.7" transform="matrix(0.8342 -0.5515 0.5515 0.8342 -126.8603 61.1285)" class="st41" width="1.3" height="21.6"/>
<path class="st41" d="M39.5,204c14.9-10.8,23.5-21.5,28.1-28.5c5-7.6,6.5-12.7,6.5-12.9l-1.2-0.3l0.6,0.2l-0.6-0.2
	c0,0.1-1.5,5.1-6.4,12.6c-4.6,6.9-13.1,17.4-27.8,28.1L39.5,204z"/>
<rect x="60.8" y="171.3" transform="matrix(0.3155 -0.9489 0.9489 0.3155 -128.8073 181.5505)" class="st41" width="1.3" height="17.5"/>
<path class="st40" d="M48.1,24.9c-1.2,0-2.2-1-2.2-2.2s1-2.2,2.2-2.2s2.2,1,2.2,2.2S49.3,24.9,48.1,24.9z M48.1,21.7
	c-0.5,0-1,0.4-1,1s0.4,1,1,1s1-0.4,1-1S48.6,21.7,48.1,21.7z"/>
<circle class="st49" cx="48" cy="22.5" r="1.5"/>
<path class="st40" d="M48,24.9c-1.2,0-2.2-1-2.2-2.2s1-2.2,2.2-2.2c1.2,0,2.2,1,2.2,2.2S49.2,24.9,48,24.9z M48,21.7
	c-0.5,0-1,0.4-1,1s0.4,1,1,1c0.5,0,1-0.4,1-1S48.5,21.7,48,21.7z"/>
<g>
	<path class="st410" d="M114.9,168.9c-10.2,0-18.6-8.3-18.6-18.6c0-10.2,8.3-18.6,18.6-18.6s18.6,8.3,18.6,18.6
		C133.5,160.6,125.1,168.9,114.9,168.9z M114.9,133.1c-9.5,0-17.3,7.8-17.3,17.3c0,9.5,7.8,17.3,17.3,17.3c9.5,0,17.3-7.8,17.3-17.3
		C132.2,140.8,124.4,133.1,114.9,133.1z"/>
	<path class="st410" d="M114.9,163.7c-7.4,0-13.4-6-13.4-13.4c0-7.4,6-13.4,13.4-13.4s13.4,6,13.4,13.4
		C128.3,157.7,122.3,163.7,114.9,163.7z M114.9,138.2c-6.7,0-12.1,5.4-12.1,12.1c0,6.7,5.4,12.1,12.1,12.1c6.7,0,12.1-5.4,12.1-12.1
		C127,143.7,121.6,138.2,114.9,138.2z"/>
	<g>
		<path class="st410" d="M114.8,156.1c-2.6,0-5-1.6-5.8-4.2c-0.5-1.6-0.4-3.2,0.3-4.7c0.7-1.5,2-2.6,3.6-3.1c2-0.7,4.2-0.3,5.8,1.1
			l-0.8,1c-1.3-1.1-3-1.4-4.6-0.9c-1.2,0.4-2.2,1.3-2.8,2.4c-0.6,1.2-0.7,2.5-0.3,3.7c0.8,2.5,3.6,3.9,6.1,3.1
			c1.5-0.5,2.7-1.7,3.1-3.2l1.2,0.4c-0.6,1.9-2.1,3.4-3.9,4C116.1,156,115.4,156.1,114.8,156.1z"/>
		
			<rect x="107.4" y="149.7" transform="matrix(0.9494 -0.3141 0.3141 0.9494 -41.5918 42.6265)" class="st410" width="8.1" height="1.3"/>
		
			<rect x="108" y="151.5" transform="matrix(0.9494 -0.3141 0.3141 0.9494 -42.1554 42.6583)" class="st410" width="6.7" height="1.3"/>
	</g>
</g>
<rect x="170.1" y="127.2" class="st411" width="1.1" height="4.8"/>
<rect x="201.3" y="127.2" class="st411" width="1.1" height="4.8"/>
<circle class="st40" cx="18.7" cy="14.9" r="3.2"/>
<rect x="19.8" y="36.7" class="st49" width="6.1" height="6.1"/>
<path class="st412" d="M27.6,34.8v8.1h-13c0,0,1.5-1.3,1.5-5.5"/>
<line class="st412" x1="18.7" y1="53.3" x2="20.8" y2="53.3"/>
<line class="st412" x1="24.8" y1="53.3" x2="26.9" y2="53.3"/>
<path class="st49" d="M57.6,33.1c0.2,0.3,1,0.3,0.9-0.5l0.8,0.8l-0.8,1.1L57.3,34L57.6,33.1z"/>
</svg>
