<?xml version="1.0" encoding="utf-8"?>
<!-- Generator: Adobe Illustrator 22.1.0, SVG Export Plug-In . SVG Version: 6.00 Build 0)  -->
<svg version="1.1" id="Layer_1" xmlns="http://www.w3.org/2000/svg" xmlns:xlink="http://www.w3.org/1999/xlink" x="0px" y="0px"
	 viewBox="0 0 223.1 258.8" style="enable-background:new 0 0 223.1 258.8;" xml:space="preserve">
<circle class="st30" cx="123.2" cy="72.4" r="5"/>
<circle class="st30" cx="61.9" cy="149.3" r="5"/>
<g>
	<text transform="matrix(1 0 0 1 57.1574 244.7691)" class="st30 st31 st32">PP</text>
</g>
<g>
	<text transform="matrix(1 0 0 1 114.0998 244.7691)" class="st30 st31 st32">Botànic</text>
</g>
<g>
	<text transform="matrix(1 0 0 1 157.1361 158.1685)" class="st30 st31 st33">+1.183€</text>
</g>
<path class="st34" d="M134.8,73.2l-1.2-0.4c0-0.1,1.5-4.3,1.2-10.2c-0.2-5.4-2-13.2-9.2-20.1l0.9-0.9c7.5,7.2,9.3,15.4,9.6,21
	C136.3,68.7,134.8,73,134.8,73.2z M134.1,73l-0.6-0.2l0,0L134.1,73z"/>
<path class="st34" d="M118.8,101.4c-4,0-7.2-3.2-7.2-7.2c0-1.8,0.7-3.6,1.9-4.9l0.9,0.9c-1,1.1-1.6,2.5-1.6,4.1
	c0,3.3,2.7,5.9,5.9,5.9c1.7,0,3.3-0.7,4.4-2l1,0.9C122.8,100.5,120.9,101.4,118.8,101.4z"/>
<rect x="121.6" y="122.5" class="st34" width="1.3" height="28.1"/>
<polyline class="st34" points="128.1,122.1 128.1,122.1 128.1,144.7 126.8,144.7 126.8,122.1 "/>
<polyline class="st34" points="131.3,121.5 131.3,150.6 130,150.6 130,121.4 130,121.4 "/>
<polygon class="st34" points="135,145.2 134.9,121.3 136.1,121.3 136.3,145.2 "/>
<path class="st34" d="M139.2,93.1l-1.3,0c0.1-9.7,0.1-10.8,0.1-10.8v-0.2L138,82c0-0.1,3.4-6.4,4-15.1c0.4-5.1-0.2-10-1.8-14.6
	c-2-5.7-5.5-11-10.4-15.6l0.9-0.9c5.1,4.8,8.7,10.2,10.8,16.1c1.6,4.8,2.3,9.9,1.9,15.1c-0.6,8.4-3.6,14.4-4.1,15.5
	C139.2,83,139.2,85.2,139.2,93.1z"/>
<path class="st34" d="M124.3,98.6l-1.2-0.3c1.5-5.4,0.7-10-2.4-13.6c-2.3-2.7-5.1-3.7-5.2-3.8l0.5-1.2c0.1,0,3.1,1.2,5.7,4.1
	C124,86.5,126.4,91.3,124.3,98.6z"/>
<path class="st34" d="M127.7,93.6l-1.3-0.1c0.8-9-6.3-13.1-6.6-13.3l0.6-1.1c0.1,0,2.1,1.2,4,3.5C126.2,84.8,128.2,88.5,127.7,93.6z"
	/>
<path class="st34" d="M118.9,109.3c-8.3,0-15-6.8-15-15s6.8-15,15-15c0.5,0,1.1,0,1.6,0.1l-0.1,1.3c-0.5-0.1-1-0.1-1.5-0.1
	c-7.6,0-13.8,6.2-13.8,13.8c0,7.6,6.2,13.8,13.8,13.8c5.2,0,9.9-2.9,12.3-7.6l1.1,0.6C129.8,106.1,124.6,109.3,118.9,109.3z"/>
<path class="st34" d="M127.7,105.6l-4.7-6.7l0.1-0.3c0,0,0.7-1.7,0.8-3.8c0.1-1.5,1.2-2.3,2.2-2.3c0,0,0,0,0,0c0.9,0,1.8,0.6,2.1,2
	c0.5-0.2,1.1-0.3,1.7-0.1c1,0.2,1.8,1,2.5,2.2c1.2,2.2-0.1,4.5-0.2,4.5l-1.1-0.6c0,0,1-1.8,0.2-3.3c-0.5-0.9-1-1.4-1.6-1.5
	c-0.8-0.2-1.6,0.3-1.6,0.3l-1,0.7l0-1.2c0-1-0.4-1.6-1-1.6c-0.4,0-0.9,0.4-0.9,1.1c-0.1,1.8-0.5,3.3-0.8,3.9l4.3,6.2L127.7,105.6z"
	/>
<path class="st34" d="M122,112.7c-2.6,0-4.8-1.7-5.5-4.2l1.2-0.4c0.6,1.9,2.3,3.2,4.3,3.2c0.8,0,1.5-0.2,2.2-0.6l0.6,1.1
	C124,112.5,123,112.7,122,112.7z"/>
<path class="st34" d="M139.1,90.8l-1.3-0.1c0.4-4.3-1-7.8-4.1-10.5l0.8-1C136.9,81.2,139.6,84.9,139.1,90.8z"/>
<path class="st34" d="M139.1,87.4l-1.3-0.1c0.4-6.1-1.8-9-4.1-10.9l0.8-1C136.9,77.5,139.6,80.7,139.1,87.4z"/>
<path class="st34" d="M118.8,116.3h-2.1c-3.7,0-6.7-3-6.7-6.7v-3.4h1.3v3.4c0,3,2.4,5.4,5.4,5.4h2.1V116.3z"/>
<rect x="128.2" y="104.7" class="st34" width="12.5" height="1.3"/>
<path class="st34" d="M140.7,106v-1.3c1.9,0,3.4-1.5,3.4-3.4s-1.5-3.4-3.4-3.4v-1.3c2.6,0,4.7,2.1,4.7,4.7S143.3,106,140.7,106z"/>
<path class="st34" d="M140.7,97.9c-0.5,0-0.9-0.2-1.2-0.5c-1.4-1.3-1.5-5.1-1.5-5.5l1.3,0c0,1.4,0.4,3.9,1.1,4.6
	c0.2,0.2,0.3,0.2,0.4,0.2L140.7,97.9C140.7,97.9,140.7,97.9,140.7,97.9z"/>
<path class="st34" d="M50.1,167.7c-0.8,0-1.6-0.2-2.2-0.6c-0.8-0.5-2.5-2.1-1.4-5.9l1.2,0.4c-0.6,2.1-0.3,3.7,0.8,4.4
	c1.1,0.7,2.8,0.5,3.9-0.5c2.5-2.2,4.8-4.2,4.8-4.3c0.1-0.1,3.2-2.8,7-2.5c2,0.1,3.9,1.1,5.4,2.9l-1,0.8c-1.3-1.5-2.8-2.4-4.5-2.5
	c-3.2-0.2-6,2.2-6,2.2c0,0-2.3,2-4.8,4.3C52.4,167.3,51.2,167.7,50.1,167.7z"/>
<path class="st34" d="M69.9,167.2c-1.1,0-2.3-0.4-3.2-1.2c-0.9-0.8-1.8-1.6-2.6-2.3l0.9-1c0.8,0.7,1.7,1.5,2.6,2.3
	c1.1,1,2.8,1.2,3.9,0.5c1.2-0.7,1.5-2.3,0.8-4.4l1.2-0.4c1.1,3.8-0.6,5.4-1.4,5.9C71.5,167,70.7,167.2,69.9,167.2z"/>
<path class="st34" d="M69,172.6c-3.1,0-6-1.3-8-3.7l1-0.8c1.8,2,4.3,3.2,7,3.2c5.1,0,9.3-4.2,9.3-9.3c0-5.1-4.2-9.3-9.3-9.3
	c-0.8,0-1.6,0.1-2.4,0.3l-0.3-1.2c0.9-0.2,1.8-0.4,2.7-0.4c5.8,0,10.6,4.7,10.6,10.6S74.9,172.6,69,172.6z"/>
<rect x="53.7" y="183.6" class="st34" width="1.3" height="33.7"/>
<path class="st34" d="M51.5,174.7c-6.4,0-11.6-5.2-11.6-11.6s5.2-11.6,11.6-11.6c0.6,0,1.2,0,1.8,0.1l-0.2,1.3
	c-0.5-0.1-1.1-0.1-1.6-0.1c-5.7,0-10.3,4.6-10.3,10.3c0,5.7,4.6,10.3,10.3,10.3c4.3,0,7.9-2.3,9.2-5.6c0.1-0.3,0.3-0.8,0.4-1.4
	c0.2-0.8,0.4-1.5,0.6-2c0.4-0.9,2.7-5.1,9.4-2.3l-0.5,1.2c-5.4-2.3-7.2,0.6-7.7,1.6c-0.2,0.4-0.4,1.2-0.6,1.8
	c-0.2,0.6-0.3,1.1-0.4,1.5C60.5,172.1,56.3,174.7,51.5,174.7z"/>
<rect x="68.1" y="152" class="st34" width="1.3" height="9.7"/>
<rect x="50.3" y="152" class="st34" width="1.3" height="9.7"/>
<path class="st34" d="M50.3,163.5l-1.1-0.6c0-0.1,3.5-6.3,10.6-2.9l-0.6,1.2C53.3,158.2,50.5,163.3,50.3,163.5z"/>
<path class="st34" d="M59.9,159.9c-4,0-7.3-3.3-7.3-7.3c0-4,3.3-7.3,7.3-7.3s7.3,3.3,7.3,7.3C67.1,156.6,63.9,159.9,59.9,159.9z
	 M59.9,146.6c-3.3,0-6,2.7-6,6c0,3.3,2.7,6,6,6s6-2.7,6-6C65.9,149.3,63.2,146.6,59.9,146.6z"/>
<polygon class="st34" points="73.2,216.8 68.4,216.8 68.4,177.1 69.7,177.1 69.7,215.5 73.2,215.5 "/>
<path class="st34" d="M73.2,221h-8.9l0-34.7c0.1-0.4,0.1-1.8-0.5-2.5c-0.3-0.4-0.8-0.5-1.4-0.5c-0.7,0-1.2,0.2-1.5,0.6
	c-0.6,0.7-0.4,1.7-0.4,1.7l0,0.1l0,31.1l-1.3,0l0-31c0-0.3-0.1-1.7,0.7-2.7c0.6-0.7,1.4-1,2.5-1c1,0,1.8,0.3,2.4,1
	c1,1.2,0.9,3.1,0.8,3.5v33.3h7.6c0.8,0,1.4-0.6,1.4-1.4s-0.6-1.4-1.4-1.4v-1.3c1.5,0,2.7,1.2,2.7,2.7S74.7,221,73.2,221z"/>
<path class="st34" d="M60.9,218.3h-1.3c0-1.3-1.1-2.4-2.4-2.4c-1.3,0-2.4,1.1-2.4,2.4h-1.3c0-2,1.7-3.7,3.7-3.7
	C59.2,214.6,60.9,216.3,60.9,218.3z"/>
<polygon class="st34" points="60.9,220.9 53.5,220.9 53.5,218.3 54.8,218.3 54.8,219.7 59.6,219.7 59.6,218.3 60.9,218.3 "/>
<path class="st34" d="M54,187.4h-4.3c-2.9,0-5.2-2.3-5.2-5.2v-10.7h1.3v10.7c0,2.2,1.8,3.9,3.9,3.9H54V187.4z"/>
<path class="st34" d="M68.8,178.3V177c1.2,0,2.2-1,2.2-2.2c0-1.2-1-2.2-2.2-2.2v-1.3c1.9,0,3.5,1.6,3.5,3.5
	C72.3,176.8,70.7,178.3,68.8,178.3z"/>
<path class="st34" d="M54,184.3c-0.1,0-0.2,0-0.4,0c-1.4-0.1-2.6-0.7-3.5-1.7c-1.3-1.5-1.6-3.5-0.9-5.3l1.2,0.5
	c-0.5,1.3-0.3,2.9,0.7,3.9c0.7,0.8,1.6,1.2,2.6,1.3c1,0.1,2-0.3,2.8-0.9l0.8,1C56.4,183.8,55.2,184.3,54,184.3z"/>
<rect x="49.4" y="177" class="st34" width="19.4" height="1.3"/>
<path class="st34" d="M50,178.3c-1.4,0-2.5-1.1-2.5-2.5c0-1.4,1.1-2.5,2.5-2.5v1.3c-0.7,0-1.3,0.6-1.3,1.3s0.6,1.3,1.3,1.3V178.3z"/>
<g>
	<path class="st34" d="M120.8,44.2c-0.2,0-0.5,0-0.7,0l0.1-1.3c2.7,0.2,5.5-0.8,7.4-2.7c3.3-3.2,3.9-8.3,1.5-12.2
		c0,0-1.1-1.9-2.2-2.8l0.9-1c1.2,1.1,2.4,3,2.4,3.1c2.8,4.4,2.1,10.2-1.7,13.8C126.5,43.1,123.7,44.2,120.8,44.2z"/>
	<path class="st34" d="M120.1,44.1c-4.1,0-7.8-1.7-11-5c-1.3-1.3-1.9-2.6-1.8-3.9c0-1.5,1-2.5,1.1-2.5l6.2-6l0.3,0
		c1.5,0.2,2.5,0.9,3,2c0.5,1.2,0.4,2.8-0.5,4.7c-0.1,0.2-0.2,0.5-0.3,0.7c1.7-0.3,3.1,0.7,3.7,1.4l-1,0.9c-0.2-0.2-1.9-2-3.9-0.3
		l-3.5,3l2.6-3.8c0.7-1.1,2.4-4.3,1.7-6c-0.3-0.6-0.8-1-1.7-1.2l-5.8,5.6c-0.2,0.2-1.8,1.9,0.8,4.6c3,3.1,6.4,4.6,10.1,4.6
		c0,0,0,0,0,0L120.1,44.1C120.1,44.1,120.1,44.1,120.1,44.1z"/>
	<path class="st34" d="M109.1,32.8c-2.4-2.5-6.4-5.8-11.9-7.5l0.4-1.2c5.8,1.7,10,5.2,12.5,7.8L109.1,32.8z"/>
	<path class="st34" d="M97.1,25.4c-0.6-0.2-1.1-0.6-1.5-1.1c-1-1.4-0.7-3.5,0.7-4.5c0.8-0.6,1.8-0.8,2.8-0.5l-0.4,1.2
		c-0.6-0.2-1.2-0.1-1.7,0.3c-0.9,0.6-1.1,1.8-0.4,2.7c0.2,0.3,0.5,0.5,0.9,0.7L97.1,25.4z"/>
	<path class="st34" d="M112.3,29.7c-2.1-2.6-6.6-7.2-13.5-9.3l0.4-1.2c7.2,2.1,11.9,7,14.1,9.7L112.3,29.7z"/>
	<path class="st34" d="M111.9,29.5c-0.3-3.8-1.4-9.3-5.1-14.4l1-0.8c4,5.3,5.1,11.2,5.4,15.1L111.9,29.5z"/>
	<path class="st34" d="M106.7,15.1c-0.3-0.5-0.5-1.2-0.5-1.8c0-0.9,0.4-1.7,1-2.3c0.6-0.6,1.4-0.9,2.3-0.9c1,0,1.9,0.5,2.5,1.3
		l-1,0.8c-0.4-0.5-0.9-0.8-1.5-0.8c-1.1,0-1.9,0.8-2,1.9c0,0.4,0.1,0.8,0.3,1.1L106.7,15.1z"/>
	<path class="st34" d="M117.5,28.5l-1.3,0c0-2.8-0.5-10-5.2-16.4l1-0.8C117.1,18.1,117.6,25.6,117.5,28.5z"/>
	<path class="st34" d="M115.8,23.2c-0.1-1.1,0.3-2.2,1-3c0.7-0.7,1.6-1,2.5-1c0.9,0,1.8,0.4,2.5,1.1c0.6,0.6,0.9,1.3,1,2.1l-1.3,0.1
		c0-0.5-0.3-1-0.6-1.3c-0.4-0.4-1-0.7-1.6-0.7c-0.6,0-1.2,0.2-1.6,0.6c-0.5,0.5-0.8,1.2-0.7,1.9L115.8,23.2z"/>
	<path class="st34" d="M119.7,31.7c-0.8,0-1.6-0.3-2.2-0.9c-0.4-0.4-0.6-0.8-0.8-1.3l1.2-0.3c0.1,0.3,0.2,0.6,0.4,0.8
		c0.7,0.7,1.8,0.7,2.5,0c0.4-0.4,0.6-0.8,0.5-1.4l1.3-0.1c0,0.9-0.3,1.7-0.9,2.3C121.2,31.4,120.5,31.7,119.7,31.7z"/>
	
		<rect x="118.9" y="25" transform="matrix(2.278640e-03 -1 1 2.278640e-03 96.1572 147.6947)" class="st34" width="6.3" height="1.3"/>
	<path class="st34" d="M128.5,23.5l-1.3-0.1c0-0.5-0.1-1-0.4-1.4c-0.7-1-2.1-1.3-3.1-0.6c-0.6,0.4-0.9,1-1,1.7l-1.3,0
		c0-1.1,0.6-2.1,1.5-2.8c1.6-1.1,3.8-0.7,4.9,0.9C128.3,21.9,128.6,22.7,128.5,23.5z"/>
	<path class="st34" d="M124.5,32.1c-1,0-1.9-0.5-2.5-1.3c-0.3-0.4-0.5-0.9-0.5-1.4l1.3-0.1c0,0.3,0.1,0.6,0.3,0.8
		c0.6,0.8,1.7,1,2.5,0.4c0.4-0.3,0.7-0.7,0.7-1.2l1.3,0.2c-0.1,0.9-0.6,1.7-1.3,2.2C125.7,32,125.1,32.1,124.5,32.1z"/>
	
		<rect x="124.2" y="25.9" transform="matrix(0.1628 -0.9867 0.9867 0.1628 80.4438 147.8852)" class="st34" width="6.3" height="1.3"/>
</g>
<rect x="62.3" y="225.2" class="st34" width="1.3" height="7.6"/>
<rect x="131.3" y="224.8" class="st34" width="1.3" height="7.6"/>
<rect x="147.3" y="96.6" transform="matrix(0.3841 -0.9233 0.9233 0.3841 15.1506 217.131)" class="st30" width="46" height="1.3"/>
<rect x="171.4" y="77.4" transform="matrix(0.7536 -0.6574 0.6574 0.7536 -15.5261 134.8412)" class="st30" width="1.3" height="21.5"/>
<rect x="88.6" y="101.6" transform="matrix(0.7249 -0.6888 0.6888 0.7249 -57.0208 94.0823)" class="st30" width="1.3" height="33.8"/>
<rect x="188.1" y="194.5" transform="matrix(0.5155 -0.8569 0.8569 0.5155 -84.7752 261.3999)" class="st30" width="1.3" height="22.4"/>
<rect x="176.8" y="201.5" transform="matrix(0.7609 -0.6488 0.6488 0.7609 -87.2447 167.4239)" class="st30" width="13.6" height="1.3"/>
<rect x="180.2" y="209.1" transform="matrix(0.7894 -0.6139 0.6139 0.7894 -87.4273 164.6532)" class="st30" width="32.1" height="1.3"/>
<path class="st30" d="M23.1,120.4l-0.8-1C36.6,108.2,48.8,92,57.6,72.5c8.4-18.6,13-39.3,13-58.2h1.3c0,19.1-4.7,39.9-13.1,58.7
	C49.9,92.7,37.6,109.1,23.1,120.4z"/>
<path class="st30" d="M149.1,221.1h-34.6v-71.5h34.6V221.1z M115.8,219.8h32v-69h-32V219.8z"/>
<rect x="32.5" y="219.8" class="st34" width="132.5" height="1.3"/>
<g>
	<circle class="st35" cx="115.6" cy="209.3" r="11.2"/>
	<path class="st30" d="M115.6,221.1c-6.5,0-11.8-5.3-11.8-11.8c0-6.5,5.3-11.8,11.8-11.8s11.8,5.3,11.8,11.8
		C127.5,215.8,122.2,221.1,115.6,221.1z M115.6,198.7c-5.8,0-10.5,4.7-10.5,10.5c0,5.8,4.7,10.5,10.5,10.5c5.8,0,10.5-4.7,10.5-10.5
		C126.2,203.5,121.4,198.7,115.6,198.7z"/>
</g>
<path class="st30" d="M115.6,217.8c-4.7,0-8.6-3.8-8.6-8.6c0-4.7,3.8-8.6,8.6-8.6c4.7,0,8.6,3.8,8.6,8.6
	C124.2,214,120.4,217.8,115.6,217.8z M115.6,202c-4,0-7.3,3.3-7.3,7.3c0,4,3.3,7.3,7.3,7.3c4,0,7.3-3.3,7.3-7.3
	C122.9,205.2,119.7,202,115.6,202z"/>
<g>
	<path class="st30" d="M116,213.6c-1,0-1.9-0.4-2.5-1c-0.6-0.6-0.9-1.3-1-2.1h-1v-0.9h0.9c0-0.1,0-0.3,0-0.5c0-0.1,0-0.3,0-0.4h-0.9
		v-0.9h0.9c0.1-0.8,0.4-1.5,1-2.1c0.6-0.6,1.5-1,2.5-1c1,0,1.8,0.3,2.4,0.8l-0.6,1.2c-0.6-0.5-1.1-0.7-1.9-0.7
		c-0.6,0-1.1,0.2-1.5,0.6c-0.3,0.3-0.5,0.7-0.5,1.1h3.4l-0.4,0.9h-3.1v0.9h2.9l-0.4,0.9H114c0.1,0.4,0.3,0.8,0.5,1.1
		c0.4,0.4,0.9,0.6,1.5,0.6c0.7,0,1.4-0.3,1.9-0.7l0.6,1.2C117.7,213.3,117,213.6,116,213.6z"/>
</g>
<circle class="st30" cx="117.5" cy="72.6" r="5"/>
<path class="st34" d="M127.9,85.1c-4,0-7.3-3.3-7.3-7.3c0-4,3.3-7.3,7.3-7.3c4,0,7.3,3.3,7.3,7.3C135.2,81.8,131.9,85.1,127.9,85.1z
	 M127.9,71.8c-3.3,0-6,2.7-6,6c0,3.3,2.7,6,6,6s6-2.7,6-6C133.9,74.5,131.2,71.8,127.9,71.8z"/>
<path class="st36" d="M119.5,111.3c0,0,1.8,4.2-1.8,5.2"/>
<path class="st37" d="M142.3,117.9c0,0-4.4-6.6-4.4-12.3"/>
<path class="st37" d="M117.8,116.5c-1.5,0.3-2.6,1.6-2.6,3.2c0,1.8,1.4,3.2,3.2,3.2l22.2-2.2"/>
<path class="st37" d="M140.6,120.7c1.1,0,1.9-0.9,1.9-1.9c0-0.3-0.1-0.6-0.2-0.9"/>
<path class="st34" d="M129,146.9h-1.3c0-1.3-1.1-2.4-2.4-2.4c-1.3,0-2.4,1.1-2.4,2.4h-1.3c0-2,1.7-3.7,3.7-3.7
	C127.4,143.2,129,144.9,129,146.9z"/>
<polygon class="st34" points="129,149.5 121.6,149.5 121.6,146.9 122.9,146.9 122.9,148.2 127.7,148.2 127.7,146.9 129,146.9 "/>
<path class="st34" d="M131.3,133.5v14.7h7.6c0.8,0,1.4-0.6,1.4-1.4s-0.6-1.4-1.4-1.4V144c1.5,0,2.7,1.2,2.7,2.7s-1.2,2.7-2.7,2.7H130
	l0-16.2"/>
<polyline class="st34" points="139,144 136.2,144 136.2,145.3 139,145.3 "/>
<line class="st37" x1="122.9" y1="138.3" x2="126.8" y2="138.3"/>
<line class="st37" x1="130.9" y1="138.3" x2="135" y2="138.3"/>
<path class="st35" d="M114.6,35.8c0,0-0.1,1,0.8,0.7c0.9-0.3,0,1.3,0,1.3l-2.5,1.7c0,0-1.3-0.4-1.2-0.6s0.5-2.1,0.7-2.2
	C112.7,36.4,114.6,35.8,114.6,35.8z"/>
</svg>
