<?xml version="1.0" encoding="utf-8"?>
<!-- Generator: Adobe Illustrator 22.1.0, SVG Export Plug-In . SVG Version: 6.00 Build 0)  -->
<svg version="1.1" id="Layer_1" xmlns="http://www.w3.org/2000/svg" xmlns:xlink="http://www.w3.org/1999/xlink" x="0px" y="0px"
	 viewBox="0 0 220.7 220.9" style="enable-background:new 0 0 220.7 220.9;" xml:space="preserve">
<circle class="st60" cx="71.7" cy="175.3" r="6.1"/>
<path class="st61" d="M63,154.5c-2.3,0-3.2-1.9-3.3-2.9l0-0.1V141l0.5-0.1c0,0,3.2-0.5,5.3-1.4l0.5,1.2c-1.8,0.8-4.1,1.3-5.1,1.4v9.4
	c0,0.3,0.4,1.7,2,1.7c1.7,0,1.8-1.9,1.8-2.1v-5.1l0.6-0.1c3.3-0.4,4.8-1.3,4.9-1.3l0.7,1.1c-0.1,0-1.6,1-4.8,1.5l0,4
	C66,152.4,65.3,154.5,63,154.5z"/>
<path class="st60" d="M179.3,83.7h-44V72.9h44V83.7z M136.6,82.4H178v-8.3h-41.4V82.4z"/>
<circle class="st60" cx="155.3" cy="130.1" r="6.1"/>
<path class="st61" d="M183.1,139.4c-2.8,1.1-5.7,1.7-8.7,1.7c-3,0-6-0.6-8.9-1.7l0.5-1.2c5.6,2.3,11.6,2.1,16.8,0"/>
<path class="st61" d="M145.7,139.4c-5.8-2.6-10.3-7.2-12.6-13.2c-2.3-5.9-2.1-12.4,0.4-18.2c0.9-2,2-3.9,3.4-5.6l1,0.8
	c-1.3,1.6-2.4,3.4-3.2,5.3c-2.4,5.5-2.6,11.6-0.4,17.2c2.2,5.6,6.4,10,11.9,12.5L145.7,139.4z"/>
<rect x="152.3" y="179.2" class="st61" width="1.3" height="35.8"/>
<polygon class="st61" points="169.4,180 169.3,166.7 170.6,166.7 170.7,180 "/>
<path class="st61" d="M153.7,171.8c-2.8,0-5.4-1.9-6.2-4.6l1.2-0.4c0.6,2.2,2.7,3.7,4.9,3.7V171.8z"/>
<rect x="146.4" y="166.3" class="st61" width="26.1" height="1.3"/>
<path class="st61" d="M172.3,167.6v-1.3c1.8,0,3.4-1.5,3.4-3.4c0-1.8-1.5-3.4-3.4-3.4v-1.3c2.6,0,4.6,2.1,4.6,4.6
	C176.9,165.5,174.9,167.6,172.3,167.6z"/>
<path class="st61" d="M172.5,159.6c-1.4,0-2.6-1.2-2.6-2.6c0-1.4,1.2-2.6,2.6-2.6v1.3c-0.7,0-1.3,0.6-1.3,1.3c0,0.7,0.6,1.3,1.3,1.3
	V159.6z"/>
<path class="st61" d="M147.2,156.2c-1.3,0-2.3-1-2.3-2.3s1-2.3,2.3-2.3v1.3c-0.6,0-1,0.5-1,1c0,0.6,0.5,1,1,1V156.2z"/>
<path class="st61" d="M146.4,161v-1.3c1,0,1.8-0.8,1.8-1.8s-0.8-1.8-1.8-1.8v-1.3c1.7,0,3,1.4,3,3S148.1,161,146.4,161z"/>
<path class="st61" d="M146.4,167.6c-2.2,0-3.9-1.8-3.9-3.9c0-2.2,1.8-3.9,3.9-3.9v1.3c-1.5,0-2.6,1.2-2.6,2.6c0,1.5,1.2,2.6,2.6,2.6
	V167.6z"/>
<path class="st61" d="M183.1,215.8h-51.7V97.2h51.7V215.8z M132.7,214.5h49.1v-116h-49.1V214.5z"/>
<path class="st61" d="M151.8,173.6h-5.2c-3.7,0-6.7-3-6.7-6.7v-20.4h1.3v20.4c0,3,2.4,5.4,5.4,5.4h5.2V173.6z"/>
<path class="st61" d="M147.1,152.8v-1.3c0.3,0,0.5-0.2,0.5-0.5c0-0.3-0.3-0.5-0.5-0.5l0.1-1.3c1,0.1,1.7,0.8,1.7,1.8
	C148.9,152,148.1,152.8,147.1,152.8z"/>
<path class="st61" d="M182.8,148.2c-3.9,1.3-8.3,2.1-13,2.4c-0.3,0-0.5,0.2-0.5,0.5c0,0.3,0.2,0.5,0.5,0.5v1.3c-1,0-1.8-0.8-1.8-1.8
	c0-0.9,0.7-1.7,1.7-1.8c4.7-0.3,9.1-1.1,12.9-2.4"/>
<path class="st61" d="M147.2,161l-0.1-1.3c2.5-0.2,4.4-1.1,5.6-2.8c3.1-4.2,1.4-11.5,1.4-11.6l1.3-0.3c0,0.1,0.5,2,0.5,4.5
	c0.1,3.4-0.7,6.1-2.1,8.1C152.3,159.7,150.1,160.8,147.2,161z"/>
<path class="st61" d="M149.1,157.1l-0.6-1.1c4.8-2.7,2-11.9,2-12l1.2-0.4C151.8,144,154.8,153.9,149.1,157.1z"/>
<path class="st61" d="M171.8,159.6c-2.9-0.2-5.1-1.3-6.6-3.3c-1.4-2-2.2-4.7-2.1-8.1c0-2.5,0.5-4.4,0.5-4.5l1.3,0.3
	c0,0.1-1.7,7.4,1.4,11.6c1.2,1.7,3.1,2.6,5.6,2.8L171.8,159.6z"/>
<path class="st61" d="M158.8,147.1c-4.2,0-7.6-3.4-7.6-7.6s3.4-7.6,7.6-7.6c4.2,0,7.6,3.4,7.6,7.6S163,147.1,158.8,147.1z
	 M158.8,133.2c-3.5,0-6.3,2.8-6.3,6.3s2.8,6.3,6.3,6.3c3.5,0,6.3-2.8,6.3-6.3S162.3,133.2,158.8,133.2z"/>
<path class="st61" d="M146.9,150.5c-9.6-3.2-17-9.8-20.8-18.5c-3.9-8.9-3.8-19.1,0.2-28.2c1.3-2.9,2.9-5.6,4.9-8l1,0.8
	c-1.9,2.3-3.5,4.9-4.7,7.7c-3.9,8.7-3.9,18.6-0.2,27.1c3.7,8.3,10.8,14.7,20,17.8L146.9,150.5z"/>
<circle class="st60" cx="67.5" cy="168.6" r="6.1"/>
<circle class="st60" cx="80.4" cy="125" r="6.1"/>
<circle class="st60" cx="53" cy="107.4" r="6.1"/>
<path class="st61" d="M86.1,159.4c-2.4,0-3-2.4-3-3.6v-4.1c-1.5-0.2-5.5-1.1-9.8-3.8c-4.8-3-10.8-9-11.9-20.2
	c-0.4-3.8-7.7-3.6-7.8-3.6l-8.5,0v-1.3h8.4c0.3,0,8.6-0.2,9.1,4.8c0.8,8.6,4.6,15.1,11.3,19.2c5,3.1,9.8,3.7,9.8,3.7l0.6,0.1l0,5.2
	c0,0.2,0.1,2.3,1.7,2.3c0.8,0,1.3-0.3,1.8-1c0.3-0.5,0.4-0.9,0.4-1.1v-10.1c-2.3-0.1-10.5-0.8-15.9-6.2c-3.3-3.3-5-7.7-5-13.1h1.3
	c0,5,1.5,9.1,4.6,12.2c5.9,5.9,15.5,5.9,15.6,5.9l0.6,0l0,11.5C89.4,157.3,88.4,159.4,86.1,159.4z"/>
<rect x="88.3" y="96.9" class="st61" width="7.7" height="1.3"/>
<path class="st61" d="M45,147.7c-4-0.4-7.6-2.2-10.3-5.2c-2.7-3-4.2-6.8-4.2-10.9c0-8.9,7.2-16.1,16.1-16.1h3.1v1.3h-3.1
	c-8.2,0-14.9,6.7-14.9,14.9c0,3.7,1.4,7.3,3.9,10c2.5,2.7,5.9,4.4,9.5,4.8L45,147.7z"/>
<path class="st61" d="M62.6,109.3l-0.5-1.2c2.6-1.2,5.4-1.6,8-1.1c0.7,0.1,1.2,0.3,1.7,0.4c0.4,0.1,0.8,0.2,1.2,0.3l-0.2,1.3
	c-0.5-0.1-0.9-0.2-1.3-0.3c-0.4-0.1-0.9-0.2-1.6-0.4C67.5,107.8,65.1,108.1,62.6,109.3z"/>
<path class="st61" d="M94.6,109.4c-4.4-4.3-10.3-6.6-16.4-6.6c-6,0-11.7,2.2-16.1,6.3l-0.9-0.9c4.6-4.3,10.7-6.6,17-6.6
	c6.5,0,12.7,2.5,17.3,7L94.6,109.4z"/>
<path class="st61" d="M97.3,111.3c-1.8,0-2.5-1.4-2.5-2.4c0-0.1,0.2-5.5,0.2-7.7h1.3c0,2.2-0.2,7.4-0.2,7.7c0,0.3,0.1,1.1,1.2,1.1
	c0.3,0,0.6-0.1,0.7-0.2c0.2-0.2,0.2-0.7,0.1-0.8l1.3-0.3c0,0.1,0.2,1.1-0.4,1.8C98.8,110.9,98.3,111.3,97.3,111.3z"/>
<path class="st62" d="M98.5,99.4"/>
<path class="st61" d="M96.2,105.1h-1.3c0-4.5,4.2-4.5,4.2-4.5l0,1.3C98.8,101.9,96.2,102,96.2,105.1z"/>
<path class="st61" d="M99.5,101.3h-1.3v-4.7c-0.5,0-1.1,0.1-1.4,0.4c-0.3,0.3-0.4,0.6-0.4,1.1v3H95v-3c0-1.1,0.5-1.8,0.9-2.1
	c1.1-1,2.9-0.7,3-0.7l0.6,0.1V101.3z"/>
<path class="st61" d="M99.1,105.4v-1.3c0.6,0,1.1-0.5,1.1-1.1s-0.5-1.1-1.1-1.1v-1.3c1.3,0,2.4,1.1,2.4,2.4
	C101.5,104.3,100.4,105.4,99.1,105.4z"/>
<path class="st61" d="M78.9,119.6c-2.4,0-4.3-1.9-4.3-4.3s1.9-4.3,4.3-4.3v1.3c-1.7,0-3,1.3-3,3s1.3,3,3,3V119.6z"/>
<path class="st61" d="M78.3,112.3v-1.3c1,0,1.9-0.8,1.9-1.9s-0.8-1.9-1.9-1.9c-0.5,0-1,0.2-1.3,0.6l-0.9-0.9c0.6-0.6,1.4-0.9,2.2-0.9
	c1.7,0,3.2,1.4,3.2,3.2C81.5,110.9,80,112.3,78.3,112.3z"/>
<path class="st61" d="M73.8,109c-0.8,0-1.4-0.2-1.4-0.2l0.3-1.2l-0.2,0.6l0.2-0.6c0,0,2.2,0.5,3.4-0.7l0.9,0.9
	C76,108.8,74.8,109,73.8,109z"/>
<path class="st61" d="M75.2,135.5c-4.3,0-7.9-3.5-7.9-7.9s3.5-7.9,7.9-7.9c4.3,0,7.9,3.5,7.9,7.9S79.5,135.5,75.2,135.5z M75.2,121
	c-3.6,0-6.6,3-6.6,6.6c0,3.6,3,6.6,6.6,6.6c3.6,0,6.6-3,6.6-6.6C81.8,124,78.8,121,75.2,121z"/>
<path class="st61" d="M94,215.8H82.9c-1.6,0-4.5-0.8-4.5-3.5c0-0.8,0.3-1.5,0.8-2c1.2-1.2,3.4-1.2,4.5-1.2c0.1,0,0.2,0,0.3,0h2.3
	v-41.2l0,0c0,0,0.2-1.3-0.5-2c-0.3-0.4-0.8-0.5-1.4-0.5c-0.9,0-1.5,0.4-1.9,1.2c-0.3,0.7-0.3,1.4-0.3,1.4v7.3h-1.3V168
	c0-1.4,0.8-3.9,3.5-3.9c1,0,1.9,0.3,2.4,1c0.9,1.1,0.8,2.7,0.8,3v42.4H84c-0.1,0-0.2,0-0.3,0c-0.9,0-2.8,0-3.6,0.8
	c-0.3,0.3-0.4,0.7-0.4,1.1c0,2.1,3.2,2.2,3.2,2.2l9.9,0v-56.1l1.3-0.5V215.8z"/>
<path class="st61" d="M71.7,138.6l-0.6-1.1c0.2-0.1,0.4-0.2,0.8-0.3c1-0.4,2.7-1,5-3.2l0.9,0.9c-2.5,2.4-4.4,3.1-5.5,3.4
	C72,138.5,71.8,138.6,71.7,138.6z"/>
<path class="st61" d="M64.1,131.6c-1.2,0-2.2-0.4-2.3-0.5l0.5-1.2l-0.3,0.6l0.3-0.6c0,0,1.7,0.7,3.1,0.1c0.9-0.4,1.5-1.3,1.9-2.6
	l1.2,0.4c-0.5,1.7-1.4,2.8-2.6,3.4C65.4,131.5,64.7,131.6,64.1,131.6z"/>
<rect x="98.2" y="104.1" class="st61" width="1.3" height="30.7"/>
<polygon class="st61" points="99.5,215.8 44.5,215.8 44.5,192.5 45.7,192.5 45.7,214.5 98.2,214.5 98.2,151.1 99.5,151.1 "/>
<rect x="44.5" y="139.6" class="st61" width="1.3" height="39"/>
<rect x="44.5" y="123.4" class="st61" width="1.3" height="16.4"/>
<path class="st61" d="M45.3,140.4c-4.6-0.3-8.3-4.2-8.3-8.8c0-4.8,3.4-8.6,8-8.8l0.1,1.3c-3.9,0.2-6.8,3.5-6.8,7.6
	c0,4,3.1,7.3,7.1,7.6L45.3,140.4z"/>
<polygon class="st61" points="65.4,215.8 55.8,215.8 55.8,198.9 57.1,198.9 57.1,214.5 64.1,214.5 64.1,195.9 65.4,195.9 "/>
<path class="st61" d="M74,186h-1.3c0-1.9-1.6-3.5-3.5-3.5s-3.5,1.6-3.5,3.5h-1.3c0-2.6,2.1-4.8,4.8-4.8S74,183.3,74,186z"/>
<polygon class="st61" points="74,215.8 64.5,215.8 64.5,195.9 65.7,195.9 65.7,214.5 72.7,214.5 72.7,199.1 74,199.1 "/>
<rect x="72.7" y="186" class="st61" width="1.3" height="6.4"/>
<path class="st61" d="M65.6,212.3h-1.3c0-2.1-1.7-3.7-3.7-3.7s-3.7,1.7-3.7,3.7h-1.3c0-2.8,2.3-5,5-5S65.6,209.5,65.6,212.3z"/>
<polygon class="st61" points="65.6,215.8 55.6,215.8 55.6,212.3 56.9,212.3 56.9,214.5 64.4,214.5 64.4,212.3 65.6,212.3 "/>
<path class="st61" d="M74.3,212.3H73c0-2.1-1.7-3.7-3.7-3.7c-2.1,0-3.7,1.7-3.7,3.7h-1.3c0-2.8,2.3-5,5-5S74.3,209.5,74.3,212.3z"/>
<polygon class="st61" points="74.3,215.8 64.2,215.8 64.2,212.3 65.5,212.3 65.5,214.5 73,214.5 73,212.3 74.3,212.3 "/>
<path class="st61" d="M72.3,199.7c-5.3,0-10-2.9-12.6-7.7l1.1-0.6c2.3,4.4,6.6,7,11.4,7c7.2,0,13-5.8,13-13c0-7.2-6.2-13-13.4-13
	v-1.3c7.9,0,14.6,6.4,14.6,14.3C86.6,193.3,80.2,199.7,72.3,199.7z"/>
<path class="st61" d="M56.2,208.6c-3.3,0-6-2.7-6-6c0-0.8,0.2-1.6,0.5-2.3l1.2,0.5c-0.2,0.6-0.4,1.2-0.4,1.8c0,2.6,2.1,4.7,4.7,4.7
	V208.6z"/>
<path class="st61" d="M73.5,208.6l-0.1-1.3c0.6-0.1,1.2-0.3,1.8-0.6c1.1-0.6,1.9-1.6,2.3-2.8c0.4-1.2,0.2-2.5-0.4-3.6l1.1-0.6
	c0.8,1.4,1,3,0.5,4.6c-0.4,1.5-1.5,2.8-2.9,3.6C75,208.2,74.3,208.5,73.5,208.6z"/>
<path class="st61" d="M72.3,193.7c-1.3,0-2.6-0.3-3.8-0.9l0.6-1.1c1,0.5,2.1,0.8,3.2,0.8c3.8,0,6.9-3.1,6.9-6.9c0-2.1-0.9-4-2.6-5.4
	l0.8-1c1.9,1.6,3,3.9,3,6.4C80.5,190,76.9,193.7,72.3,193.7z"/>
<path class="st61" d="M69.5,154.1v-1.3c1.8,0,3.2-1.4,3.2-3.2s-1.4-3.2-3.2-3.2v-1.3c2.5,0,4.5,2,4.5,4.5S72,154.1,69.5,154.1z"/>
<path class="st61" d="M82.2,162.4h-12c-2.7,0-4.8-2.2-4.8-4.8c0-2.7,2.2-4.8,4.8-4.8v1.3c-1.9,0-3.5,1.6-3.5,3.5
	c0,1.9,1.6,3.5,3.5,3.5h14.1L82.2,162.4z"/>
<path class="st61" d="M69.1,192.2h-1.3c0-1.9-1.5-3.4-3.4-3.4c-1.9,0-3.4,1.5-3.4,3.4h-1.3c0-2.6,2.1-4.7,4.7-4.7
	C67.1,187.5,69.1,189.6,69.1,192.2z"/>
<path class="st61" d="M45.1,154v-1.3c2,0,3.7-1.7,3.7-3.7v-3.2c0-2-1.7-3.7-3.7-3.7v-1.3c2.7,0,5,2.2,5,5v3.2
	C50.1,151.8,47.8,154,45.1,154z"/>
<path class="st61" d="M56.4,157.2c-0.8-4.3-0.8-8.5-0.1-12.6c0.9-4.9,2.8-9.3,5.5-12.8l1,0.8c-2.6,3.3-4.4,7.5-5.3,12.2
	c-0.7,4-0.7,8.1,0.1,12.3"/>
<path class="st61" d="M56.7,121.8L56.7,121.8c-4.2,0-7.6-3.3-7.9-7.5c-0.2-4.3,3.1-8.1,7.4-8.3c4.4-0.2,8.1,3.1,8.3,7.4
	c0.1,2.1-0.6,4.1-2,5.7c-1.4,1.6-3.3,2.5-5.4,2.6C56.9,121.8,56.8,121.8,56.7,121.8z M56.7,107.3c-0.1,0-0.2,0-0.4,0
	c-3.6,0.2-6.4,3.3-6.2,6.9c0.2,3.5,3.1,6.2,6.6,6.2h0c0.1,0,0.2,0,0.4,0c1.8-0.1,3.4-0.9,4.6-2.2s1.8-3,1.7-4.8
	C63.1,110,60.2,107.3,56.7,107.3z"/>
<path class="st61" d="M53.3,108.1l-1.1-0.7c2.5-4.1,5.9-7.5,10-9.8c4.2-2.4,9.1-3.7,14-3.7c7.3,0,14.2,2.8,19.4,7.8l-0.9,0.9
	c-5-4.8-11.6-7.5-18.5-7.5c-4.7,0-9.3,1.2-13.3,3.6C59,101,55.6,104.3,53.3,108.1z"/>
<path class="st61" d="M82,162.4v-1.2c10,0,18.1-8.1,18.1-18.1c0-10-8.1-18.1-18.1-18.1v-1.3c10.7,0,19.4,8.7,19.4,19.4
	C101.3,153.9,92.6,162.4,82,162.4z"/>
<path class="st61" d="M89.6,151.8l-0.9-0.9c2-2,3.1-4.6,3.1-7.4c0-3.2-1.4-6.2-3.9-8.2l0.8-1c2.8,2.2,4.4,5.6,4.4,9.2
	C93,146.6,91.8,149.6,89.6,151.8z"/>
<rect x="63.7" y="185.5" class="st61" width="1.3" height="2.7"/>
<rect x="64.5" y="185.5" class="st61" width="1.3" height="2.7"/>
<path class="st61" d="M77.6,143.3l-0.5-1.2c6.4-2.7,10.6-9,10.6-16c0-5.9-2.9-11.3-7.8-14.5l0.7-1.1c5.3,3.5,8.4,9.3,8.4,15.6
	C89,133.6,84.5,140.3,77.6,143.3z"/>
<rect x="104.8" y="95.9" class="st61" width="1.3" height="13.2"/>
<rect x="109.1" y="99.7" class="st61" width="1.3" height="6.6"/>
<rect x="37.7" y="183.5" class="st61" width="1.3" height="13.2"/>
<rect x="33.4" y="186.4" class="st61" width="1.3" height="6.6"/>
<path class="st61" d="M44.9,153.8c-1.4,0-2.5-1.1-2.5-2.5s1.1-2.5,2.5-2.5v1.3c-0.7,0-1.2,0.6-1.2,1.2c0,0.7,0.6,1.2,1.2,1.2V153.8z"
	/>
<circle class="st63" cx="45" cy="151.3" r="1.4"/>
<path class="st63" d="M46.4,152.5c-0.5,0.3-1.4,0.1-1.4,0.1v-2.8h1.4C46.4,149.9,47,152.2,46.4,152.5z"/>
<path class="st61" d="M45.1,160.2v-1.3c1.6,0,2.1-1.4,2.2-1.7v-4.8h1.3v4.9l0,0.1C48.3,158.3,47.3,160.2,45.1,160.2z"/>
<path class="st60" d="M91.5,84h-44V73.2h44V84z M48.8,82.8h41.4v-8.3H48.8V82.8z"/>
<text transform="matrix(1 0 0 1 51.7854 80.8897)" class="st60 st64 st65">AULA 2014</text>
<text transform="matrix(1 0 0 1 139.5892 80.8897)" class="st60 st64 st65">AULA 2018</text>
<rect x="4.9" y="57.3" transform="matrix(0.4186 -0.9082 0.9082 0.4186 -41.1843 51.5616)" class="st60" width="29.7" height="1.3"/>
<g>
	<path class="st60" d="M170.7,64c-21-1.8-41.3-7.4-58.7-16.2C92.8,38.2,77.7,25.1,67.2,9l1.1-0.7c10.4,15.9,25.3,28.9,44.3,38.5
		c17.2,8.7,37.4,14.2,58.3,16L170.7,64z"/>
</g>
<rect x="206.9" y="177.6" transform="matrix(0.9055 -0.4244 0.4244 0.9055 -62.0612 106.2605)" class="st60" width="1.3" height="29.7"/>
<rect x="176.6" y="16.1" transform="matrix(0.8955 -0.445 0.445 0.8955 4.4599 82.1934)" class="st60" width="1.3" height="31"/>
<rect x="209.4" y="92" transform="matrix(0.5159 -0.8567 0.8567 0.5159 13.4379 229.7827)" class="st60" width="1.3" height="22.1"/>
<rect x="171.3" y="29" transform="matrix(0.7397 -0.6729 0.6729 0.7397 25.944 126.4108)" class="st60" width="10.2" height="1.3"/>
<path class="st66" d="M182.6,104.8c0,0-8.7-1.1-10.7,7.6"/>
<path class="st66" d="M182.6,130.7c0,0-8.7,1.1-10.7-7.6"/>
<path class="st67" d="M178.2,127.6c0,0.7,0.6,1.3,1.3,1.3h2.3c0.7,0,1.3-0.6,1.3-1.3l0,0c0-0.7-0.6-1.3-1.3-1.3h-2.3
	C178.8,126.3,178.2,126.9,178.2,127.6L178.2,127.6z"/>
<path class="st67" d="M178.2,130.3c0,0.7,0.6,1.3,1.3,1.3h2.3c0.7,0,1.3-0.6,1.3-1.3l0,0c0-0.7-0.6-1.3-1.3-1.3h-2.3
	C178.8,129,178.2,129.5,178.2,130.3L178.2,130.3z"/>
<path class="st67" d="M178.2,133c0,0.7,0.6,1.3,1.3,1.3h2.3c0.7,0,1.3-0.6,1.3-1.3l0,0c0-0.7-0.6-1.3-1.3-1.3h-2.3
	C178.8,131.7,178.2,132.3,178.2,133L178.2,133z"/>
<path class="st66" d="M182.6,123.5c0,0-2.3-0.4-2.3,2.8"/>
<circle class="st60" cx="162" cy="113.3" r="6.1"/>
<circle class="st60" cx="59.7" cy="154.9" r="6.1"/>
<path class="st66" d="M49.2,134.9c0,0,5.4,7,5.4,16.9"/>
<path class="st66" d="M53,165c0,0-1,6.5-7.9,7.5"/>
<path class="st67" d="M49.5,131.4c0-0.7-0.6-1.3-1.3-1.3h-2.3c-0.7,0-1.3,0.6-1.3,1.3l0,0c0,0.7,0.6,1.3,1.3,1.3h2.3
	C48.9,132.8,49.5,132.2,49.5,131.4L49.5,131.4z"/>
<path class="st67" d="M49.5,128.7c0-0.7-0.6-1.3-1.3-1.3h-2.3c-0.7,0-1.3,0.6-1.3,1.3l0,0c0,0.7,0.6,1.3,1.3,1.3h2.3
	C48.9,130,49.5,129.4,49.5,128.7L49.5,128.7z"/>
<polygon class="st63" points="45.7,135.7 45.7,138.1 46.8,138.1 47.4,136.2 46.9,135.4 "/>
<path class="st66" d="M45.1,138.2c0,0,2.3,0.4,2.3-2.8"/>
<path class="st67" d="M49.5,134.1c0-0.7-0.6-1.3-1.3-1.3h-2.3c-0.7,0-1.3,0.6-1.3,1.3l0,0c0,0.7,0.6,1.3,1.3,1.3h2.3
	C48.9,135.4,49.5,134.8,49.5,134.1L49.5,134.1z"/>
<path class="st67" d="M49.5,172.6c0,0.7-0.6,1.3-1.3,1.3h-2.3c-0.7,0-1.3-0.6-1.3-1.3l0,0c0-0.7,0.6-1.3,1.3-1.3h2.3
	C48.9,171.2,49.5,171.8,49.5,172.6L49.5,172.6z"/>
<polygon class="st63" points="45.7,168.3 45.7,166 46.8,166 47.4,167.8 46.9,168.6 "/>
<path class="st66" d="M45.1,165.8c0,0,2.3-0.4,2.3,2.8"/>
<path class="st67" d="M49.5,169.9c0,0.7-0.6,1.3-1.3,1.3h-2.3c-0.7,0-1.3-0.6-1.3-1.3l0,0c0-0.7,0.6-1.3,1.3-1.3h2.3
	C48.9,168.6,49.5,169.2,49.5,169.9L49.5,169.9z"/>
<line class="st67" x1="73" y1="161.8" x2="73" y2="171.8"/>
<circle class="st60" cx="44.5" cy="106" r="6.1"/>
<polygon class="st61" points="45.7,116.1 44.5,116.1 44.5,96.9 63.8,96.9 63.8,98.2 45.7,98.2 "/>
<path class="st61" d="M65,186h-1.3c0-1.9-1.6-3.5-3.5-3.5c-1.9,0-3.5,1.6-3.5,3.5h-1.3c0-2.6,2.1-4.8,4.8-4.8
	C62.9,181.2,65,183.3,65,186z"/>
<rect x="55.5" y="186" class="st61" width="1.3" height="6.5"/>
<path class="st61" d="M56.7,199.6c-7.7,0-14-6.3-14-14c0-7.7,6.3-14,14-14v1.3c-7,0-12.8,5.7-12.8,12.8s5.7,12.8,12.8,12.8
	c5.1,0,9.5-2.6,11.2-6.7l1.2,0.5C67.2,196.6,62.3,199.6,56.7,199.6z"/>
<path class="st61" d="M56.9,193.6c-4.4,0-8.1-3.6-8.1-8.1c0-2.4,1.1-4.7,3-6.3l0.8,1c-1.6,1.3-2.5,3.2-2.5,5.3c0,3.7,3,6.8,6.8,6.8
	c1.1,0,2.1-0.2,3-0.7l0.6,1.2C59.3,193.3,58.1,193.6,56.9,193.6z"/>
<circle class="st66" cx="64.4" cy="171.5" r="7.1"/>
<path class="st67" d="M49.5,175.3c0,0.7-0.6,1.3-1.3,1.3h-2.3c-0.7,0-1.3-0.6-1.3-1.3l0,0c0-0.7,0.6-1.3,1.3-1.3h2.3
	C48.9,174,49.5,174.6,49.5,175.3L49.5,175.3z"/>
<circle class="st60" cx="166.4" cy="107.2" r="6.1"/>
<circle class="st66" cx="55.8" cy="158.6" r="6.9"/>
<circle class="st66" cx="167.5" cy="117.8" r="6.9"/>
<circle class="st60" cx="147.2" cy="130.8" r="6.1"/>
<line class="st68" x1="152.9" y1="179.3" x2="169.7" y2="179.3"/>
<rect x="156.6" y="171.8" class="st63" width="11" height="6.8"/>
<path class="st68" d="M150.6,174.9c-0.3,0.4-0.5,1-0.5,1.5c0,1.5,1.2,2.8,2.8,2.8"/>
<path class="st68" d="M151.6,170.9c0,0,0,2-1.2,4.3"/>
<rect x="158.4" y="179.2" class="st61" width="1.3" height="35.8"/>
<rect x="161.7" y="179.2" class="st61" width="1.3" height="35.8"/>
<rect x="167.2" y="179.2" class="st61" width="1.3" height="35.8"/>
<path class="st67" d="M153.1,215v-2.7c0-1.9,1.5-3.4,3.4-3.4s3.4,1.5,3.4,3.4v2.7"/>
<path class="st67" d="M161.7,215v-2.7c0-1.9,1.5-3.4,3.4-3.4s3.4,1.5,3.4,3.4v2.7"/>
<rect x="7.7" y="214.5" class="st61" width="209.2" height="1.3"/>
</svg>
